<svg width="40" height="44" viewBox="0 0 40 44" fill="none" xmlns="http://www.w3.org/2000/svg">
<g clip-path="url(#clip0_6_76)">
<path d="M4 2L21.8787 19.8787C23.0503 21.0503 23.0503 22.9497 21.8787 24.1213L4 42" stroke="#B0E298" stroke-width="3" stroke-linecap="round"/>
<path d="M18 2L35.8787 19.8787C37.0503 21.0503 37.0503 22.9497 35.8787 24.1213L18 42" stroke="#B0E298" stroke-width="3" stroke-linecap="round"/>
<path d="M34.8511 6.11703L36 6.5L34.8511 6.88297C34.1702 7.10993 33.6631 7.68433 33.5224 8.38811L33 11L32.4776 8.38811C32.3369 7.68433 31.8298 7.10993 31.1489 6.88297L30 6.5L31.1489 6.11703C31.8298 5.89007 32.3369 5.31567 32.4776 4.61189L33 2L33.5224 4.61189C33.6631 5.31567 34.1702 5.89007 34.8511 6.11703Z" fill="#FEB3D5"/>
<path d="M4.85108 32.117L6 32.5L4.85108 32.883C4.1702 33.1099 3.66313 33.6843 3.52238 34.3881L3 37L2.47762 34.3881C2.33687 33.6843 1.8298 33.1099 1.14892 32.883L0 32.5L1.14892 32.117C1.8298 31.8901 2.33687 31.3157 2.47762 30.6119L3 28L3.52238 30.6119C3.66313 31.3157 4.1702 31.8901 4.85108 32.117Z" fill="#FEB3D5"/>
<path d="M39.6347 8.39852L40 8.5L39.6347 8.60148C38.9344 8.796 38.3948 9.35507 38.2252 10.0618L38 11L37.7748 10.0618C37.6052 9.35507 37.0656 8.796 36.3653 8.60148L36 8.5L36.3653 8.39852C37.0656 8.204 37.6052 7.64493 37.7748 6.93823L38 6L38.2252 6.93823C38.3948 7.64493 38.9344 8.204 39.6347 8.39852Z" fill="#FEB3D5"/>
<path d="M36.6347 11.3985L37 11.5L36.6347 11.6015C35.9344 11.796 35.3948 12.3551 35.2252 13.0618L35 14L34.7748 13.0618C34.6052 12.3551 34.0656 11.796 33.3653 11.6015L33 11.5L33.3653 11.3985C34.0656 11.204 34.6052 10.6449 34.7748 9.93823L35 9L35.2252 9.93823C35.3948 10.6449 35.9344 11.204 36.6347 11.3985Z" fill="#FEB3D5"/>
<path d="M36.6347 37.3985L37 37.5L36.6347 37.6015C35.9344 37.796 35.3948 38.3551 35.2252 39.0618L35 40L34.7748 39.0618C34.6052 38.3551 34.0656 37.796 33.3653 37.6015L33 37.5L33.3653 37.3985C34.0656 37.204 34.6052 36.6449 34.7748 35.9382L35 35L35.2252 35.9382C35.3948 36.6449 35.9344 37.204 36.6347 37.3985Z" fill="#FEB3D5"/>
<path d="M39.6347 33.3985L40 33.5L39.6347 33.6015C38.9344 33.796 38.3948 34.3551 38.2252 35.0618L38 36L37.7748 35.0618C37.6052 34.3551 37.0656 33.796 36.3653 33.6015L36 33.5L36.3653 33.3985C37.0656 33.204 37.6052 32.6449 37.7748 31.9382L38 31L38.2252 31.9382C38.3948 32.6449 38.9344 33.204 39.6347 33.3985Z" fill="#FEB3D5"/>
<path d="M13.6347 20.3985L14 20.5L13.6347 20.6015C12.9344 20.796 12.3948 21.3551 12.2252 22.0618L12 23L11.7748 22.0618C11.6052 21.3551 11.0656 20.796 10.3653 20.6015L10 20.5L10.3653 20.3985C11.0656 20.204 11.6052 19.6449 11.7748 18.9382L12 18L12.2252 18.9382C12.3948 19.6449 12.9344 20.204 13.6347 20.3985Z" fill="#FEB3D5"/>
<path d="M10.6347 17.3985L11 17.5L10.6347 17.6015C9.93441 17.796 9.39478 18.3551 9.22517 19.0618L9 20L8.77483 19.0618C8.60522 18.3551 8.06559 17.796 7.36534 17.6015L7 17.5L7.36534 17.3985C8.06559 17.204 8.60522 16.6449 8.77483 15.9382L9 15L9.22517 15.9382C9.39478 16.6449 9.93441 17.204 10.6347 17.3985Z" fill="#FEB3D5"/>
<path d="M5.63466 10.3985L6 10.5L5.63466 10.6015C4.93441 10.796 4.39478 11.3551 4.22517 12.0618L4 13L3.77483 12.0618C3.60522 11.3551 3.06559 10.796 2.36534 10.6015L2 10.5L2.36534 10.3985C3.06559 10.204 3.60522 9.64493 3.77483 8.93823L4 8L4.22517 8.93823C4.39478 9.64493 4.93441 10.204 5.63466 10.3985Z" fill="#FEB3D5"/>
</g>
<defs>
<clipPath id="clip0_6_76">
<rect width="40" height="44" fill="white"/>
</clipPath>
</defs>
</svg>
