<svg width="377" height="106" viewBox="0 0 377 106" fill="none" xmlns="http://www.w3.org/2000/svg">
<path d="M93.8 99.432H92.588C92.348 99.432 92.132 99.384 92 99.156L89.252 93.948C89.192 93.828 89.168 93.732 89.168 93.648C89.168 93.516 89.24 93.432 89.372 93.372C89.66 93.24 91.232 92.592 91.484 92.592C91.664 92.592 91.784 92.676 91.844 92.796L93.188 95.76C93.212 95.82 93.248 95.844 93.272 95.844C93.308 95.844 93.332 95.82 93.368 95.748C93.788 94.776 94.448 93.012 94.532 92.808C94.604 92.652 94.724 92.58 94.88 92.58C94.964 92.58 95.048 92.592 95.144 92.628L96.752 93.12C97.028 93.204 97.136 93.324 97.136 93.492C97.136 93.684 95.816 97.98 94.34 99.252C94.22 99.348 94.016 99.432 93.8 99.432ZM102.071 99.672H101.927C99.2029 99.672 97.8349 97.812 97.8349 95.988C97.8349 94.272 99.0469 92.472 101.783 92.472C104.759 92.472 104.891 95.124 104.891 95.52C104.891 96.072 104.663 96.528 103.955 96.768C103.391 96.96 102.503 97.092 101.879 97.116C101.687 97.116 101.627 97.032 101.579 96.888C101.435 96.492 101.207 95.712 101.207 95.664C101.207 95.532 101.303 95.472 101.459 95.436C102.083 95.292 102.167 95.268 102.167 95.1C102.167 94.992 101.939 94.608 101.435 94.608C100.859 94.608 100.379 95.112 100.379 95.856C100.379 96.708 101.003 97.668 102.503 97.668C102.587 97.668 102.683 97.668 102.767 97.656H102.791C102.959 97.656 103.163 97.764 103.163 97.968C103.163 98.088 102.851 98.904 102.671 99.312C102.575 99.504 102.419 99.672 102.071 99.672ZM109.034 99.396L106.646 99.528C106.502 99.528 106.382 99.432 106.382 99.288L106.046 93.048C106.046 92.904 106.154 92.784 106.286 92.784L107.678 92.712C108.326 92.508 108.95 92.412 109.55 92.412C109.958 92.412 110.354 92.46 110.726 92.544C110.906 92.592 110.978 92.688 110.978 92.832C110.978 92.88 110.966 92.928 110.954 92.988L110.606 94.68C110.57 94.848 110.45 94.932 110.306 94.932C110.27 94.932 110.222 94.92 110.174 94.908C109.982 94.848 109.778 94.812 109.574 94.812C109.406 94.812 109.238 94.836 109.046 94.884L109.274 99.132V99.156C109.274 99.288 109.166 99.396 109.034 99.396ZM113.752 102.84L112.012 102.168C111.832 102.096 111.748 102 111.748 101.88C111.748 101.796 111.784 101.712 111.844 101.628L113.728 98.832C113.692 98.796 113.668 98.736 113.632 98.664L111.388 93.588C111.352 93.504 111.328 93.432 111.328 93.372C111.328 93.204 111.472 93.096 111.652 93.048L113.56 92.484C113.608 92.472 113.656 92.46 113.704 92.46C113.92 92.46 114.076 92.616 114.16 92.82L115.588 96.048C116.296 94.98 116.98 93.912 117.568 92.988C117.64 92.868 117.724 92.796 117.856 92.796C117.928 92.796 118.036 92.82 118.156 92.892L119.944 93.816C120.088 93.888 120.16 93.972 120.16 94.08C120.16 94.26 119.248 96.72 114.34 102.684C114.22 102.816 114.112 102.888 113.968 102.888C113.908 102.888 113.836 102.876 113.752 102.84ZM132.656 99.348L131.744 99.396H131.66C131.468 99.396 131.348 99.348 131.252 99.192C131.18 99.048 130.676 97.716 130.484 97.188C130.448 97.092 130.424 97.068 130.412 97.068C130.388 97.068 130.376 97.14 130.364 97.188C130.244 97.728 129.98 98.904 129.884 99.216C129.848 99.36 129.656 99.504 129.452 99.516L128.264 99.576H128.204C127.988 99.576 127.772 99.504 127.664 99.264L125.216 93.888C125.18 93.816 125.132 93.72 125.132 93.624C125.132 93.516 125.204 93.408 125.444 93.324L127.196 92.748C127.28 92.724 127.352 92.712 127.412 92.712C127.58 92.712 127.688 92.796 127.736 92.904L128.96 95.484C128.984 95.532 129.008 95.544 129.032 95.544C129.056 95.544 129.092 95.508 129.104 95.436C129.152 95.028 129.224 94.164 129.236 94.056C129.26 93.792 129.392 93.72 129.68 93.696L131.06 93.636H131.12C131.288 93.636 131.396 93.696 131.468 93.876L131.78 95.316C131.792 95.352 131.816 95.4 131.84 95.4C131.876 95.4 131.9 95.316 132.44 92.712C132.488 92.496 132.608 92.436 132.764 92.436C132.872 92.436 132.992 92.46 133.1 92.484L134.552 92.772C134.9 92.832 134.972 92.976 134.972 93.144C134.972 93.204 134.96 93.276 134.948 93.336C134.084 98.052 133.388 99.312 132.656 99.348ZM139.035 99.384L136.635 99.504H136.611C136.479 99.504 136.383 99.396 136.371 99.264L136.071 93.42C136.071 93.276 136.167 93.168 136.311 93.156L138.711 93.036H138.735C138.855 93.036 138.963 93.144 138.963 93.264L139.263 99.12V99.144C139.263 99.264 139.155 99.372 139.035 99.384ZM139.155 91.068C139.155 92.04 138.363 92.832 137.391 92.832C136.407 92.832 135.615 92.04 135.615 91.068C135.615 90.084 136.407 89.292 137.391 89.292C138.363 89.292 139.155 90.084 139.155 91.068ZM143.159 102.708L140.759 102.576C140.639 102.576 140.531 102.468 140.531 102.336V102.312L141.011 92.832C141.023 92.7 141.131 92.592 141.251 92.592H141.275L143.279 92.7C143.795 92.508 144.323 92.412 144.827 92.412C146.939 92.412 148.835 93.948 148.835 96.132C148.835 98.316 147.287 99.696 145.019 99.696C144.515 99.696 144.023 99.624 143.579 99.48L143.423 102.468C143.411 102.612 143.303 102.708 143.159 102.708ZM143.819 94.848L143.687 97.248C143.951 97.38 144.299 97.476 144.635 97.476C144.731 97.476 145.883 97.476 145.883 96.156C145.883 95.328 145.259 94.752 144.419 94.752C144.227 94.752 144.023 94.788 143.819 94.848ZM157.52 99.432H155.108C154.976 99.432 154.868 99.324 154.868 99.192V89.388C154.868 89.244 154.976 89.136 155.108 89.136H157.52C157.652 89.136 157.76 89.244 157.76 89.388V99.192C157.76 99.324 157.652 99.432 157.52 99.432ZM166.756 96C166.756 98.34 164.38 99.648 162.676 99.648C160.72 99.648 159.004 98.232 159.004 96.12C159.004 93.648 160.852 92.364 162.964 92.364C165.616 92.364 166.756 94.44 166.756 96ZM162.964 97.356C163.816 97.356 164.2 96.66 164.2 95.976C164.2 95.748 164.152 94.584 162.928 94.584C161.92 94.584 161.632 95.436 161.632 95.976C161.632 96.804 162.28 97.356 162.964 97.356ZM168.618 101.964L169.002 100.86C169.05 100.704 169.182 100.62 169.314 100.62C169.338 100.62 169.362 100.632 169.386 100.632C169.71 100.716 169.998 100.752 170.262 100.752C171.27 100.752 171.858 100.176 172.146 99.216C171.774 99.336 171.366 99.408 170.982 99.408C169.146 99.408 167.478 97.932 167.478 95.7C167.478 94.248 168.342 92.484 170.874 92.484C171.45 92.484 172.002 92.592 172.47 92.796C172.506 92.664 172.614 92.64 172.722 92.64H172.782C172.782 92.64 174.75 92.772 175.026 92.784C175.218 92.796 175.338 92.952 175.338 93.132C175.314 95.244 175.302 97.428 174.954 99.228C174.462 101.772 172.626 102.768 170.754 102.768C170.058 102.768 169.362 102.636 168.726 102.384C168.618 102.348 168.594 102.252 168.594 102.156C168.594 102.084 168.606 102.012 168.618 101.964ZM172.374 97.02L172.434 96.984C172.458 96.504 172.47 95.976 172.47 95.436C172.422 94.872 171.954 94.572 171.438 94.572C170.682 94.572 170.262 95.184 170.262 95.856C170.262 96.324 170.454 97.308 171.51 97.308C171.798 97.308 172.182 97.176 172.374 97.02ZM183.959 96C183.959 98.34 181.583 99.648 179.879 99.648C177.923 99.648 176.207 98.232 176.207 96.12C176.207 93.648 178.055 92.364 180.167 92.364C182.819 92.364 183.959 94.44 183.959 96ZM180.167 97.356C181.019 97.356 181.403 96.66 181.403 95.976C181.403 95.748 181.355 94.584 180.131 94.584C179.123 94.584 178.835 95.436 178.835 95.976C178.835 96.804 179.483 97.356 180.167 97.356ZM187.765 95.736H185.737C185.593 95.736 185.485 95.628 185.473 95.484C185.401 94.416 185.221 91.404 185.209 89.748C185.209 89.616 185.305 89.496 185.449 89.496H188.017C188.233 89.496 188.413 89.532 188.413 91.44C188.413 92.856 188.221 94.38 188.029 95.484C188.005 95.628 187.909 95.736 187.765 95.736ZM186.721 99.672C185.773 99.672 185.005 98.904 185.005 97.956C185.005 97.008 185.773 96.24 186.721 96.24C187.657 96.24 188.425 97.008 188.425 97.956C188.425 98.904 187.657 99.672 186.721 99.672ZM192.57 95.736H190.542C190.398 95.736 190.29 95.628 190.278 95.484C190.206 94.416 190.026 91.404 190.014 89.748C190.014 89.616 190.11 89.496 190.254 89.496H192.822C193.038 89.496 193.218 89.532 193.218 91.44C193.218 92.856 193.026 94.38 192.834 95.484C192.81 95.628 192.714 95.736 192.57 95.736ZM191.526 99.672C190.578 99.672 189.81 98.904 189.81 97.956C189.81 97.008 190.578 96.24 191.526 96.24C192.462 96.24 193.23 97.008 193.23 97.956C193.23 98.904 192.462 99.672 191.526 99.672Z" fill="#6883BA"/>
<path d="M67.2834 87.8914L58.0332 97.0996C56.7072 98.3848 55.5272 98.9098 54.3403 98.5242C53.4272 98.2275 47.5108 94.6901 44.34 88.9156C38.7914 89.8382 33.5051 89.3318 28.8487 87.8189C13.6014 82.8647 4.25117 66.9063 9.02734 52.2068C12.5872 41.2506 25.48 27.977 43.5577 33.8508C48.1227 35.3341 52.2702 37.792 55.3266 40.5011C56.0821 40.04 56.9928 40.0331 58.0884 40.3891L58.5449 40.5374L73.8951 47.0391C76.2096 47.993 76.4631 49.3876 76.1071 50.4832L75.9587 50.9397C71.981 58.8328 68.1218 66.3607 66.1639 72.3866C64.384 77.8647 64.1126 82.117 66.53 84.6184C67.2947 85.3716 68.121 86.2457 67.8243 87.1587C67.765 87.3413 67.5847 87.5855 67.2834 87.8914ZM42.6977 72.5344C43.1951 70.0716 43.8431 67.4558 44.7628 64.6254C45.5341 62.2516 46.4264 59.8161 47.4989 57.1364C46.9966 54.9544 44.9468 52.8752 42.2991 52.0149C36.5471 50.146 31.5419 54.6771 30.029 59.3334C28.3677 64.4463 30.5045 69.9857 36.4391 71.914C38.1738 72.4776 40.3011 72.7651 42.6977 72.5344Z" fill="#6883BA"/>
<path d="M140.395 52.8072L140.671 55.9631C141.14 61.3187 142.76 65.5135 146.999 68.8045C147.614 69.2325 148.654 70.1052 148.746 71.1572C148.797 71.731 148.56 72.3299 147.932 72.8666C147.949 73.0579 139.075 80.6763 139.075 80.6763C138.186 81.525 137.255 81.8956 136.394 81.9709C134.672 82.1215 118.927 78.3916 117.438 61.3686L117.154 58.117C116.275 48.0754 111.03 44.2942 104.015 44.5224L105.235 79.3968C105.319 80.3531 104.533 81.2891 103.577 81.3728L103.386 81.3895L84.1749 82.1066C83.0189 82.1114 82.1786 81.3176 82.0782 80.17L80.3095 30.214C80.3131 29.1537 81.0985 28.2177 82.0548 28.134L82.2461 28.1172L93.0074 27.754C96.6702 26.6626 100.175 25.9705 103.618 25.6692C123.032 23.9708 138.797 34.5409 140.395 52.8072Z" fill="#6883BA"/>
<path d="M195.208 18.4019L191.726 30.3669C191.444 31.548 190.475 32.5964 189.328 32.6968C188.945 32.7302 188.45 32.5808 188.043 32.3274C186.196 31.0434 182.756 30.2843 179.409 30.5772C176.923 30.7947 168.653 32.0964 169.565 42.5206C170.125 48.9281 175.084 52.7344 181.3 52.1906C185.412 51.8308 190.035 49.5954 194.257 44.9859C194.781 44.3619 195.6 43.8084 196.461 43.7331C197.13 43.6745 197.929 43.9901 198.698 45.0792C200.704 48.1801 202.003 49.8012 203.809 52.8232C204.146 53.3719 204.396 54.0246 204.454 54.6941C204.555 55.8417 204.169 56.9355 203.121 58.1835C196.019 66.2251 187.123 70.2799 178.516 71.033C162.64 72.4219 147.611 62.5582 146.139 45.7265C144.265 24.3043 160.622 14.1039 176.402 12.7233C187.017 11.7946 195.036 15.3332 195.245 17.724C195.262 17.9153 195.287 18.2022 195.208 18.4019Z" fill="#6883BA"/>
<path d="M272.756 85.2163L263.257 92.2167C262.157 93.0243 261.183 93.2616 260.32 93.2164C259.937 93.1963 242.372 89.0073 243.392 69.546C244 57.9459 238.847 53.5422 231.945 53.1805L231.465 53.1554L229.642 87.9556C229.581 89.106 228.673 89.9236 227.619 89.8684L208.445 88.8635C207.295 88.8032 206.477 87.8952 206.537 86.7448L210.647 8.32437C210.703 7.26982 211.616 6.35635 212.766 6.41664L231.94 7.42149C232.994 7.47676 233.807 8.48066 233.752 9.53521L232.445 34.461C233.601 34.4254 234.751 34.4857 235.806 34.541C253.829 35.4855 267.646 46.9765 266.939 65.9735C266.709 72.2099 267.704 77.0687 272.205 81.0537C272.755 81.5632 273.76 82.5772 273.704 83.6317C273.679 84.1111 273.457 84.6762 272.756 85.2163Z" fill="#6883BA"/>
<path d="M332.569 54.9148C335.82 73.3504 318.918 86.9561 305.493 89.3233C290.083 92.0406 274.596 83.2685 271.662 66.6292C268.228 47.1536 281.004 34.4705 297.643 31.5365C318.537 27.8524 330.402 42.6244 332.569 54.9148ZM304.578 70.8658C311.291 69.6822 313.349 63.6654 312.399 58.2765C312.082 56.4802 310.087 47.3763 300.444 49.0767C292.502 50.477 291.417 57.5895 292.167 61.8439C293.317 68.3673 299.189 71.816 304.578 70.8658Z" fill="#6883BA"/>
<path d="M363.158 65.2151L344.527 69.5724C343.393 69.7725 342.314 69.1829 342.114 68.0484L330.798 19.3535C330.598 18.219 331.282 17.1236 332.322 16.9402L343.189 14.4392C348.011 11.9318 352.794 10.3086 357.521 9.47512C360.735 8.90833 363.922 8.73638 366.969 8.88139C368.454 9.0095 369.155 9.66581 369.355 10.8003C369.421 11.1785 369.394 11.5733 369.382 12.0627L368.991 25.8765C368.941 27.2501 368.112 28.0786 366.978 28.2786C366.694 28.3286 366.299 28.3008 365.904 28.2729C364.308 28.0669 362.651 28.0667 361.044 28.3501C359.72 28.5835 358.43 29.0059 356.984 29.6508L364.682 62.8018L364.715 62.9909C364.898 64.0308 364.198 65.0317 363.158 65.2151Z" fill="#6883BA"/>
<mask id="mask0_6_62" style="mask-type:alpha" maskUnits="userSpaceOnUse" x="7" y="6" width="363" height="93">
<path d="M67.2834 87.8914L58.0332 97.0996C56.7072 98.3848 55.5272 98.9098 54.3403 98.5242C53.4272 98.2275 47.5108 94.6901 44.34 88.9156C38.7914 89.8382 33.5051 89.3318 28.8487 87.8189C13.6014 82.8647 4.25117 66.9063 9.02734 52.2068C12.5872 41.2506 25.48 27.977 43.5577 33.8508C48.1227 35.3341 52.2702 37.792 55.3266 40.5011C56.0821 40.04 56.9928 40.0331 58.0884 40.3891L58.5449 40.5374L73.8951 47.0391C76.2096 47.993 76.4631 49.3876 76.1071 50.4832L75.9587 50.9397C71.981 58.8328 68.1218 66.3607 66.1639 72.3866C64.384 77.8647 64.1126 82.117 66.53 84.6184C67.2947 85.3716 68.121 86.2457 67.8243 87.1587C67.765 87.3413 67.5847 87.5855 67.2834 87.8914ZM42.6977 72.5344C43.1951 70.0716 43.8431 67.4558 44.7628 64.6254C45.5341 62.2516 46.4264 59.8161 47.4989 57.1364C46.9966 54.9544 44.9468 52.8752 42.2991 52.0149C36.5471 50.146 31.5419 54.6771 30.029 59.3334C28.3677 64.4463 30.5045 69.9857 36.4391 71.914C38.1738 72.4776 40.3011 72.7651 42.6977 72.5344Z" fill="#011627"/>
<path d="M140.395 52.8072L140.671 55.9631C141.14 61.3187 142.76 65.5135 146.999 68.8045C147.614 69.2325 148.654 70.1052 148.746 71.1572C148.797 71.731 148.56 72.3299 147.932 72.8666C147.949 73.0579 139.075 80.6763 139.075 80.6763C138.186 81.525 137.255 81.8956 136.394 81.9709C134.672 82.1215 118.927 78.3916 117.438 61.3686L117.154 58.117C116.275 48.0754 111.03 44.2942 104.015 44.5224L105.235 79.3968C105.319 80.3531 104.533 81.2891 103.577 81.3728L103.386 81.3895L84.1749 82.1066C83.0189 82.1114 82.1786 81.3176 82.0782 80.17L80.3095 30.214C80.3131 29.1537 81.0985 28.2177 82.0548 28.134L82.2461 28.1172L93.0074 27.754C96.6702 26.6626 100.175 25.9705 103.618 25.6692C123.032 23.9708 138.797 34.5409 140.395 52.8072Z" fill="#011627"/>
<path d="M195.208 18.4019L191.726 30.3669C191.444 31.548 190.475 32.5964 189.328 32.6968C188.945 32.7302 188.45 32.5808 188.043 32.3274C186.196 31.0434 182.756 30.2843 179.409 30.5772C176.923 30.7947 168.653 32.0964 169.565 42.5206C170.125 48.9281 175.084 52.7344 181.3 52.1906C185.412 51.8308 190.035 49.5954 194.257 44.9859C194.781 44.3619 195.6 43.8084 196.461 43.7331C197.13 43.6745 197.929 43.9901 198.698 45.0792C200.704 48.1801 202.003 49.8012 203.809 52.8232C204.146 53.3719 204.396 54.0246 204.454 54.6941C204.555 55.8417 204.169 56.9355 203.121 58.1835C196.019 66.2251 187.123 70.2799 178.516 71.033C162.64 72.4219 147.611 62.5582 146.139 45.7265C144.265 24.3043 160.622 14.1039 176.402 12.7233C187.017 11.7946 195.036 15.3332 195.245 17.724C195.262 17.9153 195.287 18.2022 195.208 18.4019Z" fill="#011627"/>
<path d="M272.756 85.2163L263.257 92.2167C262.157 93.0243 261.183 93.2616 260.32 93.2164C259.937 93.1963 242.372 89.0073 243.392 69.546C244 57.9459 238.847 53.5422 231.945 53.1805L231.465 53.1554L229.642 87.9556C229.581 89.106 228.673 89.9236 227.619 89.8684L208.445 88.8635C207.295 88.8032 206.477 87.8952 206.537 86.7448L210.647 8.32437C210.703 7.26982 211.616 6.35635 212.766 6.41664L231.94 7.42149C232.994 7.47676 233.807 8.48066 233.752 9.53521L232.445 34.461C233.601 34.4254 234.751 34.4857 235.806 34.541C253.829 35.4855 267.646 46.9765 266.939 65.9735C266.709 72.2099 267.704 77.0687 272.205 81.0537C272.755 81.5632 273.76 82.5772 273.704 83.6317C273.679 84.1111 273.457 84.6762 272.756 85.2163Z" fill="#011627"/>
<path d="M332.569 54.9148C335.82 73.3504 318.918 86.9561 305.493 89.3233C290.083 92.0406 274.596 83.2685 271.662 66.6292C268.228 47.1536 281.004 34.4705 297.643 31.5365C318.537 27.8524 330.402 42.6244 332.569 54.9148ZM304.578 70.8658C311.291 69.6822 313.349 63.6654 312.399 58.2765C312.082 56.4802 310.087 47.3763 300.444 49.0767C292.502 50.477 291.417 57.5895 292.167 61.8439C293.317 68.3673 299.189 71.816 304.578 70.8658Z" fill="#011627"/>
<path d="M363.158 65.2151L344.527 69.5724C343.393 69.7725 342.314 69.1829 342.114 68.0484L330.798 19.3535C330.598 18.219 331.282 17.1236 332.322 16.9402L343.189 14.4392C348.011 11.9318 352.794 10.3086 357.521 9.47512C360.735 8.90833 363.922 8.73638 366.969 8.88139C368.454 9.0095 369.155 9.66581 369.355 10.8003C369.421 11.1785 369.394 11.5733 369.382 12.0627L368.991 25.8765C368.941 27.2501 368.112 28.0786 366.978 28.2786C366.694 28.3286 366.299 28.3008 365.904 28.2729C364.308 28.0669 362.651 28.0667 361.044 28.3501C359.72 28.5835 358.43 29.0059 356.984 29.6508L364.682 62.8018L364.715 62.9909C364.898 64.0308 364.198 65.0317 363.158 65.2151Z" fill="#011627"/>
</mask>
<g mask="url(#mask0_6_62)">
<path d="M98.3323 2.39426L100.662 -10.0299C101.157 -12.6732 103.351 -14.6638 106.03 -14.9008L394.877 -40.4582C398.234 -40.7553 401.178 -38.2294 401.394 -34.8658L406.717 48.0968C406.886 50.7163 405.331 53.1409 402.881 54.0821L336.513 79.5743C333.659 80.6706 330.437 79.4455 329.033 76.7298L319.219 57.7568C317.711 54.842 314.142 53.6792 311.206 55.1468L265.797 77.8515C262.177 79.6614 257.841 77.4419 257.191 73.4473L253.078 48.1313C252.503 44.5964 248.98 42.3486 245.532 43.3174L200.962 55.8414C196.64 57.0557 192.564 53.2682 193.459 48.8692L195.691 37.8961C196.548 33.6804 192.821 29.9588 188.607 30.8224L146.629 39.4244C142.116 40.3492 138.287 36.0533 139.724 31.6759L144.417 17.3706C145.691 13.4907 142.8 9.5 138.717 9.5H104.23C100.473 9.5 97.64 6.08675 98.3323 2.39426Z" fill="#B0E298" fill-opacity="0.25"/>
<path d="M253.668 108.106L251.338 120.53C250.843 123.173 248.649 125.164 245.97 125.401L-42.8771 150.958C-46.2345 151.255 -49.1778 148.729 -49.3936 145.366L-54.7174 62.4032C-54.8855 59.7837 -53.3315 57.3591 -50.8811 56.4179L15.4866 30.9257C18.3407 29.8294 21.5627 31.0545 22.9673 33.7702L32.781 52.7432C34.2886 55.658 37.8584 56.8208 40.7935 55.3532L86.203 32.6485C89.8227 30.8386 94.1594 33.0581 94.8086 37.0527L98.9224 62.3687C99.4968 65.9036 103.02 68.1514 106.468 67.1826L151.038 54.6586C155.36 53.4443 159.436 57.2318 158.541 61.6308L156.309 72.6039C155.452 76.8196 159.179 80.5412 163.393 79.6776L205.371 71.0756C209.884 70.1508 213.713 74.4467 212.276 78.8241L207.583 93.1294C206.309 97.0093 209.2 101 213.283 101H247.77C251.527 101 254.36 104.413 253.668 108.106Z" fill="#E072A4" fill-opacity="0.35"/>
<path d="M249.668 124.106L247.338 136.53C246.843 139.173 244.649 141.164 241.97 141.401L-46.8771 166.958C-50.2345 167.255 -53.1778 164.729 -53.3936 161.366L-58.7174 78.4032C-58.8855 75.7837 -57.3315 73.3591 -54.8811 72.4179L11.4866 46.9257C14.3407 45.8294 17.5627 47.0545 18.9673 49.7702L28.781 68.7432C30.2886 71.658 33.8584 72.8208 36.7935 71.3532L82.203 48.6485C85.8227 46.8386 90.1594 49.0581 90.8086 53.0527L94.9224 78.3687C95.4968 81.9036 99.0201 84.1514 102.468 83.1826L147.038 70.6586C151.36 69.4443 155.436 73.2318 154.541 77.6308L152.309 88.6039C151.452 92.8196 155.179 96.5412 159.393 95.6776L201.371 87.0756C205.884 86.1508 209.713 90.4467 208.276 94.8241L203.583 109.129C202.309 113.009 205.2 117 209.283 117H243.77C247.527 117 250.36 120.413 249.668 124.106Z" fill="#E072A4" fill-opacity="0.35"/>
<path d="M242.668 137.106L240.338 149.53C239.843 152.173 237.649 154.164 234.97 154.401L-53.8771 179.958C-57.2345 180.255 -60.1778 177.729 -60.3936 174.366L-65.7174 91.4032C-65.8855 88.7837 -64.3315 86.3591 -61.8811 85.4179L4.48663 59.9257C7.34071 58.8294 10.5627 60.0545 11.9673 62.7702L21.781 81.7432C23.2886 84.658 26.8584 85.8208 29.7935 84.3532L75.203 61.6485C78.8227 59.8386 83.1594 62.0581 83.8086 66.0527L87.9224 91.3687C88.4968 94.9036 92.0201 97.1514 95.4678 96.1826L140.038 83.6586C144.36 82.4443 148.436 86.2318 147.541 90.6308L145.309 101.604C144.452 105.82 148.179 109.541 152.393 108.678L194.371 100.076C198.884 99.1508 202.713 103.447 201.276 107.824L196.583 122.129C195.309 126.009 198.2 130 202.283 130H236.77C240.527 130 243.36 133.413 242.668 137.106Z" fill="#E072A4" fill-opacity="0.35"/>
<path d="M236.668 150.106L234.338 162.53C233.843 165.173 231.649 167.164 228.97 167.401L-59.8771 192.958C-63.2345 193.255 -66.1778 190.729 -66.3936 187.366L-71.7174 104.403C-71.8855 101.784 -70.3315 99.3591 -67.8811 98.4179L-1.51337 72.9257C1.34071 71.8294 4.56268 73.0545 5.96733 75.7702L15.781 94.7432C17.2886 97.658 20.8584 98.8208 23.7935 97.3532L69.203 74.6485C72.8227 72.8386 77.1594 75.0581 77.8086 79.0527L81.9224 104.369C82.4968 107.904 86.0201 110.151 89.4678 109.183L134.038 96.6586C138.36 95.4443 142.436 99.2318 141.541 103.631L139.309 114.604C138.452 118.82 142.179 122.541 146.393 121.678L188.371 113.076C192.884 112.151 196.713 116.447 195.276 120.824L190.583 135.129C189.309 139.009 192.2 143 196.283 143H230.77C234.527 143 237.36 146.413 236.668 150.106Z" fill="#E072A4" fill-opacity="0.35"/>
<path d="M105.332 -7.60574L107.662 -20.0299C108.157 -22.6732 110.351 -24.6638 113.03 -24.9008L401.877 -50.4582C405.234 -50.7553 408.178 -48.2294 408.394 -44.8658L413.717 38.0968C413.886 40.7163 412.331 43.1409 409.881 44.0821L343.513 69.5743C340.659 70.6706 337.437 69.4455 336.033 66.7298L326.219 47.7568C324.711 44.842 321.142 43.6792 318.206 45.1468L272.797 67.8515C269.177 69.6614 264.841 67.4419 264.191 63.4473L260.078 38.1313C259.503 34.5964 255.98 32.3486 252.532 33.3174L207.962 45.8414C203.64 47.0557 199.564 43.2682 200.459 38.8692L202.691 27.8961C203.548 23.6804 199.821 19.9588 195.607 20.8224L153.629 29.4244C149.116 30.3492 145.287 26.0533 146.724 21.6759L151.417 7.37062C152.691 3.49065 149.8 -0.5 145.717 -0.5H111.23C107.473 -0.5 104.64 -3.91325 105.332 -7.60574Z" fill="#B0E298" fill-opacity="0.25"/>
<path d="M112.332 -18.6057L114.662 -31.0299C115.157 -33.6732 117.351 -35.6638 120.03 -35.9008L408.877 -61.4582C412.234 -61.7553 415.178 -59.2294 415.394 -55.8658L420.717 27.0968C420.886 29.7163 419.331 32.1409 416.881 33.0821L350.513 58.5743C347.659 59.6706 344.437 58.4455 343.033 55.7298L333.219 36.7568C331.711 33.842 328.142 32.6792 325.206 34.1468L279.797 56.8515C276.177 58.6614 271.841 56.4419 271.191 52.4473L267.078 27.1313C266.503 23.5964 262.98 21.3486 259.532 22.3174L214.962 34.8414C210.64 36.0557 206.564 32.2682 207.459 27.8692L209.691 16.8961C210.548 12.6804 206.821 8.95882 202.607 9.82243L160.629 18.4244C156.116 19.3492 152.287 15.0533 153.724 10.6759L158.417 -3.62938C159.691 -7.50935 156.8 -11.5 152.717 -11.5H118.23C114.473 -11.5 111.64 -14.9133 112.332 -18.6057Z" fill="#B0E298" fill-opacity="0.25"/>
<path d="M117.332 -26.6057L119.662 -39.0299C120.157 -41.6732 122.351 -43.6638 125.03 -43.9008L413.877 -69.4582C417.234 -69.7553 420.178 -67.2294 420.394 -63.8658L425.717 19.0968C425.886 21.7163 424.331 24.1409 421.881 25.0821L355.513 50.5743C352.659 51.6706 349.437 50.4455 348.033 47.7298L338.219 28.7568C336.711 25.842 333.142 24.6792 330.206 26.1468L284.797 48.8515C281.177 50.6614 276.841 48.4419 276.191 44.4473L272.078 19.1313C271.503 15.5964 267.98 13.3486 264.532 14.3174L219.962 26.8414C215.64 28.0557 211.564 24.2682 212.459 19.8692L214.691 8.89615C215.548 4.68044 211.821 0.958817 207.607 1.82243L165.629 10.4244C161.116 11.3492 157.287 7.05331 158.724 2.67592L163.417 -11.6294C164.691 -15.5093 161.8 -19.5 157.717 -19.5H123.23C119.473 -19.5 116.64 -22.9133 117.332 -26.6057Z" fill="#B0E298" fill-opacity="0.25"/>
</g>
</svg>
