<svg width="464" height="173" viewBox="0 0 464 173" fill="none" xmlns="http://www.w3.org/2000/svg">
<path d="M131.8 136.432H130.588C130.348 136.432 130.132 136.384 130 136.156L127.252 130.948C127.192 130.828 127.168 130.732 127.168 130.648C127.168 130.516 127.24 130.432 127.372 130.372C127.66 130.24 129.232 129.592 129.484 129.592C129.664 129.592 129.784 129.676 129.844 129.796L131.188 132.76C131.212 132.82 131.248 132.844 131.272 132.844C131.308 132.844 131.332 132.82 131.368 132.748C131.788 131.776 132.448 130.012 132.532 129.808C132.604 129.652 132.724 129.58 132.88 129.58C132.964 129.58 133.048 129.592 133.144 129.628L134.752 130.12C135.028 130.204 135.136 130.324 135.136 130.492C135.136 130.684 133.816 134.98 132.34 136.252C132.22 136.348 132.016 136.432 131.8 136.432ZM140.071 136.672H139.927C137.203 136.672 135.835 134.812 135.835 132.988C135.835 131.272 137.047 129.472 139.783 129.472C142.759 129.472 142.891 132.124 142.891 132.52C142.891 133.072 142.663 133.528 141.955 133.768C141.391 133.96 140.503 134.092 139.879 134.116C139.687 134.116 139.627 134.032 139.579 133.888C139.435 133.492 139.207 132.712 139.207 132.664C139.207 132.532 139.303 132.472 139.459 132.436C140.083 132.292 140.167 132.268 140.167 132.1C140.167 131.992 139.939 131.608 139.435 131.608C138.859 131.608 138.379 132.112 138.379 132.856C138.379 133.708 139.003 134.668 140.503 134.668C140.587 134.668 140.683 134.668 140.767 134.656H140.791C140.959 134.656 141.163 134.764 141.163 134.968C141.163 135.088 140.851 135.904 140.671 136.312C140.575 136.504 140.419 136.672 140.071 136.672ZM147.034 136.396L144.646 136.528C144.502 136.528 144.382 136.432 144.382 136.288L144.046 130.048C144.046 129.904 144.154 129.784 144.286 129.784L145.678 129.712C146.326 129.508 146.95 129.412 147.55 129.412C147.958 129.412 148.354 129.46 148.726 129.544C148.906 129.592 148.978 129.688 148.978 129.832C148.978 129.88 148.966 129.928 148.954 129.988L148.606 131.68C148.57 131.848 148.45 131.932 148.306 131.932C148.27 131.932 148.222 131.92 148.174 131.908C147.982 131.848 147.778 131.812 147.574 131.812C147.406 131.812 147.238 131.836 147.046 131.884L147.274 136.132V136.156C147.274 136.288 147.166 136.396 147.034 136.396ZM151.752 139.84L150.012 139.168C149.832 139.096 149.748 139 149.748 138.88C149.748 138.796 149.784 138.712 149.844 138.628L151.728 135.832C151.692 135.796 151.668 135.736 151.632 135.664L149.388 130.588C149.352 130.504 149.328 130.432 149.328 130.372C149.328 130.204 149.472 130.096 149.652 130.048L151.56 129.484C151.608 129.472 151.656 129.46 151.704 129.46C151.92 129.46 152.076 129.616 152.16 129.82L153.588 133.048C154.296 131.98 154.98 130.912 155.568 129.988C155.64 129.868 155.724 129.796 155.856 129.796C155.928 129.796 156.036 129.82 156.156 129.892L157.944 130.816C158.088 130.888 158.16 130.972 158.16 131.08C158.16 131.26 157.248 133.72 152.34 139.684C152.22 139.816 152.112 139.888 151.968 139.888C151.908 139.888 151.836 139.876 151.752 139.84ZM170.656 136.348L169.744 136.396H169.66C169.468 136.396 169.348 136.348 169.252 136.192C169.18 136.048 168.676 134.716 168.484 134.188C168.448 134.092 168.424 134.068 168.412 134.068C168.388 134.068 168.376 134.14 168.364 134.188C168.244 134.728 167.98 135.904 167.884 136.216C167.848 136.36 167.656 136.504 167.452 136.516L166.264 136.576H166.204C165.988 136.576 165.772 136.504 165.664 136.264L163.216 130.888C163.18 130.816 163.132 130.72 163.132 130.624C163.132 130.516 163.204 130.408 163.444 130.324L165.196 129.748C165.28 129.724 165.352 129.712 165.412 129.712C165.58 129.712 165.688 129.796 165.736 129.904L166.96 132.484C166.984 132.532 167.008 132.544 167.032 132.544C167.056 132.544 167.092 132.508 167.104 132.436C167.152 132.028 167.224 131.164 167.236 131.056C167.26 130.792 167.392 130.72 167.68 130.696L169.06 130.636H169.12C169.288 130.636 169.396 130.696 169.468 130.876L169.78 132.316C169.792 132.352 169.816 132.4 169.84 132.4C169.876 132.4 169.9 132.316 170.44 129.712C170.488 129.496 170.608 129.436 170.764 129.436C170.872 129.436 170.992 129.46 171.1 129.484L172.552 129.772C172.9 129.832 172.972 129.976 172.972 130.144C172.972 130.204 172.96 130.276 172.948 130.336C172.084 135.052 171.388 136.312 170.656 136.348ZM177.035 136.384L174.635 136.504H174.611C174.479 136.504 174.383 136.396 174.371 136.264L174.071 130.42C174.071 130.276 174.167 130.168 174.311 130.156L176.711 130.036H176.735C176.855 130.036 176.963 130.144 176.963 130.264L177.263 136.12V136.144C177.263 136.264 177.155 136.372 177.035 136.384ZM177.155 128.068C177.155 129.04 176.363 129.832 175.391 129.832C174.407 129.832 173.615 129.04 173.615 128.068C173.615 127.084 174.407 126.292 175.391 126.292C176.363 126.292 177.155 127.084 177.155 128.068ZM181.159 139.708L178.759 139.576C178.639 139.576 178.531 139.468 178.531 139.336V139.312L179.011 129.832C179.023 129.7 179.131 129.592 179.251 129.592H179.275L181.279 129.7C181.795 129.508 182.323 129.412 182.827 129.412C184.939 129.412 186.835 130.948 186.835 133.132C186.835 135.316 185.287 136.696 183.019 136.696C182.515 136.696 182.023 136.624 181.579 136.48L181.423 139.468C181.411 139.612 181.303 139.708 181.159 139.708ZM181.819 131.848L181.687 134.248C181.951 134.38 182.299 134.476 182.635 134.476C182.731 134.476 183.883 134.476 183.883 133.156C183.883 132.328 183.259 131.752 182.419 131.752C182.227 131.752 182.023 131.788 181.819 131.848ZM195.52 136.432H193.108C192.976 136.432 192.868 136.324 192.868 136.192V126.388C192.868 126.244 192.976 126.136 193.108 126.136H195.52C195.652 126.136 195.76 126.244 195.76 126.388V136.192C195.76 136.324 195.652 136.432 195.52 136.432ZM204.756 133C204.756 135.34 202.38 136.648 200.676 136.648C198.72 136.648 197.004 135.232 197.004 133.12C197.004 130.648 198.852 129.364 200.964 129.364C203.616 129.364 204.756 131.44 204.756 133ZM200.964 134.356C201.816 134.356 202.2 133.66 202.2 132.976C202.2 132.748 202.152 131.584 200.928 131.584C199.92 131.584 199.632 132.436 199.632 132.976C199.632 133.804 200.28 134.356 200.964 134.356ZM206.618 138.964L207.002 137.86C207.05 137.704 207.182 137.62 207.314 137.62C207.338 137.62 207.362 137.632 207.386 137.632C207.71 137.716 207.998 137.752 208.262 137.752C209.27 137.752 209.858 137.176 210.146 136.216C209.774 136.336 209.366 136.408 208.982 136.408C207.146 136.408 205.478 134.932 205.478 132.7C205.478 131.248 206.342 129.484 208.874 129.484C209.45 129.484 210.002 129.592 210.47 129.796C210.506 129.664 210.614 129.64 210.722 129.64H210.782C210.782 129.64 212.75 129.772 213.026 129.784C213.218 129.796 213.338 129.952 213.338 130.132C213.314 132.244 213.302 134.428 212.954 136.228C212.462 138.772 210.626 139.768 208.754 139.768C208.058 139.768 207.362 139.636 206.726 139.384C206.618 139.348 206.594 139.252 206.594 139.156C206.594 139.084 206.606 139.012 206.618 138.964ZM210.374 134.02L210.434 133.984C210.458 133.504 210.47 132.976 210.47 132.436C210.422 131.872 209.954 131.572 209.438 131.572C208.682 131.572 208.262 132.184 208.262 132.856C208.262 133.324 208.454 134.308 209.51 134.308C209.798 134.308 210.182 134.176 210.374 134.02ZM221.959 133C221.959 135.34 219.583 136.648 217.879 136.648C215.923 136.648 214.207 135.232 214.207 133.12C214.207 130.648 216.055 129.364 218.167 129.364C220.819 129.364 221.959 131.44 221.959 133ZM218.167 134.356C219.019 134.356 219.403 133.66 219.403 132.976C219.403 132.748 219.355 131.584 218.131 131.584C217.123 131.584 216.835 132.436 216.835 132.976C216.835 133.804 217.483 134.356 218.167 134.356ZM225.765 132.736H223.737C223.593 132.736 223.485 132.628 223.473 132.484C223.401 131.416 223.221 128.404 223.209 126.748C223.209 126.616 223.305 126.496 223.449 126.496H226.017C226.233 126.496 226.413 126.532 226.413 128.44C226.413 129.856 226.221 131.38 226.029 132.484C226.005 132.628 225.909 132.736 225.765 132.736ZM224.721 136.672C223.773 136.672 223.005 135.904 223.005 134.956C223.005 134.008 223.773 133.24 224.721 133.24C225.657 133.24 226.425 134.008 226.425 134.956C226.425 135.904 225.657 136.672 224.721 136.672ZM230.57 132.736H228.542C228.398 132.736 228.29 132.628 228.278 132.484C228.206 131.416 228.026 128.404 228.014 126.748C228.014 126.616 228.11 126.496 228.254 126.496H230.822C231.038 126.496 231.218 126.532 231.218 128.44C231.218 129.856 231.026 131.38 230.834 132.484C230.81 132.628 230.714 132.736 230.57 132.736ZM229.526 136.672C228.578 136.672 227.81 135.904 227.81 134.956C227.81 134.008 228.578 133.24 229.526 133.24C230.462 133.24 231.23 134.008 231.23 134.956C231.23 135.904 230.462 136.672 229.526 136.672Z" fill="#011627"/>
<path d="M105.283 124.891L96.0333 134.1C94.7072 135.385 93.5272 135.91 92.3403 135.524C91.4273 135.228 85.5108 131.69 82.3401 125.916C76.7914 126.838 71.5052 126.332 66.8488 124.819C51.6014 119.865 42.2512 103.906 47.0274 89.2068C50.5873 78.2506 63.4801 64.977 81.5577 70.8508C86.1228 72.3341 90.2703 74.792 93.3267 77.5011C94.0822 77.04 94.9929 77.0331 96.0885 77.3891L96.545 77.5374L111.895 84.0391C114.21 84.993 114.463 86.3876 114.107 87.4832L113.959 87.9397C109.981 95.8328 106.122 103.361 104.164 109.387C102.384 114.865 102.113 119.117 104.53 121.618C105.295 122.372 106.121 123.246 105.824 124.159C105.765 124.341 105.585 124.586 105.283 124.891ZM80.6978 109.534C81.1952 107.072 81.8432 104.456 82.7628 101.625C83.5341 99.2516 84.4264 96.8161 85.499 94.1364C84.9967 91.9544 82.9469 89.8752 80.2991 89.0149C74.5471 87.146 69.542 91.6771 68.029 96.3334C66.3678 101.446 68.5046 106.986 74.4392 108.914C76.1739 109.478 78.3012 109.765 80.6978 109.534Z" fill="#011627"/>
<path d="M178.395 89.8072L178.671 92.9631C179.14 98.3187 180.76 102.513 184.999 105.805C185.614 106.232 186.654 107.105 186.746 108.157C186.797 108.731 186.56 109.33 185.932 109.867C185.949 110.058 177.075 117.676 177.075 117.676C176.186 118.525 175.255 118.896 174.394 118.971C172.672 119.122 156.927 115.392 155.438 98.3686L155.154 95.117C154.275 85.0754 149.03 81.2942 142.015 81.5224L143.235 116.397C143.319 117.353 142.533 118.289 141.577 118.373L141.386 118.39L122.175 119.107C121.019 119.111 120.179 118.318 120.078 117.17L118.31 67.214C118.313 66.1537 119.099 65.2177 120.055 65.134L120.246 65.1172L131.007 64.754C134.67 63.6626 138.175 62.9705 141.618 62.6692C161.032 60.9708 176.797 71.5409 178.395 89.8072Z" fill="#011627"/>
<path d="M233.208 55.4019L229.726 67.3669C229.444 68.548 228.475 69.5964 227.328 69.6968C226.945 69.7302 226.45 69.5808 226.043 69.3274C224.196 68.0434 220.756 67.2843 217.409 67.5772C214.923 67.7947 206.653 69.0964 207.565 79.5206C208.125 85.9281 213.084 89.7344 219.3 89.1906C223.412 88.8308 228.035 86.5954 232.258 81.9859C232.781 81.3619 233.6 80.8084 234.461 80.7331C235.13 80.6745 235.929 80.9901 236.699 82.0792C238.704 85.1801 240.003 86.8012 241.809 89.8232C242.146 90.3719 242.396 91.0246 242.454 91.6941C242.555 92.8417 242.169 93.9355 241.121 95.1835C234.019 103.225 225.123 107.28 216.516 108.033C200.64 109.422 185.612 99.5582 184.139 82.7265C182.265 61.3043 198.622 51.1039 214.402 49.7233C225.017 48.7946 233.036 52.3332 233.245 54.724C233.262 54.9153 233.287 55.2022 233.208 55.4019Z" fill="#011627"/>
<path d="M310.756 122.216L301.257 129.217C300.157 130.024 299.183 130.262 298.32 130.216C297.937 130.196 280.372 126.007 281.392 106.546C282 94.9459 276.847 90.5422 269.945 90.1805L269.466 90.1554L267.642 124.956C267.581 126.106 266.673 126.924 265.619 126.868L246.445 125.864C245.295 125.803 244.477 124.895 244.537 123.745L248.647 45.3244C248.703 44.2698 249.616 43.3564 250.766 43.4166L269.94 44.4215C270.994 44.4768 271.807 45.4807 271.752 46.5352L270.445 71.461C271.601 71.4254 272.751 71.4857 273.806 71.541C291.829 72.4855 305.647 83.9765 304.939 102.973C304.709 109.21 305.704 114.069 310.205 118.054C310.755 118.563 311.76 119.577 311.704 120.632C311.679 121.111 311.457 121.676 310.756 122.216Z" fill="#011627"/>
<path d="M370.57 91.9148C373.82 110.35 356.918 123.956 343.493 126.323C328.083 129.041 312.596 120.269 309.662 103.629C306.228 84.1536 319.004 71.4705 335.643 68.5365C356.537 64.8524 368.402 79.6244 370.57 91.9148ZM342.578 107.866C349.291 106.682 351.349 100.665 350.399 95.2765C350.082 93.4802 348.087 84.3763 338.444 86.0767C330.502 87.477 329.417 94.5895 330.167 98.8439C331.317 105.367 337.189 108.816 342.578 107.866Z" fill="#011627"/>
<path d="M401.158 102.215L382.527 106.572C381.393 106.772 380.314 106.183 380.114 105.048L368.798 56.3535C368.598 55.219 369.282 54.1236 370.322 53.9402L381.189 51.4392C386.011 48.9318 390.794 47.3086 395.521 46.4751C398.735 45.9083 401.922 45.7364 404.969 45.8814C406.454 46.0095 407.155 46.6658 407.355 47.8003C407.421 48.1785 407.394 48.5733 407.382 49.0627L406.991 62.8765C406.941 64.2501 406.112 65.0786 404.978 65.2786C404.694 65.3286 404.299 65.3008 403.904 65.2729C402.308 65.0669 400.651 65.0667 399.044 65.3501C397.72 65.5835 396.43 66.0059 394.984 66.6508L402.682 99.8018L402.715 99.9909C402.898 101.031 402.198 102.032 401.158 102.215Z" fill="#011627"/>
<mask id="mask0_1_53" style="mask-type:alpha" maskUnits="userSpaceOnUse" x="45" y="43" width="363" height="93">
<path d="M105.283 124.891L96.0333 134.1C94.7072 135.385 93.5272 135.91 92.3403 135.524C91.4273 135.228 85.5108 131.69 82.3401 125.916C76.7914 126.838 71.5052 126.332 66.8488 124.819C51.6014 119.865 42.2512 103.906 47.0274 89.2068C50.5873 78.2506 63.4801 64.977 81.5577 70.8508C86.1228 72.3341 90.2703 74.792 93.3267 77.5011C94.0822 77.04 94.9929 77.0331 96.0885 77.3891L96.545 77.5374L111.895 84.0391C114.21 84.993 114.463 86.3876 114.107 87.4832L113.959 87.9397C109.981 95.8328 106.122 103.361 104.164 109.387C102.384 114.865 102.113 119.117 104.53 121.618C105.295 122.372 106.121 123.246 105.824 124.159C105.765 124.341 105.585 124.586 105.283 124.891ZM80.6978 109.534C81.1952 107.072 81.8432 104.456 82.7628 101.625C83.5341 99.2516 84.4264 96.8161 85.499 94.1364C84.9967 91.9544 82.9469 89.8752 80.2991 89.0149C74.5471 87.146 69.542 91.6771 68.029 96.3334C66.3678 101.446 68.5046 106.986 74.4392 108.914C76.1739 109.478 78.3012 109.765 80.6978 109.534Z" fill="#011627"/>
<path d="M178.395 89.8072L178.671 92.9631C179.14 98.3187 180.76 102.513 184.999 105.805C185.614 106.232 186.654 107.105 186.746 108.157C186.797 108.731 186.56 109.33 185.932 109.867C185.949 110.058 177.075 117.676 177.075 117.676C176.186 118.525 175.255 118.896 174.394 118.971C172.672 119.122 156.927 115.392 155.438 98.3686L155.154 95.117C154.275 85.0754 149.03 81.2942 142.015 81.5224L143.235 116.397C143.319 117.353 142.533 118.289 141.577 118.373L141.386 118.39L122.175 119.107C121.019 119.111 120.179 118.318 120.078 117.17L118.31 67.214C118.313 66.1537 119.099 65.2177 120.055 65.134L120.246 65.1172L131.007 64.754C134.67 63.6626 138.175 62.9705 141.618 62.6692C161.032 60.9708 176.797 71.5409 178.395 89.8072Z" fill="#011627"/>
<path d="M233.208 55.4019L229.726 67.3669C229.444 68.548 228.475 69.5964 227.328 69.6968C226.945 69.7302 226.45 69.5808 226.043 69.3274C224.196 68.0434 220.756 67.2843 217.409 67.5772C214.923 67.7947 206.653 69.0964 207.565 79.5206C208.125 85.9281 213.084 89.7344 219.3 89.1906C223.412 88.8308 228.035 86.5954 232.258 81.9859C232.781 81.3619 233.6 80.8084 234.461 80.7331C235.13 80.6745 235.929 80.9901 236.699 82.0792C238.704 85.1801 240.003 86.8012 241.809 89.8232C242.146 90.3719 242.396 91.0246 242.454 91.6941C242.555 92.8417 242.169 93.9355 241.121 95.1835C234.019 103.225 225.123 107.28 216.516 108.033C200.64 109.422 185.612 99.5582 184.139 82.7265C182.265 61.3043 198.622 51.1039 214.402 49.7233C225.017 48.7946 233.036 52.3332 233.245 54.724C233.262 54.9153 233.287 55.2022 233.208 55.4019Z" fill="#011627"/>
<path d="M310.756 122.216L301.257 129.217C300.157 130.024 299.183 130.262 298.32 130.216C297.937 130.196 280.372 126.007 281.392 106.546C282 94.9459 276.847 90.5422 269.945 90.1805L269.466 90.1554L267.642 124.956C267.581 126.106 266.673 126.924 265.619 126.868L246.445 125.864C245.295 125.803 244.477 124.895 244.537 123.745L248.647 45.3244C248.703 44.2698 249.616 43.3564 250.766 43.4166L269.94 44.4215C270.994 44.4768 271.807 45.4807 271.752 46.5352L270.445 71.461C271.601 71.4254 272.751 71.4857 273.806 71.541C291.829 72.4855 305.647 83.9765 304.939 102.973C304.709 109.21 305.704 114.069 310.205 118.054C310.755 118.563 311.76 119.577 311.704 120.632C311.679 121.111 311.457 121.676 310.756 122.216Z" fill="#011627"/>
<path d="M370.57 91.9148C373.82 110.35 356.918 123.956 343.493 126.323C328.083 129.041 312.596 120.269 309.662 103.629C306.228 84.1536 319.004 71.4705 335.643 68.5365C356.537 64.8524 368.402 79.6244 370.57 91.9148ZM342.578 107.866C349.291 106.682 351.349 100.665 350.399 95.2765C350.082 93.4802 348.087 84.3763 338.444 86.0767C330.502 87.477 329.417 94.5895 330.167 98.8439C331.317 105.367 337.189 108.816 342.578 107.866Z" fill="#011627"/>
<path d="M401.158 102.215L382.527 106.572C381.393 106.772 380.314 106.183 380.114 105.048L368.798 56.3535C368.598 55.219 369.282 54.1236 370.322 53.9402L381.189 51.4392C386.011 48.9318 390.794 47.3086 395.521 46.4751C398.735 45.9083 401.922 45.7364 404.969 45.8814C406.454 46.0095 407.155 46.6658 407.355 47.8003C407.421 48.1785 407.394 48.5733 407.382 49.0627L406.991 62.8765C406.941 64.2501 406.112 65.0786 404.978 65.2786C404.694 65.3286 404.299 65.3008 403.904 65.2729C402.308 65.0669 400.651 65.0667 399.044 65.3501C397.72 65.5835 396.43 66.0059 394.984 66.6508L402.682 99.8018L402.715 99.9909C402.898 101.031 402.198 102.032 401.158 102.215Z" fill="#011627"/>
</mask>
<g mask="url(#mask0_1_53)">
<path d="M136.332 39.3943L138.662 26.9701C139.157 24.3268 141.351 22.3362 144.03 22.0992L432.877 -3.45824C436.234 -3.75531 439.178 -1.2294 439.394 2.13417L444.717 85.0968C444.886 87.7163 443.331 90.1409 440.881 91.0821L374.513 116.574C371.659 117.671 368.437 116.445 367.033 113.73L357.219 94.7568C355.711 91.842 352.142 90.6792 349.206 92.1468L303.797 114.851C300.177 116.661 295.841 114.442 295.191 110.447L291.078 85.1313C290.503 81.5964 286.98 79.3486 283.532 80.3174L238.962 92.8414C234.64 94.0557 230.564 90.2682 231.459 85.8692L233.691 74.8961C234.548 70.6804 230.821 66.9588 226.607 67.8224L184.629 76.4244C180.116 77.3492 176.287 73.0533 177.724 68.6759L182.417 54.3706C183.691 50.4907 180.8 46.5 176.717 46.5H142.23C138.473 46.5 135.64 43.0867 136.332 39.3943Z" fill="#6883BA" stroke="#B0E298" stroke-width="15"/>
<path d="M132.332 53.3943L134.662 40.9701C135.157 38.3268 137.351 36.3362 140.03 36.0992L428.877 10.5418C432.234 10.2447 435.178 12.7706 435.394 16.1342L440.717 99.0968C440.886 101.716 439.331 104.141 436.881 105.082L370.513 130.574C367.659 131.671 364.437 130.445 363.033 127.73L353.219 108.757C351.711 105.842 348.142 104.679 345.206 106.147L299.797 128.851C296.177 130.661 291.841 128.442 291.191 124.447L287.078 99.1313C286.503 95.5964 282.98 93.3486 279.532 94.3174L234.962 106.841C230.64 108.056 226.564 104.268 227.459 99.8692L229.691 88.8961C230.548 84.6804 226.821 80.9588 222.607 81.8224L180.629 90.4244C176.116 91.3492 172.287 87.0533 173.724 82.6759L178.417 68.3706C179.691 64.4907 176.8 60.5 172.717 60.5H138.23C134.473 60.5 131.64 57.0867 132.332 53.3943Z" stroke="#E072A4" stroke-width="15"/>
</g>
</svg>
