<svg width="173" height="72" viewBox="0 0 173 72" fill="none" xmlns="http://www.w3.org/2000/svg">
<path d="M8.811 44.0234L14.3511 42.5655C15.6277 42.2296 16.5347 41.0986 16.5854 39.7796L16.9202 31.0752C16.9675 29.8456 17.8209 28.7948 19.0148 28.4963C20.1945 28.2014 21.0436 27.1709 21.1076 25.9565L21.3595 21.1697C21.4396 19.6482 22.6475 18.4283 24.1682 18.3332L27.0913 18.1505C28.4978 18.0626 29.7759 18.9655 30.163 20.3205L30.5 21.5L30.7457 22.1142C31.2013 23.2531 32.3044 24 33.5311 24H33.7769C34.8439 24 35.8306 23.4333 36.3682 22.5116L38.1318 19.4884C38.6694 18.5667 39.6561 18 40.7231 18H47.5L52.6871 17.6758C54.2682 17.577 55.5 16.2658 55.5 14.6816V12.8541C55.5 11.7178 56.142 10.679 57.1584 10.1708L57.5 10L59.2875 8.92752C59.7537 8.64777 60.2872 8.5 60.831 8.5H67L72.3383 8.08936C73.0407 8.03533 73.706 8.41198 74.0211 9.04213C74.3146 9.62918 74.9146 10 75.5709 10H84.9363C85.8386 10 86.6087 10.6524 86.7571 11.5424C86.8991 12.3944 87.613 13.0341 88.4754 13.082L96 13.5H98.1459C99.2822 13.5 100.321 14.142 100.829 15.1584L100.98 15.4594C101.31 16.1199 101.912 16.6031 102.629 16.7822L102.674 16.7935C103.208 16.9271 103.68 17.2406 104.011 17.6812L104.791 18.7214C105.551 19.7348 107.123 19.5464 107.622 18.382C107.856 17.8369 108.364 17.4595 108.954 17.394L111.047 17.1614C111.954 17.0606 112.852 17.4218 113.436 18.1231C114.325 19.1906 115.877 19.4155 117.033 18.6448L117.612 18.2584C117.869 18.0871 118.098 17.8773 118.291 17.6363L119.099 16.6259C119.669 15.9143 120.531 15.5 121.442 15.5H121.742C123.265 15.5 124.5 16.7346 124.5 18.2577C124.5 19.5639 125.416 20.6909 126.695 20.9573L135.181 22.7251C136.014 22.8987 136.722 23.4441 137.103 24.2054L137.258 24.5155C137.701 25.402 138.662 25.9055 139.643 25.7653C140.724 25.6108 141.765 26.2372 142.135 27.2649L145.262 35.9496C145.702 37.1722 146.879 37.9725 148.178 37.9319L161.623 37.5118C161.873 37.504 162.124 37.5275 162.368 37.5817L164.151 37.978C165.523 38.283 166.5 39.5004 166.5 40.9065V41.6492C166.5 42.2 166.313 42.7343 165.969 43.1643L165.648 43.5655C165.008 44.3649 163.849 44.512 163.03 43.8977C162.687 43.6402 162.266 43.5069 161.837 43.5195L146.391 43.9738C145.842 43.9899 145.347 44.3063 145.101 44.7973C144.76 45.4807 144.99 46.3117 145.634 46.7219L149.829 49.3909C149.941 49.4623 150.031 49.5628 150.091 49.6818C150.301 50.1017 150.068 50.608 149.613 50.7219L147.689 51.2028C146.957 51.3857 146.386 51.957 146.203 52.6887C145.86 54.0588 144.264 54.6759 143.089 53.8926L142.5 53.5L141.687 53.012C140.662 52.3975 139.371 52.449 138.399 53.1433L137.282 53.9412C136.774 54.3046 136.164 54.5 135.539 54.5H133.329C133.11 54.5 132.892 54.524 132.679 54.5714L130.087 55.1473C129.097 55.3673 128.285 56.0728 127.929 57.0225L127.442 58.3226C127.159 59.0758 126.586 59.684 125.851 60.0107L124.202 60.7437C123.16 61.2068 121.945 61.0378 121.07 60.3079L120.625 59.9372C119.946 59.3719 119.684 58.4488 119.963 57.6112C120.452 56.1438 119.274 54.6569 117.734 54.7969L110.759 55.431C110.261 55.4763 109.782 55.6453 109.366 55.9226L106.089 58.1072C105.702 58.3655 105.259 58.5301 104.797 58.5878L103.611 58.7362C102.358 58.8927 101.358 59.8533 101.15 61.0981C101.053 61.6847 100.774 62.226 100.353 62.6465L100.201 62.7989C99.4559 63.5441 98.3745 63.8436 97.3521 63.588L96.242 63.3105C95.4486 63.1121 94.7706 62.5985 94.3648 61.8885L93.4507 60.2887C93.1568 59.7744 92.7173 59.3587 92.1876 59.0938L92.0438 59.0219C91.3724 58.6862 90.5996 58.6144 89.8779 58.8206L88.3669 59.2523C87.8015 59.4139 87.296 59.738 86.9133 60.1845L84.7403 62.7196C84.5807 62.9058 84.4445 63.1109 84.3348 63.3303L84.1832 63.6336C83.754 64.4921 82.9399 65.0934 81.9931 65.2511L77.5 66L69.2242 66.4868C69.0749 66.4956 68.9253 66.4932 68.7764 66.4797L64.4012 66.0819C63.846 66.0315 63.3631 65.6807 63.1435 65.1683L62.9616 64.7438C62.5557 63.7966 61.2524 63.6962 60.7062 64.5701C60.1779 65.4154 58.928 65.356 58.4822 64.4645L58.1212 63.7424C58.0409 63.5818 57.9861 63.4096 57.9588 63.2321L57.3914 59.5438C57.1662 58.0803 55.907 57 54.4262 57H27.2906C26.8184 57 26.3993 56.6979 26.25 56.25C26.1007 55.8021 25.6816 55.5 25.2094 55.5H24.8701C24.6267 55.5 24.3867 55.5567 24.169 55.6655L23.5 56L22.4276 56.715C22.1446 56.9036 21.8957 57.139 21.6917 57.4111L21.1563 58.1249C20.7432 58.6758 20.0947 59 19.4062 59H19.3475C18.8049 59 18.2844 58.7844 17.9007 58.4007C17.6385 58.1385 17.4525 57.81 17.3626 57.4502L17.3357 57.343C17.1275 56.5098 17.3716 55.6284 17.9789 55.0211L19.8492 53.1508C19.9496 53.0504 20.0427 52.943 20.1279 52.8294L21.2429 51.3429C21.4134 51.1154 21.6154 50.9134 21.8429 50.7429L23.497 49.5022C24.6569 48.6323 25.0287 47.0574 24.3803 45.7606L24.0348 45.0696C24.0119 45.0238 24 44.9734 24 44.9222C24 44.7077 23.7985 44.5504 23.5904 44.6024L18 46L8.63008 48.5554C7.73548 48.7994 6.81511 48.2604 6.59021 47.3608C6.53081 47.1232 6.52491 46.8754 6.57294 46.6353L6.63274 46.3363C6.85748 45.2126 7.70276 44.3151 8.811 44.0234Z" fill="#142030" stroke="#6358DB" stroke-width="6" stroke-linecap="round"/>
<path d="M8.811 41.0234L14.3511 39.5655C15.6277 39.2296 16.5347 38.0986 16.5854 36.7796L16.9202 28.0752C16.9675 26.8456 17.8209 25.7948 19.0148 25.4963C20.1945 25.2014 21.0436 24.1709 21.1076 22.9565L21.3595 18.1697C21.4396 16.6482 22.6475 15.4283 24.1682 15.3332L27.0913 15.1505C28.4978 15.0626 29.7759 15.9655 30.163 17.3205L30.5 18.5L30.7457 19.1142C31.2013 20.2531 32.3044 21 33.5311 21H33.7769C34.8439 21 35.8306 20.4333 36.3682 19.5116L38.1318 16.4884C38.6694 15.5667 39.6561 15 40.7231 15H47.5L52.6871 14.6758C54.2682 14.577 55.5 13.2658 55.5 11.6816V9.8541C55.5 8.71779 56.142 7.679 57.1584 7.17082L57.5 7L59.2875 5.92752C59.7537 5.64777 60.2872 5.5 60.831 5.5H67L72.3383 5.08936C73.0407 5.03533 73.706 5.41198 74.0211 6.04213C74.3146 6.62918 74.9146 7 75.5709 7H84.9363C85.8386 7 86.6087 7.65235 86.7571 8.54241C86.8991 9.39444 87.613 10.0341 88.4754 10.082L96 10.5H98.1459C99.2822 10.5 100.321 11.142 100.829 12.1584L100.98 12.4594C101.31 13.1199 101.912 13.6031 102.629 13.7822L102.674 13.7935C103.208 13.9271 103.68 14.2406 104.011 14.6812L104.791 15.7214C105.551 16.7348 107.123 16.5464 107.622 15.382C107.856 14.8369 108.364 14.4595 108.954 14.394L111.047 14.1614C111.954 14.0606 112.852 14.4218 113.436 15.1231C114.325 16.1906 115.877 16.4155 117.033 15.6448L117.612 15.2584C117.869 15.0871 118.098 14.8773 118.291 14.6363L119.099 13.6259C119.669 12.9143 120.531 12.5 121.442 12.5H121.742C123.265 12.5 124.5 13.7346 124.5 15.2577C124.5 16.5639 125.416 17.6909 126.695 17.9573L135.181 19.7251C136.014 19.8987 136.722 20.4441 137.103 21.2054L137.258 21.5155C137.701 22.402 138.662 22.9055 139.643 22.7653C140.724 22.6108 141.765 23.2372 142.135 24.2649L145.262 32.9496C145.702 34.1722 146.879 34.9725 148.178 34.9319L161.623 34.5118C161.873 34.504 162.124 34.5275 162.368 34.5817L164.151 34.978C165.523 35.283 166.5 36.5004 166.5 37.9065V38.6492C166.5 39.2 166.313 39.7343 165.969 40.1643L165.648 40.5655C165.008 41.3649 163.849 41.512 163.03 40.8977C162.687 40.6402 162.266 40.5069 161.837 40.5195L146.391 40.9738C145.842 40.9899 145.347 41.3063 145.101 41.7973C144.76 42.4807 144.99 43.3117 145.634 43.7219L149.829 46.3909C149.941 46.4623 150.031 46.5628 150.091 46.6818C150.301 47.1017 150.068 47.608 149.613 47.7219L147.689 48.2028C146.957 48.3857 146.386 48.957 146.203 49.6887C145.86 51.0588 144.264 51.6759 143.089 50.8926L142.5 50.5L141.687 50.012C140.662 49.3975 139.371 49.449 138.399 50.1433L137.282 50.9412C136.774 51.3046 136.164 51.5 135.539 51.5H133.329C133.11 51.5 132.892 51.524 132.679 51.5714L130.087 52.1473C129.097 52.3673 128.285 53.0728 127.929 54.0225L127.442 55.3226C127.159 56.0758 126.586 56.684 125.851 57.0107L124.202 57.7437C123.16 58.2068 121.945 58.0378 121.07 57.3079L120.625 56.9372C119.946 56.3719 119.684 55.4488 119.963 54.6112C120.452 53.1438 119.274 51.6569 117.734 51.7969L110.759 52.431C110.261 52.4763 109.782 52.6453 109.366 52.9226L106.089 55.1072C105.702 55.3655 105.259 55.5301 104.797 55.5878L103.611 55.7362C102.358 55.8927 101.358 56.8533 101.15 58.0981C101.053 58.6847 100.774 59.226 100.353 59.6465L100.201 59.7989C99.4559 60.5441 98.3745 60.8436 97.3521 60.588L96.242 60.3105C95.4486 60.1121 94.7706 59.5985 94.3648 58.8885L93.4507 57.2887C93.1568 56.7744 92.7173 56.3587 92.1876 56.0938L92.0438 56.0219C91.3724 55.6862 90.5996 55.6144 89.8779 55.8206L88.3669 56.2523C87.8015 56.4139 87.296 56.738 86.9133 57.1845L84.7403 59.7196C84.5807 59.9058 84.4445 60.1109 84.3348 60.3303L84.1832 60.6336C83.754 61.4921 82.9399 62.0934 81.9931 62.2511L77.5 63L69.2242 63.4868C69.0749 63.4956 68.9253 63.4932 68.7764 63.4797L64.4012 63.0819C63.846 63.0315 63.3631 62.6807 63.1435 62.1683L62.9616 61.7438C62.5557 60.7966 61.2524 60.6962 60.7062 61.5701C60.1779 62.4154 58.928 62.356 58.4822 61.4645L58.1212 60.7424C58.0409 60.5818 57.9861 60.4096 57.9588 60.2321L57.3914 56.5438C57.1662 55.0803 55.907 54 54.4262 54H27.2906C26.8184 54 26.3993 53.6979 26.25 53.25C26.1007 52.8021 25.6816 52.5 25.2094 52.5H24.8701C24.6267 52.5 24.3867 52.5567 24.169 52.6655L23.5 53L22.4276 53.715C22.1446 53.9036 21.8957 54.139 21.6917 54.4111L21.1563 55.1249C20.7432 55.6758 20.0947 56 19.4062 56H19.3475C18.8049 56 18.2844 55.7844 17.9007 55.4007C17.6385 55.1385 17.4525 54.81 17.3626 54.4502L17.3357 54.343C17.1275 53.5098 17.3716 52.6284 17.9789 52.0211L19.8492 50.1508C19.9496 50.0504 20.0427 49.943 20.1279 49.8294L21.2429 48.3429C21.4134 48.1154 21.6154 47.9134 21.8429 47.7429L23.497 46.5022C24.6569 45.6323 25.0287 44.0574 24.3803 42.7606L24.0348 42.0696C24.0119 42.0238 24 41.9734 24 41.9222C24 41.7077 23.7985 41.5504 23.5904 41.6024L18 43L8.63008 45.5554C7.73548 45.7994 6.81511 45.2604 6.59021 44.3608C6.53081 44.1232 6.52491 43.8754 6.57294 43.6353L6.63274 43.3363C6.85748 42.2126 7.70276 41.3151 8.811 41.0234Z" fill="#142030" stroke="#142030" stroke-width="6" stroke-linecap="round"/>
<mask id="mask0_238_2123" style="mask-type:alpha" maskUnits="userSpaceOnUse" x="36" y="5" width="94" height="35">
<path d="M38.9681 17.8298C42.0519 11.2509 48.5883 6.97919 55.8518 6.79585L112.531 5.3652C120.075 5.17479 125.958 11.8483 124.823 19.3084L124.07 24.2544C123.73 26.4887 124.865 28.6882 126.883 29.7055C131.797 32.183 130.035 39.595 124.531 39.595H51.3384C44.2439 39.595 38.2144 34.4103 37.1516 27.3959C36.7268 24.5916 37.1425 21.7244 38.3463 19.1563L38.9681 17.8298Z" fill="url(#paint0_linear_238_2123)"/>
</mask>
<g mask="url(#mask0_238_2123)">
<path d="M23.5872 23.1941H24.3005V43.339H23.5872V23.1941Z" fill="url(#paint1_linear_238_2123)"/>
<path d="M33.3143 18.5766H35.4543V43.339H33.3143V18.5766Z" fill="url(#paint2_linear_238_2123)"/>
<path d="M35.7137 15.6821H40.707V43.339H35.7137V15.6821Z" fill="url(#paint3_linear_238_2123)"/>
<path d="M40.707 19.3347H45.2463V43.339H40.707V19.3347Z" fill="url(#paint4_linear_238_2123)"/>
<path d="M57.1783 8.64825L57.3404 8.4027L57.0486 8.19222L57.8592 8.01682L59.7722 8.19222L59.4155 8.4027L59.7722 8.75349V43.339H57.1783V8.64825Z" fill="url(#paint5_linear_238_2123)"/>
<path d="M60.7449 5L65.7382 5.72363V43.339H60.7449V5Z" fill="url(#paint6_linear_238_2123)"/>
<path d="M69.24 7.21L69.7587 6.85921H70.4396V6.43825H72.8066V6.85921H73.8766V43.339H69.24V7.21Z" fill="url(#paint7_linear_238_2123)"/>
<path d="M76.6326 10.9958H79.0644L79.3562 11.3143H81.3016L81.2692 43.339H76.6326V10.9958Z" fill="url(#paint8_linear_238_2123)"/>
<path d="M81.3016 7.8256H84.1549L85.9382 8.12206V43.339H81.3016V7.8256Z" fill="url(#paint9_linear_238_2123)"/>
<path d="M85.9382 11.0336H89.44V43.339H85.9382V11.0336Z" fill="url(#paint10_linear_238_2123)"/>
<path d="M91.0936 11.4546H92.8445V43.339H91.0936V11.4546Z" fill="url(#paint11_linear_238_2123)"/>
<path d="M96.4111 11.8405H97.1569V12.086H98.0972V11.2792H100.043V43.339H96.4111V11.8405Z" fill="url(#paint12_linear_238_2123)"/>
<path d="M26.9593 22.0914H28.5156V43.339H26.9593V22.0914Z" fill="url(#paint13_linear_238_2123)"/>
<path d="M24.3005 19.3347H26.4405V24.5581H26.9593V43.339H24.3005V19.3347Z" fill="url(#paint14_linear_238_2123)"/>
<path d="M21.0581 18.9901H23.5872V43.339H21.0581V18.9901Z" fill="url(#paint15_linear_238_2123)"/>
<path d="M18.7236 17.1725H19.4045V16.6113H20.5393L20.7663 16.7516V18.1548L21.0581 18.681V43.339H18.7236V17.1725Z" fill="url(#paint16_linear_238_2123)"/>
<path d="M16 17.9794L17.0376 17.9794V20.3648H17.4591V17.6118H18.2048V43.339H16V17.9794Z" fill="url(#paint17_linear_238_2123)"/>
<path d="M18.2048 17.6118H18.7236V43.339H18.2048V17.6118Z" fill="url(#paint18_linear_238_2123)"/>
<path d="M112.364 25.744H113.92V37.9962H116.478V20.8343H119.36V14.3581H120.137V13.6457H123.796V37.9962H128.459V12.6095H129.916V11.2792H130.79V10.9257H132.248V20.0895H133.122V10.0514H134.093V9.88952H136.846V10.0514H137.493V37.9962H143.16V19.6362H144.164V18.6648H145.265V16.1714H147.726V20.5429H148.794V16.8838H150.057V16.56H152V43.339H113.92H112.364V25.744Z" fill="url(#paint19_linear_238_2123)"/>
<path d="M32.8381 14.0989H33V13.3218H36.5295V14.8761H36.6914L36.7886 41.9467H32.8381V14.0989Z" fill="url(#paint20_linear_238_2123)"/>
<path d="M39.1848 19.3446V17.0456H40.4477V16.7866H41.4839V17.0456H42.2934L42.3905 16.4627L42.9086 16.7866V43.339H38.9581L39.1848 19.3446Z" fill="url(#paint21_linear_238_2123)"/>
<path d="M42.9086 25.7885H44.9162V43.339H42.9086V25.7885Z" fill="url(#paint22_linear_238_2123)"/>
<path d="M44.9162 16.9161L45.24 16.8513V16.2037L45.6286 16.0418L45.7581 16.2361H46.6972L46.7943 16.1389L47.1829 16.1713V16.9485H47.4419V43.339H44.9162V16.9161Z" fill="url(#paint23_linear_238_2123)"/>
<path d="M50.8096 19.6361L51.101 19.377H54.6305V43.339H50.8743L50.8096 19.6361Z" fill="url(#paint24_linear_238_2123)"/>
<path d="M49.1258 21.9999H49.4819V21.7732H50.8743V43.339H49.1258V21.9999Z" fill="url(#paint25_linear_238_2123)"/>
<path d="M54.6305 22.4208H56.3791V43.339H54.6305V22.4208Z" fill="url(#paint26_linear_238_2123)"/>
<path d="M56.3791 18.9885H60.3296V43.339H56.3791V18.9885Z" fill="url(#paint27_linear_238_2123)"/>
<path d="M62.1429 20.1218H62.7581V19.377H65.4458V43.339H62.1429V20.1218Z" fill="url(#paint28_linear_238_2123)"/>
<path d="M65.4458 17.5637H67.0648V43.339H65.4458V17.5637Z" fill="url(#paint29_linear_238_2123)"/>
<path d="M67.0648 15.038H67.3886V14.8761H68.3277V15.038H69.7848V43.339H67.0648V15.038Z" fill="url(#paint30_linear_238_2123)"/>
<path d="M70.1086 14.5523L70.6267 14.1961H74.9658V43.339H70.1086V14.5523Z" fill="url(#paint31_linear_238_2123)"/>
<path d="M74.9658 10.537L75.16 10.5047V9.95417L75.3543 9.92179V9.4037L76.1638 9.14465L77.9448 9.17703V9.72751H78.1391V43.339H74.9658V10.537Z" fill="url(#paint32_linear_238_2123)"/>
<path d="M80.0172 8.8856L80.2762 8.82084V8.36751L80.9239 8.17322H82.8991V8.56179H83.1905L83.2876 43.339H80.0172V8.8856Z" fill="url(#paint33_linear_238_2123)"/>
<path d="M83.2876 13.4514L85.0686 13.4189V43.339H83.2876V13.4514Z" fill="url(#paint34_linear_238_2123)"/>
<path d="M85.4572 14.2608H85.9105V13.2894L86.6229 12.998V11.9294H86.3639V11.4113L86.6229 11.2818L86.8172 10.5694L87.0439 11.2818L87.2705 11.4113V11.9294H87.0439V12.998L87.7562 13.2247V14.2608H88.1124V43.339H85.4572V14.2608Z" fill="url(#paint35_linear_238_2123)"/>
<path d="M88.2419 15.5561H89.5048V15.7504H90.0229V15.5561L90.3143 15.4589H91.6743V15.718H91.9334V16.5275H92.2248V17.6932H92.581V43.339H88.1124L88.2419 29.4476V15.5561Z" fill="url(#paint36_linear_238_2123)"/>
<path d="M92.581 21.7085H93.4229V21.9675H93.941V23.0361H94.9772L95.042 43.339H92.581V21.7085Z" fill="url(#paint37_linear_238_2123)"/>
<path d="M103.979 20.8666H106.311V21.3199H106.796V21.9675H106.991V43.339H103.979V20.8666Z" fill="url(#paint38_linear_238_2123)"/>
<path d="M16 29.2856H16.1619V28.5085H19.6914V30.0627H19.8533V43.339H16V29.2856Z" fill="url(#paint39_linear_238_2123)"/>
<path d="M110.002 29.8685H110.164V16.9809H110.488V16.5275H110.682V16.4305H112.301V16.5275H113.337L113.693 16.8514V18.4381H114.568V18.3086L115.345 18.4381V18.7619H115.928V18.6648H117.255V37.1543H117.741V17.4667H118.032V17.2076H118.842V17.0781H120.947V17.2076H121.53V38.2229H125.933V15.2324H126.192V14.8762H127.196V14.3581L128.945 14.5524V17.2076H129.204V17.0781H130.046V17.2076H130.305V22.4533H132.701V16.5275H133.51V16.2038H135.032V13.6781H135.712V13.4838H138.335V13.6781H138.95V14.3257H139.663V38.2229H152V43.339H110.002V29.8685Z" fill="url(#paint40_linear_238_2123)"/>
<path d="M30.1829 24.9791H33.2267V43.3391H30.1829V24.9791Z" fill="url(#paint41_linear_238_2123)"/>
<path d="M33.2267 23.6191H34.0038V23.0362L36.2705 23.6191V43.3391H33.2267V23.6191Z" fill="url(#paint42_linear_238_2123)"/>
<path d="M41.1276 23.4248L41.9695 23.1981H44.2362V43.3391H41.1924L41.16 29.221L41.1276 23.4248Z" fill="url(#paint43_linear_238_2123)"/>
<path d="M45.7257 17.7257L46.2114 17.5962H48.6076V17.7905H48.7695V43.3391H45.7257V17.7257Z" fill="url(#paint44_linear_238_2123)"/>
<path d="M49.9352 22.1943L50.421 22.0648H53.1086V43.3391H49.9352V22.1943Z" fill="url(#paint45_linear_238_2123)"/>
<path d="M53.1086 22.9714H54.0476V22.5181H55.2781V22.7124H56.2819V43.3391H53.1086V22.9714Z" fill="url(#paint46_linear_238_2123)"/>
<path d="M60.1029 22.9714H61.6248V22.1619H62.3695V21.4495H65.6724V43.3391H60.1029V22.9714Z" fill="url(#paint47_linear_238_2123)"/>
<path d="M67.8743 16.0095H68.9105V16.301H70.5619V15.3295H75.1924V43.3391H67.8743V16.0095Z" fill="url(#paint48_linear_238_2123)"/>
<path d="M75.7752 18.2438H77.88V17.6286H80.4705V18.2438H83.0933V43.3391H75.7752V18.2438Z" fill="url(#paint49_linear_238_2123)"/>
<path d="M83.8705 20.9314H91.901V43.3391H83.8705V20.9314Z" fill="url(#paint50_linear_238_2123)"/>
<path d="M91.901 24.2667H95.9162V43.3391H91.901V24.2667Z" fill="url(#paint51_linear_238_2123)"/>
<path d="M99.4781 16.301H100.126V17.7257H101.259L102.004 15.1676L104.27 15.7829V43.3391H99.4781V16.301Z" fill="url(#paint52_linear_238_2123)"/>
<path d="M110.488 21.2552H110.811V21.3848H111.686V20.9962H111.362V20.1867H111.848V19.3771H113.92V22.7771H116.413V41.0076H119.878V24.2667L122.792 23.5219V21.9352H126.322V41.0076H131.211V18.7295H132.053V18.4705H134.676V41.0076H138.497V24.2667H139.307V24.0076H139.922V23.781H141.363V24.0076H142.804V24.2667H143.484V22.1295H143.808V21.8057H147.013V30.3219H148.535V26.5981H149.798V22.3238H150.51V20.3486H152V43.339H113.92L110.488 43.3391V21.2552Z" fill="url(#paint53_linear_238_2123)"/>
<path d="M106.343 21.0286H106.731V21.9352H107.638V21.4495H108.124V21.2552H110.488V43.3391H106.343V21.0286Z" fill="url(#paint54_linear_238_2123)"/>
<path d="M27.139 26.1448L27.7543 25.8533H30.1829V43.3391H27.139V26.1448Z" fill="url(#paint55_linear_238_2123)"/>
<path d="M16.8095 20.7371H17.3276V20.2191H18.7524V19.7333H19.8533V20.9314L20.2419 21.4819V22.68H20.4038V22.0324H21.2781V22.9714H21.7638V43.3391L16 43.339V23.6191H16.8095V20.7371Z" fill="url(#paint56_linear_238_2123)"/>
<path d="M30.1829 24.9791H33.2267V43.3391H30.1829V24.9791Z" fill="url(#paint57_linear_238_2123)"/>
<path d="M48.2514 22.6476H52.1371V31.9086H56.0229V19.7981H60.9124V28.3467H68.3924V31.3257H73.8V20.3486L74.7714 20.2514V19.6686H76.779V19.28H77.88V18.8914H79.7257V19.4419H80.5676V34.4991H82.1219V20.1219L82.9962 20.0248V19.6362H88.6952V32.7505H94.6533V18.4705H94.7829V17.5962H95.0419V17.3048H95.301V16.4305H95.7867V15.9772H97.7619V15.6533H98.539V15.8153H99.1867V16.1714H100.223V29.901H102.166V21.5791H103.105V20.5105H106.149V20.9314H106.667V21.5791H106.861V24.72H109.581V25.6914H110.811V32.7505H115.669V28.3791H118.097V27.861H120.072V36.3772H124.994V20.6724H126.095V20.1543H127.488V20.381H127.941V20.6724H128.75V25.6914H132.474V25.2057H132.928V24.72H134.223V24.5581H135V24.72H135.955V26.1772H136.91V31.7791H139.89V31.3257H140.343V28.12H140.958V27.6019H144.714V28.3143H145.33V36.3772H147.661V34.0133H152V43.339H16V26.7276H18.6229V28.6381H20.0476V29.901H24.0305V31.9086H30.9924V30.3867H35.1048V19.7981H41.4191V34.0133H48.2514V22.6476Z" fill="#2B1B50"/>
</g>
<path d="M53.375 41.828L53.375 41.828L53.3772 41.8236C53.4592 41.6597 53.55 41.4474 53.55 41.24C53.55 40.8326 53.3192 40.5457 53.1024 40.3629C52.8928 40.186 52.6343 40.0532 52.4395 39.9557C51.9491 39.6933 51.587 39.2194 51.3446 38.4878C51.0989 37.7461 50.99 36.7772 50.99 35.6C50.99 33.1431 51.4853 29.9305 52.0163 26.4866C52.0455 26.2971 52.0748 26.1069 52.1042 25.916L52.11 25.8782V25.84V25.64C52.11 25.3021 52.0093 24.9122 51.6936 24.5964C51.3827 24.2856 50.9243 24.1077 50.3309 24.0617C50.33 24.0616 50.3292 24.0615 50.3284 24.0615L43.4132 23.4619L43.3916 23.46H43.37H43.17C42.7417 23.46 42.3303 23.543 41.9941 23.7774C40.4239 23.1415 38.515 22.74 36.57 22.74C32.4449 22.74 29.4747 24.5499 27.5476 26.9901C25.6329 29.4147 24.75 32.4559 24.75 34.96C24.75 41.7163 30.7758 47.02 37.69 47.02C39.7069 47.02 41.833 46.5682 43.8896 45.5605C44.8917 46.4268 46.0339 47.0138 46.9863 47.39C47.5066 47.5955 47.9766 47.7407 48.3463 47.8351C48.6964 47.9245 49.0008 47.98 49.17 47.98C49.9786 47.98 50.5077 47.3996 50.8919 46.6739L50.8919 46.674L50.895 46.668L53.375 41.828ZM121.112 35.8721C122.257 35.8793 123.228 36.1971 123.983 36.862C124.85 37.6259 125.502 38.9109 125.749 40.9199L126.245 40.8589L125.749 40.9199L125.915 42.2697C126.37 45.9744 128.341 48.1933 130.292 49.4626C131.263 50.0941 132.228 50.4905 133 50.7241C133.386 50.841 133.727 50.9183 134.001 50.9637C134.256 51.0061 134.499 51.0289 134.665 51.0085C135.137 50.9506 135.619 50.7307 136.05 50.2933L136.051 50.2923L136.081 50.2646L136.195 50.1595C136.293 50.069 136.433 49.9396 136.601 49.784C136.938 49.473 137.386 49.0573 137.834 48.639C138.282 48.221 138.731 47.7991 139.068 47.476C139.236 47.315 139.379 47.176 139.481 47.0734C139.531 47.023 139.576 46.9767 139.609 46.939C139.624 46.9224 139.644 46.9002 139.662 46.8763C139.98 46.5627 140.137 46.1753 140.087 45.7687C140.042 45.4027 139.84 45.1124 139.655 44.9122C139.47 44.7125 139.261 44.56 139.111 44.4627C137.453 43.261 136.765 41.6882 136.503 39.5591L136.343 38.2489C135.859 34.3137 133.868 31.2447 130.942 29.2961C128.024 27.3522 124.205 26.5409 120.076 27.0478C118.629 27.2255 117.167 27.5661 115.651 28.072L111.239 28.3754L111.226 28.3763L111.212 28.378L111.133 28.3877C110.44 28.4728 109.977 29.1331 109.998 29.7913L109.998 29.801L109.999 29.8106L111.461 50.5872L111.462 50.6002L111.464 50.613C111.553 51.3392 112.132 51.8569 112.881 51.8277L112.889 51.8273L112.898 51.8267L120.887 51.2488L120.899 51.2479L120.912 51.2464L120.991 51.2366C121.657 51.1548 122.163 50.513 122.09 49.8472L121.112 35.8721ZM72.0499 27.9441L72.0597 27.9523L72.07 27.96C72.2869 28.1227 72.5898 28.26 72.89 28.26C73.6388 28.26 74.2289 27.6685 74.4401 27.0507L76.3101 22.2365C76.3599 22.1255 76.3758 22.0173 76.3825 21.9497C76.39 21.8745 76.39 21.8033 76.39 21.7648V21.76C76.39 21.5028 76.2887 21.2696 76.1595 21.0764C76.0285 20.8805 75.8486 20.6948 75.6394 20.5216C75.2207 20.1752 74.6349 19.8385 73.9274 19.5435C72.5086 18.9519 70.5329 18.5 68.25 18.5C64.8671 18.5 61.311 19.4315 58.5884 21.545C55.8485 23.672 53.99 26.9692 53.99 31.6C53.99 38.9708 60.1519 43.78 67.01 43.78C70.7382 43.78 74.7015 42.3707 78.0345 39.2024L78.0346 39.2025L78.0436 39.1936C78.5883 38.6488 78.87 38.0886 78.87 37.44C78.87 37.0692 78.7655 36.7139 78.6185 36.419C78.2347 35.6276 77.8953 35.027 77.5355 34.3903C77.2963 33.9671 77.0482 33.5279 76.7719 33.0061L76.7671 32.997L76.7619 32.9881C76.4196 32.4012 75.9561 32.1 75.45 32.1C74.9229 32.1 74.447 32.3796 74.1448 32.6781C72.3004 34.3662 70.4192 35.06 68.85 35.06C67.664 35.06 66.6631 34.66 65.9618 33.9848C65.2626 33.3117 64.83 32.3356 64.83 31.12C64.83 29.1001 65.6208 28.1198 66.4588 27.6128C67.3392 27.0802 68.3557 27.02 68.85 27.02C70.1751 27.02 71.4475 27.4421 72.0499 27.9441ZM40.51 35.28C40.51 36.3924 40.5733 37.4094 40.6717 38.3581C39.9394 38.6305 39.2489 38.74 38.65 38.74C36.3545 38.74 34.99 37.073 34.99 35.08C34.99 34.1644 35.307 33.1529 35.9014 32.3797C36.4881 31.6166 37.3303 31.1 38.41 31.1C39.3641 31.1 40.2094 31.5336 40.6201 32.0952C40.5468 33.2374 40.51 34.2761 40.51 35.28ZM93.37 49.82C96.3231 49.82 99.8295 48.6918 102.604 46.5616C105.389 44.424 107.47 41.2483 107.47 37.16C107.47 34.4488 106.482 31.3005 104.343 28.8232C102.193 26.3326 98.8945 24.54 94.33 24.54C90.7128 24.54 87.2894 25.6395 84.7623 27.8324C82.2258 30.0335 80.63 33.3047 80.63 37.56C80.63 44.9158 86.6152 49.82 93.37 49.82ZM97.95 37.08C97.95 38.1344 97.6529 39.1687 97.0608 39.9274C96.4808 40.6706 95.5964 41.18 94.33 41.18C92.3145 41.18 90.39 39.5524 90.39 37.08C90.39 36.2539 90.613 35.2028 91.1985 34.3733C91.7666 33.5686 92.6955 32.94 94.21 32.94C95.1476 32.94 95.8266 33.1618 96.3248 33.4796C96.8249 33.7987 97.1727 34.2338 97.4157 34.7044C97.9097 35.6609 97.95 36.7227 97.95 37.08Z" fill="#FF5B8D" stroke="#142030"/>
<mask id="mask1_238_2123" style="mask-type:alpha" maskUnits="userSpaceOnUse" x="25" y="19" width="115" height="33">
<path d="M52.93 41.6L50.45 46.44C50.09 47.12 49.69 47.48 49.17 47.48C48.77 47.48 45.97 46.84 43.97 44.96C41.89 46.04 39.73 46.52 37.69 46.52C31.01 46.52 25.25 41.4 25.25 34.96C25.25 30.16 28.65 23.24 36.57 23.24C38.57 23.24 40.53 23.68 42.09 24.36C42.33 24.08 42.69 23.96 43.17 23.96H43.37L50.29 24.56C51.33 24.64 51.61 25.16 51.61 25.64V25.84C51.05 29.48 50.49 32.96 50.49 35.6C50.49 38 50.93 39.72 52.21 40.4C52.61 40.6 53.05 40.84 53.05 41.24C53.05 41.32 53.01 41.44 52.93 41.6ZM41.21 38.68C41.09 37.64 41.01 36.52 41.01 35.28C41.01 34.24 41.05 33.16 41.13 31.96C40.65 31.16 39.57 30.6 38.41 30.6C35.89 30.6 34.49 33.04 34.49 35.08C34.49 37.32 36.05 39.24 38.65 39.24C39.41 39.24 40.29 39.08 41.21 38.68Z" fill="#FF5B8D"/>
<path d="M135.846 38.3099L136.007 39.62C136.28 41.8433 137.016 43.5665 138.829 44.8753C139.091 45.0446 139.537 45.3929 139.591 45.8296C139.62 46.0678 139.53 46.3206 139.277 46.5533C139.286 46.6327 135.702 49.9341 135.702 49.9341C135.344 50.3005 134.961 50.4683 134.604 50.5122C133.89 50.5999 127.279 49.2757 126.411 42.2088L126.245 40.8589C125.734 36.6902 123.494 35.192 120.577 35.389L121.592 49.8934C121.64 50.2904 121.327 50.6916 120.93 50.7404L120.851 50.7501L112.862 51.328C112.38 51.3468 112.019 51.0285 111.96 50.5521L110.497 29.7755C110.483 29.3339 110.797 28.9327 111.194 28.884L111.273 28.8742L115.749 28.5665C117.258 28.0587 118.708 27.7196 120.137 27.5441C128.197 26.5545 134.915 30.7268 135.846 38.3099Z" fill="#FF5B8D"/>
<path d="M106.97 37.16C106.97 44.96 99.05 49.32 93.37 49.32C86.85 49.32 81.13 44.6 81.13 37.56C81.13 29.32 87.29 25.04 94.33 25.04C103.17 25.04 106.97 31.96 106.97 37.16ZM94.33 41.68C97.17 41.68 98.45 39.36 98.45 37.08C98.45 36.32 98.29 32.44 94.21 32.44C90.85 32.44 89.89 35.28 89.89 37.08C89.89 39.84 92.05 41.68 94.33 41.68Z" fill="#FF5B8D"/>
<path d="M75.85 22.04L73.97 26.88C73.81 27.36 73.37 27.76 72.89 27.76C72.73 27.76 72.53 27.68 72.37 27.56C71.65 26.96 70.25 26.52 68.85 26.52C67.81 26.52 64.33 26.76 64.33 31.12C64.33 33.8 66.25 35.56 68.85 35.56C70.57 35.56 72.57 34.8 74.49 33.04C74.73 32.8 75.09 32.6 75.45 32.6C75.73 32.6 76.05 32.76 76.33 33.24C77.05 34.6 77.53 35.32 78.17 36.64C78.29 36.88 78.37 37.16 78.37 37.44C78.37 37.92 78.17 38.36 77.69 38.84C74.45 41.92 70.61 43.28 67.01 43.28C60.37 43.28 54.49 38.64 54.49 31.6C54.49 22.64 61.65 19 68.25 19C72.69 19 75.89 20.76 75.89 21.76C75.89 21.84 75.89 21.96 75.85 22.04Z" fill="#FF5B8D"/>
</mask>
<g mask="url(#mask1_238_2123)">
</g>
<path d="M8 44.3479C13.4498 42.5847 19.054 41.6332 24.6944 40.6812C36.6006 38.6717 48.4698 36.1476 60.4167 34.4173C67.4521 33.3984 75.056 32.4754 82.1667 33.3479C84.4778 33.6315 82.4705 37.0987 81.7222 38.1118C78.9003 41.9322 74.1667 43.9325 70.8611 47.2784C70.3488 47.797 69.5455 48.7111 70.0278 49.5423C70.2318 49.8939 71.085 50.4748 71.4444 50.4868C74.6276 50.5929 82.1885 48.9783 83.8611 48.6534C98.2043 45.8679 112.441 42.46 126.917 40.3896C137.361 38.8957 148.025 38.486 158.569 38.4173C159.523 38.4111 164.039 37.7532 164.5 39.5979" stroke="#FFF200" stroke-width="2" stroke-linecap="round"/>
<path d="M8 42.3479C13.4498 40.5847 19.054 39.6332 24.6944 38.6812C36.6006 36.6717 48.4698 34.1476 60.4167 32.4173C67.4521 31.3984 75.056 30.4754 82.1667 31.3479C84.4778 31.6315 82.4705 35.0987 81.7222 36.1118C78.9003 39.9322 74.1667 41.9325 70.8611 45.2784C70.3488 45.797 69.5455 46.7111 70.0278 47.5423C70.2318 47.8939 71.085 48.4748 71.4444 48.4868C74.6276 48.5929 82.1885 46.9783 83.8611 46.6534C98.2043 43.8679 112.441 40.46 126.917 38.3896C137.361 36.8957 148.025 36.486 158.569 36.4173C159.523 36.4111 164.039 35.7532 164.5 37.5979" stroke="#00AEEF" stroke-width="2" stroke-linecap="round"/>
<path d="M8 43.3479C13.4498 41.5847 19.054 40.6332 24.6944 39.6812C36.6006 37.6717 48.4698 35.1476 60.4167 33.4173C67.4521 32.3984 75.056 31.4754 82.1667 32.3479C84.4778 32.6315 82.4705 36.0987 81.7222 37.1118C78.9003 40.9322 74.1667 42.9325 70.8611 46.2784C70.3488 46.797 69.5455 47.7111 70.0278 48.5423C70.2318 48.8939 71.085 49.4748 71.4444 49.4868C74.6276 49.5929 82.1885 47.9783 83.8611 47.6534C98.2043 44.8679 112.441 41.46 126.917 39.3896C137.361 37.8957 148.025 37.486 158.569 37.4173C159.523 37.4111 164.039 36.7532 164.5 38.5979" stroke="#EC008C" stroke-width="2" stroke-linecap="round"/>
<path d="M75.85 22.04L73.97 26.88C73.81 27.36 73.37 27.76 72.89 27.76C72.73 27.76 72.53 27.68 72.37 27.56C71.65 26.96 70.25 26.52 68.85 26.52C67.81 26.52 64.33 26.76 64.33 31.12C64.33 33.8 66.25 35.56 68.85 35.56C70.57 35.56 56.33 37.32 58.25 35.56C58.49 35.32 58.89 33.06 59.25 33.06C59.53 33.06 60.25 36.44 60.25 34.12C60.97 35.48 62.17 35.2 62.17 35.2C62.29 35.44 59.89 37.56 59.89 37.56C59.89 38.04 63.23 37.52 62.75 38C59.51 41.08 70.61 43.28 67.01 43.28C60.37 43.28 54.49 38.64 54.49 31.6C54.49 22.64 61.65 19 68.25 19C72.69 19 75.89 20.76 75.89 21.76C75.89 21.84 75.89 21.96 75.85 22.04Z" fill="#FF5B8D"/>
<path d="M52.93 41.6L50.45 46.44C50.09 47.12 49.69 47.48 49.17 47.48C48.77 47.48 45.97 46.84 43.97 44.96L28.25 42V41.5L41.21 38.68C41.21 38.68 41.07 35.7525 41.07 29.3125C41.07 29.3125 28.65 23.24 36.57 23.24C38.57 23.24 40.53 23.68 42.09 24.36C42.33 24.08 42.69 23.96 43.17 23.96H43.37L50.29 24.56C51.33 24.64 51.61 25.16 51.61 25.64V25.84C51.05 29.48 50.49 32.96 50.49 35.6C50.49 38 50.93 39.72 52.21 40.4C52.61 40.6 53.05 40.84 53.05 41.24C53.05 41.32 53.01 41.44 52.93 41.6Z" fill="#FF5B8D"/>
<path d="M126.25 32.5197L126.411 33.8299C126.684 36.0532 128.437 31.9346 130.25 33.2434C130.513 33.4127 133.429 32.083 133.482 32.5197C133.482 32.5197 133.422 33.0108 133.168 33.2434C133.178 33.3228 129.594 36.6242 129.594 36.6242C129.236 36.9906 128.853 37.1585 128.496 37.2023C127.781 37.2901 121.171 35.9658 120.303 28.8989L126.25 31C126.25 31 123.494 35.1919 120.577 35.389L121.592 49.8934C121.64 50.2904 121.327 50.6916 120.93 50.7403L120.851 50.7501L112.861 51.328C112.38 51.3468 112.019 51.0285 111.96 50.5521L110.497 29.7755C110.483 29.3339 110.797 28.9327 111.194 28.8839L111.273 28.8742L115.749 28.5664C117.258 28.0587 123.821 31.741 125.25 31.5655L126.25 32.5197Z" fill="#FF5B8D"/>
<mask id="mask2_238_2123" style="mask-type:alpha" maskUnits="userSpaceOnUse" x="25" y="19" width="115" height="33">
<path d="M52.93 41.6L50.45 46.44C50.09 47.12 49.69 47.48 49.17 47.48C48.77 47.48 45.97 46.84 43.97 44.96C41.89 46.04 39.73 46.52 37.69 46.52C31.01 46.52 25.25 41.4 25.25 34.96C25.25 30.16 28.65 23.24 36.57 23.24C38.57 23.24 40.53 23.68 42.09 24.36C42.33 24.08 42.69 23.96 43.17 23.96H43.37L50.29 24.56C51.33 24.64 51.61 25.16 51.61 25.64V25.84C51.05 29.48 50.49 32.96 50.49 35.6C50.49 38 50.93 39.72 52.21 40.4C52.61 40.6 53.05 40.84 53.05 41.24C53.05 41.32 53.01 41.44 52.93 41.6ZM41.21 38.68C41.09 37.64 41.01 36.52 41.01 35.28C41.01 34.24 41.05 33.16 41.13 31.96C40.65 31.16 39.57 30.6 38.41 30.6C35.89 30.6 34.49 33.04 34.49 35.08C34.49 37.32 36.05 39.24 38.65 39.24C39.41 39.24 40.29 39.08 41.21 38.68Z" fill="#FF5B8D"/>
<path d="M135.846 38.3099L136.007 39.62C136.28 41.8433 137.016 43.5665 138.829 44.8753C139.091 45.0446 139.537 45.3929 139.591 45.8296C139.62 46.0678 139.53 46.3206 139.277 46.5533C139.286 46.6327 135.702 49.9341 135.702 49.9341C135.344 50.3005 134.961 50.4683 134.604 50.5122C133.89 50.5999 127.279 49.2757 126.411 42.2088L126.245 40.8589C125.734 36.6902 123.494 35.192 120.577 35.389L121.592 49.8934C121.64 50.2904 121.327 50.6916 120.93 50.7404L120.851 50.7501L112.862 51.328C112.38 51.3468 112.019 51.0285 111.96 50.5521L110.497 29.7755C110.483 29.3339 110.797 28.9327 111.194 28.884L111.273 28.8742L115.749 28.5665C117.258 28.0587 118.708 27.7196 120.137 27.5441C128.197 26.5545 134.915 30.7268 135.846 38.3099Z" fill="#FF5B8D"/>
<path d="M106.97 37.16C106.97 44.96 99.05 49.32 93.37 49.32C86.85 49.32 81.13 44.6 81.13 37.56C81.13 29.32 87.29 25.04 94.33 25.04C103.17 25.04 106.97 31.96 106.97 37.16ZM94.33 41.68C97.17 41.68 98.45 39.36 98.45 37.08C98.45 36.32 98.29 32.44 94.21 32.44C90.85 32.44 89.89 35.28 89.89 37.08C89.89 39.84 92.05 41.68 94.33 41.68Z" fill="#FF5B8D"/>
<path d="M75.85 22.04L73.97 26.88C73.81 27.36 73.37 27.76 72.89 27.76C72.73 27.76 72.53 27.68 72.37 27.56C71.65 26.96 70.25 26.52 68.85 26.52C67.81 26.52 64.33 26.76 64.33 31.12C64.33 33.8 66.25 35.56 68.85 35.56C70.57 35.56 72.57 34.8 74.49 33.04C74.73 32.8 75.09 32.6 75.45 32.6C75.73 32.6 76.05 32.76 76.33 33.24C77.05 34.6 77.53 35.32 78.17 36.64C78.29 36.88 78.37 37.16 78.37 37.44C78.37 37.92 78.17 38.36 77.69 38.84C74.45 41.92 70.61 43.28 67.01 43.28C60.37 43.28 54.49 38.64 54.49 31.6C54.49 22.64 61.65 19 68.25 19C72.69 19 75.89 20.76 75.89 21.76C75.89 21.84 75.89 21.96 75.85 22.04Z" fill="#FF5B8D"/>
</mask>
<g mask="url(#mask2_238_2123)">
<path d="M61 25.5L64.5 28L61 30.5L59 38.5L57 30.5L53 28L57 25.5L59 19L61 25.5Z" fill="#FF84B0"/>
<path d="M40 46.5L43.5 49L40 51.5L38 59.5L36 51.5L32 49L36 46.5L38 40L40 46.5Z" fill="#FF84B0"/>
<path d="M33 22.5L36.5 25L33 27.5L31 35.5L29 27.5L25 25L29 22.5L31 16L33 22.5Z" fill="#FF84B0"/>
<path d="M104 26.5L107.5 29L104 31.5L102 39.5L100 31.5L96 29L100 26.5L102 20L104 26.5Z" fill="#FF84B0"/>
<path d="M117 30.5L120.5 33L117 35.5L115 43.5L113 35.5L109 33L113 30.5L115 24L117 30.5Z" fill="#FF84B0"/>
<path d="M137 47.5L140.5 50L137 52.5L135 60.5L133 52.5L129 50L133 47.5L135 41L137 47.5Z" fill="#FF84B0"/>
</g>
<path d="M82.4783 20.8261L84 21.913L82.4783 23L81.6087 26.4783L80.7391 23L79 21.913L80.7391 20.8261L81.6087 18L82.4783 20.8261Z" fill="#FF84B0"/>
<path d="M86.087 18.6957L87 19.3478L86.087 20L85.5652 22.087L85.0435 20L84 19.3478L85.0435 18.6957L85.5652 17L86.087 18.6957Z" fill="#FF84B0"/>
<path d="M123.087 54.6957L124 55.3478L123.087 56L122.565 58.087L122.043 56L121 55.3478L122.043 54.6957L122.565 53L123.087 54.6957Z" fill="#FF84B0"/>
<path d="M126.087 52.6957L127 53.3478L126.087 54L125.565 56.087L125.043 54L124 53.3478L125.043 52.6957L125.565 51L126.087 52.6957Z" fill="#FF84B0"/>
<path d="M50.087 17.6957L51 18.3478L50.087 19L49.5652 21.087L49.0435 19L48 18.3478L49.0435 17.6957L49.5652 16L50.087 17.6957Z" fill="#FF84B0"/>
<path d="M53.087 19.6957L54 20.3478L53.087 21L52.5652 23.087L52.0435 21L51 20.3478L52.0435 19.6957L52.5652 18L53.087 19.6957Z" fill="#FF84B0"/>
<path d="M55.087 16.6957L56 17.3478L55.087 18L54.5652 20.087L54.0435 18L53 17.3478L54.0435 16.6957L54.5652 15L55.087 16.6957Z" fill="#FF84B0"/>
<path d="M61.087 46.6957L62 47.3478L61.087 48L60.5652 50.087L60.0435 48L59 47.3478L60.0435 46.6957L60.5652 45L61.087 46.6957Z" fill="#FF84B0"/>
<path d="M27.087 43.6957L28 44.3478L27.087 45L26.5652 47.087L26.0435 45L25 44.3478L26.0435 43.6957L26.5652 42L27.087 43.6957Z" fill="#FF84B0"/>
<path d="M65.087 48.6957L66 49.3478L65.087 50L64.5652 52.087L64.0435 50L63 49.3478L64.0435 48.6957L64.5652 47L65.087 48.6957Z" fill="#FF84B0"/>
<path d="M60.087 59.6957L61 60.3478L60.087 61L59.5652 63.087L59.0435 61L58 60.3478L59.0435 59.6957L59.5652 58L60.087 59.6957Z" fill="#FF84B0"/>
<path d="M57.087 44.6957L58 45.3478L57.087 46L56.5652 48.087L56.0435 46L55 45.3478L56.0435 44.6957L56.5652 43L57.087 44.6957Z" fill="#FF84B0"/>
<path d="M140.062 27.0797L139.767 28.598M139.472 30.1163L139.475 30.117M139.799 25.0038L135.572 29.7522C135.484 29.8543 135.424 29.9777 135.398 30.1102C135.372 30.2426 135.381 30.3796 135.423 30.5074C135.466 30.6352 135.541 30.7494 135.641 30.8386C135.741 30.9278 135.862 30.9889 135.993 31.0159L142.36 32.2534C142.491 32.2774 142.627 32.2663 142.753 32.221C142.879 32.1758 142.992 32.098 143.079 31.9955C143.166 31.893 143.226 31.7693 143.251 31.6366C143.276 31.504 143.267 31.3671 143.224 31.2396L141.084 25.2536C141.038 25.129 140.962 25.0184 140.862 24.9326C140.762 24.8467 140.641 24.7883 140.512 24.7632C140.383 24.7381 140.249 24.7471 140.124 24.7892C139.999 24.8313 139.887 24.9052 139.799 25.0038Z" stroke="#86A3B3" stroke-linecap="round" stroke-linejoin="round"/>
<g clip-path="url(#clip0_238_2123)">
<path d="M25.2083 17.1667H23.1666C23.0119 17.1667 22.8636 17.2281 22.7542 17.3375C22.6448 17.4469 22.5833 17.5953 22.5833 17.75V21.8333C22.5833 21.988 22.6448 22.1364 22.7542 22.2458C22.8636 22.3552 23.0119 22.4167 23.1666 22.4167H27.25C27.4047 22.4167 27.5531 22.3552 27.6625 22.2458C27.7719 22.1364 27.8333 21.988 27.8333 21.8333V19.7917M27.3958 16.7292C27.5118 16.6131 27.6692 16.5479 27.8333 16.5479C27.9974 16.5479 28.1548 16.6131 28.2708 16.7292C28.3868 16.8452 28.452 17.0026 28.452 17.1667C28.452 17.3308 28.3868 17.4881 28.2708 17.6042L25.5 20.375L24.3333 20.6667L24.625 19.5L27.3958 16.7292Z" stroke="#86A3B3" stroke-linecap="round" stroke-linejoin="round"/>
</g>
<g clip-path="url(#clip1_238_2123)">
<path d="M20 26.6667H18.8334C18.5239 26.6667 18.2272 26.7896 18.0084 27.0084C17.7896 27.2272 17.6667 27.5239 17.6667 27.8333C17.6667 28.1427 17.7896 28.4395 18.0084 28.6583C18.2272 28.8771 18.5239 29 18.8334 29M20 26.6667V29M20 26.6667H21.1667C21.3199 26.6667 21.4716 26.6968 21.6132 26.7555C21.7547 26.8141 21.8833 26.9 21.9916 27.0084C22.1 27.1167 22.1859 27.2453 22.2445 27.3869C22.3032 27.5284 22.3334 27.6801 22.3334 27.8333C22.3334 27.9865 22.3032 28.1382 22.2445 28.2798C22.1859 28.4213 22.1 28.5499 21.9916 28.6583C21.8833 28.7666 21.7547 28.8526 21.6132 28.9112C21.4716 28.9698 21.3199 29 21.1667 29M20 29H18.8334M20 29H21.1667M20 29V31.3333M18.8334 29C18.5239 29 18.2272 29.1229 18.0084 29.3417C17.7896 29.5605 17.6667 29.8572 17.6667 30.1667C17.6667 30.4761 17.7896 30.7728 18.0084 30.9916C18.2272 31.2104 18.5239 31.3333 18.8334 31.3333M21.1667 29C21.0135 29 20.8618 29.0302 20.7202 29.0888C20.5787 29.1474 20.4501 29.2334 20.3417 29.3417C20.2334 29.45 20.1475 29.5786 20.0888 29.7202C20.0302 29.8617 20 30.0134 20 30.1667C20 30.3199 20.0302 30.4716 20.0888 30.6131C20.1475 30.7547 20.2334 30.8833 20.3417 30.9916C20.4501 31.0999 20.5787 31.1859 20.7202 31.2445C20.8618 31.3031 21.0135 31.3333 21.1667 31.3333C21.3199 31.3333 21.4716 31.3031 21.6132 31.2445C21.7547 31.1859 21.8833 31.0999 21.9916 30.9916C22.1 30.8833 22.1859 30.7547 22.2445 30.6131C22.3032 30.4716 22.3334 30.3199 22.3334 30.1667C22.3334 30.0134 22.3032 29.8617 22.2445 29.7202C22.1859 29.5786 22.1 29.45 21.9916 29.3417C21.8833 29.2334 21.7547 29.1474 21.6132 29.0888C21.4716 29.0302 21.3199 29 21.1667 29ZM18.8334 31.3333C18.5239 31.3333 18.2272 31.4562 18.0084 31.675C17.7896 31.8938 17.6667 32.1906 17.6667 32.5C17.6667 32.8094 17.7896 33.1062 18.0084 33.3249C18.2272 33.5437 18.5239 33.6667 18.8334 33.6667C19.1428 33.6667 19.4395 33.5437 19.6583 33.3249C19.8771 33.1062 20 32.8094 20 32.5V31.3333M18.8334 31.3333H20" stroke="#86A3B3" stroke-linecap="round" stroke-linejoin="round"/>
</g>
<g clip-path="url(#clip2_238_2123)">
<path d="M112.583 26.3333L107.75 25.1667L107.25 22.6667L108.917 21L111.417 21.5L112.583 26.3333ZM112.583 26.3333L110.055 23.8047M109.25 20.6667L106.917 23L105.917 22L108.25 19.6667L109.25 20.6667ZM108.917 23.3333C108.917 22.9652 109.215 22.6667 109.583 22.6667C109.952 22.6667 110.25 22.9652 110.25 23.3333C110.25 23.7015 109.952 24 109.583 24C109.215 24 108.917 23.7015 108.917 23.3333Z" stroke="#86A3B3" stroke-width="0.7" stroke-linecap="round" stroke-linejoin="round"/>
</g>
<path d="M105.333 54.3333L108.333 52L105.333 49.6667V54.3333Z" stroke="#86A3B3" stroke-linecap="round" stroke-linejoin="round"/>
<path d="M101.667 54.3333L104.667 52L101.667 49.6667V54.3333Z" stroke="#86A3B3" stroke-linecap="round" stroke-linejoin="round"/>
<g clip-path="url(#clip3_238_2123)">
<path d="M134.854 26.0926C134.793 26.2587 134.669 26.3941 134.509 26.4688C134.349 26.5435 134.166 26.5515 133.999 26.491L130.241 25.123L128.532 25.9199L130.356 20.9082C130.416 20.742 130.54 20.6067 130.701 20.532C130.861 20.4573 131.044 20.4492 131.21 20.5097L135.595 22.1058C135.762 22.1663 135.897 22.2903 135.972 22.4505C136.046 22.6108 136.054 22.7941 135.994 22.9603L134.854 26.0926Z" stroke="#86A3B3" stroke-linecap="round" stroke-linejoin="round"/>
</g>
<g clip-path="url(#clip4_238_2123)">
<path d="M148.25 46.6667L141.917 43.6667L144.917 50L145.583 47.3333L148.25 46.6667Z" stroke="#86A3B3" stroke-linecap="round" stroke-linejoin="round"/>
</g>
<g clip-path="url(#clip5_238_2123)">
<path d="M100.25 57.2633C100.198 57.8307 99.9846 58.3715 99.6361 58.8223C99.2876 59.2731 98.8179 59.6153 98.2819 59.8088C97.746 60.0024 97.166 60.0394 96.6099 59.9154C96.0537 59.7914 95.5444 59.5115 95.1414 59.1086C94.7385 58.7057 94.4587 58.1963 94.3347 57.6402C94.2107 57.084 94.2476 56.504 94.4412 55.9681C94.6348 55.4322 94.977 54.9625 95.4278 54.6139C95.8786 54.2654 96.4193 54.0524 96.9867 54C96.6545 54.4494 96.4946 55.0031 96.5362 55.5605C96.5778 56.1178 96.818 56.6417 97.2132 57.0369C97.6083 57.432 98.1322 57.6723 98.6896 57.7138C99.2469 57.7554 99.8006 57.5955 100.25 57.2633Z" stroke="#86A3B3" stroke-linecap="round" stroke-linejoin="round"/>
</g>
<g opacity="0.7">
<path d="M60.4445 54.6839C65.3049 54.8845 75.9794 55.1035 79.7951 54.3744" stroke="#FF5B8D" stroke-width="2" stroke-linecap="round"/>
<path d="M82.8677 54.0323C84.5639 53.8703 88.2851 53.4413 89.5996 53.0207" stroke="#86A3B3" stroke-width="2" stroke-linecap="round"/>
<path d="M65.7791 58.0142C70.7904 58.4888 78.7041 57.9655 85.0967 56.75" stroke="#6190F7" stroke-width="2" stroke-linecap="round"/>
<path d="M65.654 61.198C69.5056 61.7964 75.6127 61.4674 80.5613 60.4082" stroke="#FF5B8D" stroke-width="2" stroke-linecap="round"/>
</g>
<path d="M29.0046 53.1826L28.7354 53.708C28.6963 53.7818 28.6529 53.8209 28.5965 53.8209C28.553 53.8209 28.2491 53.7514 28.032 53.5473C27.8062 53.6646 27.5718 53.7167 27.3503 53.7167C26.6252 53.7167 26 53.1609 26 52.4619C26 51.9408 26.3691 51.1897 27.2288 51.1897C27.4459 51.1897 27.6586 51.2374 27.8279 51.3113C27.854 51.2809 27.8931 51.2678 27.9452 51.2678H27.9669L28.718 51.333C28.8309 51.3417 28.8613 51.3981 28.8613 51.4502V51.4719C28.8005 51.867 28.7397 52.2448 28.7397 52.5313C28.7397 52.7918 28.7875 52.9786 28.9264 53.0524C28.9699 53.0741 29.0176 53.1001 29.0176 53.1435C29.0176 53.1522 29.0133 53.1653 29.0046 53.1826ZM27.7324 52.8657C27.7194 52.7528 27.7107 52.6312 27.7107 52.4966C27.7107 52.3837 27.7151 52.2665 27.7237 52.1362C27.6716 52.0494 27.5544 51.9886 27.4285 51.9886C27.1549 51.9886 27.003 52.2535 27.003 52.4749C27.003 52.718 27.1723 52.9264 27.4545 52.9264C27.537 52.9264 27.6326 52.9091 27.7324 52.8657Z" fill="#86A3B3"/>
<path d="M31.5841 51.4936L31.38 52.019C31.3627 52.0711 31.3149 52.1145 31.2628 52.1145C31.2454 52.1145 31.2237 52.1058 31.2064 52.0928C31.1282 52.0277 30.9762 51.9799 30.8243 51.9799C30.7114 51.9799 30.3336 52.006 30.3336 52.4792C30.3336 52.7701 30.542 52.9612 30.8243 52.9612C31.011 52.9612 31.2281 52.8787 31.4365 52.6876C31.4625 52.6616 31.5016 52.6399 31.5407 52.6399C31.5711 52.6399 31.6058 52.6573 31.6362 52.7094C31.7144 52.857 31.7665 52.9351 31.8359 53.0784C31.849 53.1045 31.8576 53.1349 31.8576 53.1653C31.8576 53.2174 31.8359 53.2651 31.7838 53.3172C31.4321 53.6515 31.0153 53.7992 30.6245 53.7992C29.9038 53.7992 29.2655 53.2955 29.2655 52.5313C29.2655 51.5587 30.0427 51.1636 30.7591 51.1636C31.2411 51.1636 31.5884 51.3547 31.5884 51.4632C31.5884 51.4719 31.5884 51.4849 31.5841 51.4936Z" fill="#86A3B3"/>
<path d="M34.8298 52.4836C34.8298 53.3302 33.9701 53.8035 33.3536 53.8035C32.6458 53.8035 32.0249 53.2912 32.0249 52.527C32.0249 51.6326 32.6936 51.168 33.4578 51.168C34.4173 51.168 34.8298 51.9191 34.8298 52.4836ZM33.4578 52.9742C33.7661 52.9742 33.905 52.7224 33.905 52.4749C33.905 52.3924 33.8876 51.9712 33.4448 51.9712C33.08 51.9712 32.9758 52.2795 32.9758 52.4749C32.9758 52.7745 33.2103 52.9742 33.4578 52.9742Z" fill="#86A3B3"/>
<path d="M37.9869 52.553V52.6963C37.9869 52.9395 38.0434 53.1349 38.2214 53.2999C38.2475 53.3216 38.2909 53.365 38.2909 53.4127C38.2909 53.4388 38.2778 53.4648 38.2474 53.4866C38.2474 53.4952 37.8176 53.8035 37.8176 53.8035C37.7742 53.8382 37.7308 53.8513 37.6917 53.8513C37.6135 53.8513 36.9188 53.6212 36.9188 52.8483V52.7007C36.9188 52.2448 36.6974 52.0537 36.3804 52.0364L36.2979 53.6125C36.2979 53.6559 36.2589 53.695 36.2154 53.695H36.2068L35.3384 53.6515C35.2863 53.6472 35.2515 53.6081 35.2515 53.556L35.3688 51.2982C35.3731 51.2505 35.4122 51.2114 35.4556 51.2114H35.4643L35.9506 51.2374C36.1199 51.2027 36.2806 51.1853 36.4369 51.1853C37.3183 51.1853 37.9869 51.7237 37.9869 52.553Z" fill="#86A3B3"/>
<path d="M39.6037 53.7254H38.731C38.6832 53.7254 38.6442 53.6863 38.6442 53.6385V50.0912C38.6442 50.0391 38.6832 50 38.731 50H39.6037C39.6515 50 39.6906 50.0391 39.6906 50.0912V53.6385C39.6906 53.6863 39.6515 53.7254 39.6037 53.7254Z" fill="#86A3B3"/>
<path d="M41.3997 53.708L40.5314 53.7514H40.5227C40.4749 53.7514 40.4402 53.7123 40.4358 53.6646L40.3273 51.5501C40.3273 51.498 40.362 51.4589 40.4141 51.4545L41.2825 51.4111H41.2912C41.3346 51.4111 41.3737 51.4502 41.3737 51.4936L41.4822 53.6125V53.6212C41.4822 53.6646 41.4432 53.7037 41.3997 53.708ZM41.4432 50.699C41.4432 51.0507 41.1566 51.3373 40.8049 51.3373C40.4489 51.3373 40.1623 51.0507 40.1623 50.699C40.1623 50.343 40.4489 50.0564 40.8049 50.0564C41.1566 50.0564 41.4432 50.343 41.4432 50.699Z" fill="#86A3B3"/>
<path d="M44.7415 52.553V52.6963C44.7415 52.9395 44.7979 53.1349 44.976 53.2999C45.002 53.3216 45.0454 53.365 45.0454 53.4127C45.0454 53.4388 45.0324 53.4648 45.002 53.4866C45.002 53.4952 44.5722 53.8035 44.5722 53.8035C44.5287 53.8382 44.4853 53.8513 44.4462 53.8513C44.3681 53.8513 43.6734 53.6212 43.6734 52.8483V52.7007C43.6734 52.2448 43.4519 52.0537 43.135 52.0364L43.0525 53.6125C43.0525 53.6559 43.0134 53.695 42.97 53.695H42.9613L42.0929 53.6515C42.0408 53.6472 42.0061 53.6081 42.0061 53.556L42.1233 51.2982C42.1277 51.2505 42.1667 51.2114 42.2102 51.2114H42.2188L42.7051 51.2374C42.8745 51.2027 43.0351 51.1853 43.1914 51.1853C44.0728 51.1853 44.7415 51.7237 44.7415 52.553Z" fill="#86A3B3"/>
<path d="M46.4972 53.2564C46.4972 53.556 46.2541 53.7992 45.9545 53.7992C45.6505 53.7992 45.4074 53.556 45.4074 53.2564C45.4074 52.9568 45.6505 52.7094 45.9545 52.7094C46.2541 52.7094 46.4972 52.9568 46.4972 53.2564Z" fill="#86A3B3"/>
<path d="M49.3207 51.4936L49.1166 52.019C49.0992 52.0711 49.0515 52.1145 48.9993 52.1145C48.982 52.1145 48.9603 52.1058 48.9429 52.0928C48.8647 52.0277 48.7128 51.9799 48.5608 51.9799C48.4479 51.9799 48.0702 52.006 48.0702 52.4792C48.0702 52.7701 48.2786 52.9612 48.5608 52.9612C48.7475 52.9612 48.9646 52.8787 49.173 52.6876C49.1991 52.6616 49.2382 52.6399 49.2772 52.6399C49.3076 52.6399 49.3424 52.6573 49.3728 52.7094C49.4509 52.857 49.503 52.9351 49.5725 53.0784C49.5855 53.1045 49.5942 53.1349 49.5942 53.1653C49.5942 53.2174 49.5725 53.2651 49.5204 53.3172C49.1687 53.6515 48.7519 53.7992 48.3611 53.7992C47.6403 53.7992 47.0021 53.2955 47.0021 52.5313C47.0021 51.5587 47.7793 51.1636 48.4957 51.1636C48.9776 51.1636 49.325 51.3547 49.325 51.4632C49.325 51.4719 49.325 51.4849 49.3207 51.4936Z" fill="#86A3B3"/>
<path d="M52.5664 52.4836C52.5664 53.3302 51.7067 53.8035 51.0901 53.8035C50.3824 53.8035 49.7615 53.2912 49.7615 52.527C49.7615 51.6326 50.4301 51.168 51.1943 51.168C52.1539 51.168 52.5664 51.9191 52.5664 52.4836ZM51.1943 52.9742C51.5026 52.9742 51.6415 52.7224 51.6415 52.4749C51.6415 52.3924 51.6242 51.9712 51.1813 51.9712C50.8166 51.9712 50.7124 52.2795 50.7124 52.4749C50.7124 52.7745 50.9468 52.9742 51.1943 52.9742Z" fill="#86A3B3"/>
<path d="M55.3067 53.7037L54.4991 53.7471H54.4904C54.447 53.7471 54.4122 53.708 54.4079 53.6602L54.3645 52.7441C54.3428 52.3056 54.2516 52.1232 53.978 52.1015L54.0562 53.6776C54.0562 53.7297 54.0214 53.7688 53.9737 53.7731L53.1618 53.8122H53.1531C53.1096 53.8122 53.0749 53.7731 53.0706 53.7254L52.962 51.4676V51.4589C52.962 51.4111 52.9968 51.3764 53.0402 51.372L53.3007 51.359C53.5221 51.2852 53.7392 51.2505 53.9476 51.2505C54.143 51.2505 54.3254 51.2809 54.4947 51.346C54.7726 51.2418 55.0375 51.194 55.2806 51.194C56.0448 51.194 56.6049 51.676 56.6526 52.4662C56.67 52.7484 56.7178 52.9612 56.9218 53.1218C56.9479 53.1435 57 53.187 57 53.2347C57 53.2564 56.9913 53.2825 56.9653 53.3042C56.9653 53.3129 56.5962 53.6646 56.5962 53.6646C56.5484 53.708 56.5094 53.7254 56.4659 53.7254C56.4052 53.7254 55.7235 53.5908 55.6714 52.7354C55.6497 52.2665 55.5585 52.0928 55.311 52.0581L55.3892 53.6081C55.3892 53.6602 55.3544 53.6993 55.3067 53.7037Z" fill="#86A3B3"/>
<g clip-path="url(#clip6_238_2123)">
<path d="M20.3333 52.3333C20.4765 52.5247 20.6591 52.6831 20.8689 52.7976C21.0786 52.9122 21.3105 52.9804 21.5489 52.9974C21.7873 53.0145 22.0265 52.9801 22.2505 52.8966C22.4744 52.8131 22.6777 52.6824 22.8467 52.5133L23.8467 51.5133C24.1503 51.199 24.3183 50.778 24.3145 50.341C24.3107 49.904 24.1354 49.486 23.8264 49.177C23.5174 48.868 23.0993 48.6927 22.6623 48.6889C22.2253 48.6851 21.8043 48.8531 21.49 49.1567L20.9167 49.7267M21.6667 51.6667C21.5235 51.4753 21.3409 51.3169 21.1312 51.2024C20.9214 51.0878 20.6895 51.0196 20.4511 51.0026C20.2127 50.9855 19.9735 51.0199 19.7496 51.1034C19.5256 51.1869 19.3223 51.3176 19.1533 51.4867L18.1533 52.4867C17.8497 52.801 17.6818 53.222 17.6855 53.659C17.6893 54.096 17.8646 54.514 18.1736 54.823C18.4827 55.132 18.9007 55.3073 19.3377 55.3111C19.7747 55.3149 20.1957 55.1469 20.51 54.8433L21.08 54.2733" stroke="#86A3B3" stroke-linecap="round" stroke-linejoin="round"/>
</g>
<defs>
<linearGradient id="paint0_linear_238_2123" x1="70.5" y1="-15.5" x2="71.625" y2="47.125" gradientUnits="userSpaceOnUse">
<stop offset="0.476259" stop-color="#D9D9D9"/>
<stop offset="0.675" stop-color="#737373" stop-opacity="0"/>
</linearGradient>
<linearGradient id="paint1_linear_238_2123" x1="62.6933" y1="43.3391" x2="62.4651" y2="24.1684" gradientUnits="userSpaceOnUse">
<stop stop-color="#FF5DA9"/>
<stop offset="1" stop-color="#5133B2"/>
</linearGradient>
<linearGradient id="paint2_linear_238_2123" x1="62.6933" y1="43.3391" x2="62.4651" y2="24.1684" gradientUnits="userSpaceOnUse">
<stop stop-color="#FF5DA9"/>
<stop offset="1" stop-color="#5133B2"/>
</linearGradient>
<linearGradient id="paint3_linear_238_2123" x1="62.6933" y1="43.3391" x2="62.4651" y2="24.1684" gradientUnits="userSpaceOnUse">
<stop stop-color="#FF5DA9"/>
<stop offset="1" stop-color="#5133B2"/>
</linearGradient>
<linearGradient id="paint4_linear_238_2123" x1="62.6933" y1="43.3391" x2="62.4651" y2="24.1684" gradientUnits="userSpaceOnUse">
<stop stop-color="#FF5DA9"/>
<stop offset="1" stop-color="#5133B2"/>
</linearGradient>
<linearGradient id="paint5_linear_238_2123" x1="62.6933" y1="43.3391" x2="62.4651" y2="24.1684" gradientUnits="userSpaceOnUse">
<stop stop-color="#FF5DA9"/>
<stop offset="1" stop-color="#5133B2"/>
</linearGradient>
<linearGradient id="paint6_linear_238_2123" x1="62.6933" y1="43.3391" x2="62.4651" y2="24.1684" gradientUnits="userSpaceOnUse">
<stop stop-color="#FF5DA9"/>
<stop offset="1" stop-color="#5133B2"/>
</linearGradient>
<linearGradient id="paint7_linear_238_2123" x1="62.6933" y1="43.3391" x2="62.4651" y2="24.1684" gradientUnits="userSpaceOnUse">
<stop stop-color="#FF5DA9"/>
<stop offset="1" stop-color="#5133B2"/>
</linearGradient>
<linearGradient id="paint8_linear_238_2123" x1="62.6933" y1="43.3391" x2="62.4651" y2="24.1684" gradientUnits="userSpaceOnUse">
<stop stop-color="#FF5DA9"/>
<stop offset="1" stop-color="#5133B2"/>
</linearGradient>
<linearGradient id="paint9_linear_238_2123" x1="62.6933" y1="43.3391" x2="62.4651" y2="24.1684" gradientUnits="userSpaceOnUse">
<stop stop-color="#FF5DA9"/>
<stop offset="1" stop-color="#5133B2"/>
</linearGradient>
<linearGradient id="paint10_linear_238_2123" x1="62.6933" y1="43.3391" x2="62.4651" y2="24.1684" gradientUnits="userSpaceOnUse">
<stop stop-color="#FF5DA9"/>
<stop offset="1" stop-color="#5133B2"/>
</linearGradient>
<linearGradient id="paint11_linear_238_2123" x1="62.6933" y1="43.3391" x2="62.4651" y2="24.1684" gradientUnits="userSpaceOnUse">
<stop stop-color="#FF5DA9"/>
<stop offset="1" stop-color="#5133B2"/>
</linearGradient>
<linearGradient id="paint12_linear_238_2123" x1="62.6933" y1="43.3391" x2="62.4651" y2="24.1684" gradientUnits="userSpaceOnUse">
<stop stop-color="#FF5DA9"/>
<stop offset="1" stop-color="#5133B2"/>
</linearGradient>
<linearGradient id="paint13_linear_238_2123" x1="62.6933" y1="43.3391" x2="62.4651" y2="24.1684" gradientUnits="userSpaceOnUse">
<stop stop-color="#FF5DA9"/>
<stop offset="1" stop-color="#5133B2"/>
</linearGradient>
<linearGradient id="paint14_linear_238_2123" x1="62.6933" y1="43.3391" x2="62.4651" y2="24.1684" gradientUnits="userSpaceOnUse">
<stop stop-color="#FF5DA9"/>
<stop offset="1" stop-color="#5133B2"/>
</linearGradient>
<linearGradient id="paint15_linear_238_2123" x1="62.6933" y1="43.3391" x2="62.4651" y2="24.1684" gradientUnits="userSpaceOnUse">
<stop stop-color="#FF5DA9"/>
<stop offset="1" stop-color="#5133B2"/>
</linearGradient>
<linearGradient id="paint16_linear_238_2123" x1="62.6933" y1="43.3391" x2="62.4651" y2="24.1684" gradientUnits="userSpaceOnUse">
<stop stop-color="#FF5DA9"/>
<stop offset="1" stop-color="#5133B2"/>
</linearGradient>
<linearGradient id="paint17_linear_238_2123" x1="62.6933" y1="43.3391" x2="62.4651" y2="24.1684" gradientUnits="userSpaceOnUse">
<stop stop-color="#FF5DA9"/>
<stop offset="1" stop-color="#5133B2"/>
</linearGradient>
<linearGradient id="paint18_linear_238_2123" x1="62.6933" y1="43.3391" x2="62.4651" y2="24.1684" gradientUnits="userSpaceOnUse">
<stop stop-color="#FF5DA9"/>
<stop offset="1" stop-color="#5133B2"/>
</linearGradient>
<linearGradient id="paint19_linear_238_2123" x1="62.6933" y1="43.3391" x2="62.4651" y2="24.1684" gradientUnits="userSpaceOnUse">
<stop stop-color="#FF5DA9"/>
<stop offset="1" stop-color="#5133B2"/>
</linearGradient>
<linearGradient id="paint20_linear_238_2123" x1="63.2438" y1="39.173" x2="63.6287" y2="5.00081" gradientUnits="userSpaceOnUse">
<stop stop-color="#FF5DA9"/>
<stop offset="0.786667" stop-color="#6190F7"/>
</linearGradient>
<linearGradient id="paint21_linear_238_2123" x1="63.2438" y1="39.173" x2="63.6287" y2="5.00081" gradientUnits="userSpaceOnUse">
<stop stop-color="#FF5DA9"/>
<stop offset="0.786667" stop-color="#6190F7"/>
</linearGradient>
<linearGradient id="paint22_linear_238_2123" x1="63.2438" y1="39.173" x2="63.6287" y2="5.00081" gradientUnits="userSpaceOnUse">
<stop stop-color="#FF5DA9"/>
<stop offset="0.786667" stop-color="#6190F7"/>
</linearGradient>
<linearGradient id="paint23_linear_238_2123" x1="63.2438" y1="39.173" x2="63.6287" y2="5.00081" gradientUnits="userSpaceOnUse">
<stop stop-color="#FF5DA9"/>
<stop offset="0.786667" stop-color="#6190F7"/>
</linearGradient>
<linearGradient id="paint24_linear_238_2123" x1="63.2438" y1="39.173" x2="63.6287" y2="5.00081" gradientUnits="userSpaceOnUse">
<stop stop-color="#FF5DA9"/>
<stop offset="0.786667" stop-color="#6190F7"/>
</linearGradient>
<linearGradient id="paint25_linear_238_2123" x1="63.2438" y1="39.173" x2="63.6287" y2="5.00081" gradientUnits="userSpaceOnUse">
<stop stop-color="#FF5DA9"/>
<stop offset="0.786667" stop-color="#6190F7"/>
</linearGradient>
<linearGradient id="paint26_linear_238_2123" x1="63.2438" y1="39.173" x2="63.6287" y2="5.00081" gradientUnits="userSpaceOnUse">
<stop stop-color="#FF5DA9"/>
<stop offset="0.786667" stop-color="#6190F7"/>
</linearGradient>
<linearGradient id="paint27_linear_238_2123" x1="63.2438" y1="39.173" x2="63.6287" y2="5.00081" gradientUnits="userSpaceOnUse">
<stop stop-color="#FF5DA9"/>
<stop offset="0.786667" stop-color="#6190F7"/>
</linearGradient>
<linearGradient id="paint28_linear_238_2123" x1="63.2438" y1="39.173" x2="63.6287" y2="5.00081" gradientUnits="userSpaceOnUse">
<stop stop-color="#FF5DA9"/>
<stop offset="0.786667" stop-color="#6190F7"/>
</linearGradient>
<linearGradient id="paint29_linear_238_2123" x1="63.2438" y1="39.173" x2="63.6287" y2="5.00081" gradientUnits="userSpaceOnUse">
<stop stop-color="#FF5DA9"/>
<stop offset="0.786667" stop-color="#6190F7"/>
</linearGradient>
<linearGradient id="paint30_linear_238_2123" x1="63.2438" y1="39.173" x2="63.6287" y2="5.00081" gradientUnits="userSpaceOnUse">
<stop stop-color="#FF5DA9"/>
<stop offset="0.786667" stop-color="#6190F7"/>
</linearGradient>
<linearGradient id="paint31_linear_238_2123" x1="63.2438" y1="39.173" x2="63.6287" y2="5.00081" gradientUnits="userSpaceOnUse">
<stop stop-color="#FF5DA9"/>
<stop offset="0.786667" stop-color="#6190F7"/>
</linearGradient>
<linearGradient id="paint32_linear_238_2123" x1="63.2438" y1="39.173" x2="63.6287" y2="5.00081" gradientUnits="userSpaceOnUse">
<stop stop-color="#FF5DA9"/>
<stop offset="0.786667" stop-color="#6190F7"/>
</linearGradient>
<linearGradient id="paint33_linear_238_2123" x1="63.2438" y1="39.173" x2="63.6287" y2="5.00081" gradientUnits="userSpaceOnUse">
<stop stop-color="#FF5DA9"/>
<stop offset="0.786667" stop-color="#6190F7"/>
</linearGradient>
<linearGradient id="paint34_linear_238_2123" x1="63.2438" y1="39.173" x2="63.6287" y2="5.00081" gradientUnits="userSpaceOnUse">
<stop stop-color="#FF5DA9"/>
<stop offset="0.786667" stop-color="#6190F7"/>
</linearGradient>
<linearGradient id="paint35_linear_238_2123" x1="63.2438" y1="39.173" x2="63.6287" y2="5.00081" gradientUnits="userSpaceOnUse">
<stop stop-color="#FF5DA9"/>
<stop offset="0.786667" stop-color="#6190F7"/>
</linearGradient>
<linearGradient id="paint36_linear_238_2123" x1="63.2438" y1="39.173" x2="63.6287" y2="5.00081" gradientUnits="userSpaceOnUse">
<stop stop-color="#FF5DA9"/>
<stop offset="0.786667" stop-color="#6190F7"/>
</linearGradient>
<linearGradient id="paint37_linear_238_2123" x1="63.2438" y1="39.173" x2="63.6287" y2="5.00081" gradientUnits="userSpaceOnUse">
<stop stop-color="#FF5DA9"/>
<stop offset="0.786667" stop-color="#6190F7"/>
</linearGradient>
<linearGradient id="paint38_linear_238_2123" x1="63.2438" y1="39.173" x2="63.6287" y2="5.00081" gradientUnits="userSpaceOnUse">
<stop stop-color="#FF5DA9"/>
<stop offset="0.786667" stop-color="#6190F7"/>
</linearGradient>
<linearGradient id="paint39_linear_238_2123" x1="63.2438" y1="39.173" x2="63.6287" y2="5.00081" gradientUnits="userSpaceOnUse">
<stop stop-color="#FF5DA9"/>
<stop offset="0.786667" stop-color="#6190F7"/>
</linearGradient>
<linearGradient id="paint40_linear_238_2123" x1="63.2438" y1="39.173" x2="63.6287" y2="5.00081" gradientUnits="userSpaceOnUse">
<stop stop-color="#FF5DA9"/>
<stop offset="0.786667" stop-color="#6190F7"/>
</linearGradient>
<linearGradient id="paint41_linear_238_2123" x1="67.7448" y1="50.6102" x2="66.9053" y2="9.94358" gradientUnits="userSpaceOnUse">
<stop offset="0.121667" stop-color="#993865"/>
<stop offset="1" stop-color="#401986"/>
</linearGradient>
<linearGradient id="paint42_linear_238_2123" x1="67.7448" y1="50.6102" x2="66.9053" y2="9.94358" gradientUnits="userSpaceOnUse">
<stop offset="0.121667" stop-color="#993865"/>
<stop offset="1" stop-color="#401986"/>
</linearGradient>
<linearGradient id="paint43_linear_238_2123" x1="67.7448" y1="50.6102" x2="66.9053" y2="9.94358" gradientUnits="userSpaceOnUse">
<stop offset="0.121667" stop-color="#993865"/>
<stop offset="1" stop-color="#401986"/>
</linearGradient>
<linearGradient id="paint44_linear_238_2123" x1="67.7448" y1="50.6102" x2="66.9053" y2="9.94358" gradientUnits="userSpaceOnUse">
<stop offset="0.121667" stop-color="#993865"/>
<stop offset="1" stop-color="#401986"/>
</linearGradient>
<linearGradient id="paint45_linear_238_2123" x1="67.7448" y1="50.6102" x2="66.9053" y2="9.94358" gradientUnits="userSpaceOnUse">
<stop offset="0.121667" stop-color="#993865"/>
<stop offset="1" stop-color="#401986"/>
</linearGradient>
<linearGradient id="paint46_linear_238_2123" x1="67.7448" y1="50.6102" x2="66.9053" y2="9.94358" gradientUnits="userSpaceOnUse">
<stop offset="0.121667" stop-color="#993865"/>
<stop offset="1" stop-color="#401986"/>
</linearGradient>
<linearGradient id="paint47_linear_238_2123" x1="67.7448" y1="50.6102" x2="66.9053" y2="9.94358" gradientUnits="userSpaceOnUse">
<stop offset="0.121667" stop-color="#993865"/>
<stop offset="1" stop-color="#401986"/>
</linearGradient>
<linearGradient id="paint48_linear_238_2123" x1="67.7448" y1="50.6102" x2="66.9053" y2="9.94358" gradientUnits="userSpaceOnUse">
<stop offset="0.121667" stop-color="#993865"/>
<stop offset="1" stop-color="#401986"/>
</linearGradient>
<linearGradient id="paint49_linear_238_2123" x1="67.7448" y1="50.6102" x2="66.9053" y2="9.94358" gradientUnits="userSpaceOnUse">
<stop offset="0.121667" stop-color="#993865"/>
<stop offset="1" stop-color="#401986"/>
</linearGradient>
<linearGradient id="paint50_linear_238_2123" x1="67.7448" y1="50.6102" x2="66.9053" y2="9.94358" gradientUnits="userSpaceOnUse">
<stop offset="0.121667" stop-color="#993865"/>
<stop offset="1" stop-color="#401986"/>
</linearGradient>
<linearGradient id="paint51_linear_238_2123" x1="67.7448" y1="50.6102" x2="66.9053" y2="9.94358" gradientUnits="userSpaceOnUse">
<stop offset="0.121667" stop-color="#993865"/>
<stop offset="1" stop-color="#401986"/>
</linearGradient>
<linearGradient id="paint52_linear_238_2123" x1="67.7448" y1="50.6102" x2="66.9053" y2="9.94358" gradientUnits="userSpaceOnUse">
<stop offset="0.121667" stop-color="#993865"/>
<stop offset="1" stop-color="#401986"/>
</linearGradient>
<linearGradient id="paint53_linear_238_2123" x1="67.7448" y1="50.6102" x2="66.9053" y2="9.94358" gradientUnits="userSpaceOnUse">
<stop offset="0.121667" stop-color="#993865"/>
<stop offset="1" stop-color="#401986"/>
</linearGradient>
<linearGradient id="paint54_linear_238_2123" x1="67.7448" y1="50.6102" x2="66.9053" y2="9.94358" gradientUnits="userSpaceOnUse">
<stop offset="0.121667" stop-color="#993865"/>
<stop offset="1" stop-color="#401986"/>
</linearGradient>
<linearGradient id="paint55_linear_238_2123" x1="67.7448" y1="50.6102" x2="66.9053" y2="9.94358" gradientUnits="userSpaceOnUse">
<stop offset="0.121667" stop-color="#993865"/>
<stop offset="1" stop-color="#401986"/>
</linearGradient>
<linearGradient id="paint56_linear_238_2123" x1="67.7448" y1="50.6102" x2="66.9053" y2="9.94358" gradientUnits="userSpaceOnUse">
<stop offset="0.121667" stop-color="#993865"/>
<stop offset="1" stop-color="#401986"/>
</linearGradient>
<linearGradient id="paint57_linear_238_2123" x1="67.7448" y1="50.6102" x2="66.9053" y2="9.94358" gradientUnits="userSpaceOnUse">
<stop offset="0.121667" stop-color="#993865"/>
<stop offset="1" stop-color="#401986"/>
</linearGradient>
<clipPath id="clip0_238_2123">
<rect width="7" height="7" fill="white" transform="translate(22 16)"/>
</clipPath>
<clipPath id="clip1_238_2123">
<rect width="8" height="8" fill="white" transform="translate(16 26)"/>
</clipPath>
<clipPath id="clip2_238_2123">
<rect width="8" height="8" fill="white" transform="matrix(-1 0 0 -1 113.25 27)"/>
</clipPath>
<clipPath id="clip3_238_2123">
<rect width="8" height="8" fill="white" transform="translate(129.986 19) rotate(20)"/>
</clipPath>
<clipPath id="clip4_238_2123">
<rect width="8" height="8" fill="white" transform="matrix(-1 0 0 1 149.25 43)"/>
</clipPath>
<clipPath id="clip5_238_2123">
<rect width="8" height="8" fill="white" transform="translate(93.25 53)"/>
</clipPath>
<clipPath id="clip6_238_2123">
<rect width="8" height="8" fill="white" transform="translate(17 48)"/>
</clipPath>
</defs>
</svg>
