<svg width="438" height="301" viewBox="0 0 438 301" fill="none" xmlns="http://www.w3.org/2000/svg">
<path d="M64.2472 111.41L61.8736 105.872C60.8093 103.388 61.7959 100.502 64.1578 99.1901C64.3856 99.0635 64.6225 98.9541 64.8666 98.8625L69.7423 97.0341C71.508 96.372 72.9384 95.0355 73.7187 93.3188C74.5358 91.5211 74.5686 89.4646 73.8091 87.6418L72.9982 85.6958C72.667 84.9009 72.2509 84.1442 71.7571 83.4388L69.8323 80.6891C69.2887 79.9124 68.5353 79.3064 67.6602 78.9418L66.2566 78.3569C64.4634 77.6097 63.6245 75.5428 64.3898 73.7572C64.4631 73.586 64.5227 73.4092 64.5679 73.2285L64.8943 71.9229C65.2966 70.3137 65.5 68.6612 65.5 67.0025V65.5V64.0896C65.5 62.8559 64.6743 61.7748 63.4841 61.4502L62.3044 61.1285C61.1476 60.813 60.612 59.48 61.2289 58.4518C61.406 58.1567 61.6635 57.9183 61.9713 57.7644L63.9333 56.7833C64.9462 56.2769 65.7515 55.4342 66.2114 54.3994L66.7559 53.1743C67.2084 52.1562 68.218 51.5 69.3322 51.5C70.0799 51.5 70.797 51.797 71.3258 52.3258L74.2593 55.2593C74.7451 55.7451 75.3467 56.099 76.0072 56.2878L76.7535 56.501C77.8178 56.8051 78.9617 56.4613 79.6821 55.6209C80.6902 54.4448 82.456 54.2966 83.6459 55.2883L83.8098 55.4248C84.2603 55.8003 84.593 56.2978 84.768 56.8576L86.2497 61.599C86.7479 63.1933 87.4449 64.7186 88.3241 66.1389L92.142 72.3063C93.0325 73.7448 94.2764 74.9313 95.7553 75.7529C97.2275 76.5708 98.8838 77 100.568 77H101.934C103.305 77 104.67 76.814 105.991 76.447L106.818 76.2173C110.726 75.1317 113.93 72.3306 115.528 68.6025L117.875 63.1247C118.558 61.5324 120.123 60.5 121.856 60.5C122.283 60.5 122.708 60.5632 123.116 60.6876L141.472 66.274C144.015 67.0479 146.772 66.6096 148.95 65.0853C149.971 64.3702 151.135 63.8845 152.362 63.6614L153.504 63.4538C155.154 63.1537 156.853 63.1551 158.504 63.4552C160.472 63.8132 162.351 64.5892 163.996 65.7281L164.269 65.917C166.706 67.604 168.611 69.9508 169.761 72.6822L171.84 77.6193C171.946 77.8725 172.077 78.1151 172.229 78.3437C173.693 80.5398 176.761 80.9349 178.734 79.1813L179.036 78.9128C179.344 78.6388 179.687 78.4066 180.056 78.2221L182.481 77.0093C184.485 76.0076 186.613 75.2774 188.809 74.8381L190.021 74.5957C193.65 73.87 197.372 73.734 201.044 74.193L203.5 74.5L208.405 75.7907C211.445 76.5908 214.322 77.9153 216.907 79.7048L218.351 80.7048C219.115 81.2331 219.814 81.8485 220.435 82.5385L221.363 83.5695C223.041 85.4348 225.433 86.5 227.943 86.5C232.072 86.5 235.652 83.6454 236.573 79.62L238.914 69.3783C238.971 69.1282 239.073 68.8906 239.215 68.6772C239.69 67.9649 240.548 67.6096 241.387 67.7775L259.602 71.4203C261.529 71.8058 263.49 72 265.456 72H268.5C269.978 72 271.274 71.0153 271.671 69.5918L279.291 42.2514C279.43 41.7527 279.635 41.275 279.901 40.8311L280.115 40.4758C280.686 39.5235 281.579 38.8069 282.633 38.4557C283.523 38.1589 284.483 38.1384 285.385 38.3969L374.6 63.9558C375.827 64.3071 376.888 65.0827 377.596 66.1442L377.745 66.3672C378.237 67.1058 378.5 67.9737 378.5 68.8615C378.5 69.285 378.44 69.7065 378.322 70.1133L371.571 93.4055C369.799 99.5174 372.71 106.014 378.451 108.759L378.658 108.858C379.549 109.284 380.38 109.826 381.13 110.468L381.723 110.977C382.886 111.974 383.756 113.267 384.24 114.72L384.375 115.126C384.784 116.351 385.526 117.438 386.518 118.265C387.487 119.073 388.659 119.601 389.907 119.793L394.299 120.469C394.433 120.49 394.568 120.5 394.703 120.5C395.788 120.5 396.764 121.161 397.167 122.168L398.5 125.5L400.703 131.741C401.231 133.239 401.975 134.653 402.909 135.937L403.463 136.699C404.798 138.534 406.591 139.985 408.665 140.906L409.26 141.171C409.752 141.39 410.217 141.663 410.648 141.986L411.623 142.717C411.871 142.903 412.072 143.144 412.211 143.422C412.662 144.323 412.371 145.42 411.532 145.979L408.108 148.261C407.377 148.749 406.749 149.377 406.261 150.108L402.255 156.118C400.755 158.368 399.472 160.754 398.423 163.246L397.69 164.986C396.567 167.654 395.731 170.435 395.197 173.281L394.873 175.009C394.625 176.333 394.5 177.678 394.5 179.026V182.292C394.5 183.089 394.662 183.878 394.976 184.611C395.628 186.133 395.61 187.859 394.924 189.366L392.997 193.606C391.693 196.475 389.592 198.908 386.944 200.616L375.5 208C372.797 209.502 371.317 212.531 371.795 215.586L373.271 225.032C373.423 226.009 373.5 226.997 373.5 227.986V229.465C373.5 231.783 372.903 234.061 371.767 236.081L370.659 238.051C369.598 239.938 367.824 241.321 365.735 241.89L365.039 242.08C364.033 242.355 362.971 242.341 361.972 242.042C359.861 241.408 357.575 242.079 356.141 243.752L353.728 246.567C352.936 247.492 352.5 248.669 352.5 249.887C352.5 251.24 351.963 252.537 351.006 253.494L347.691 256.809C345.617 258.883 342.94 260.246 340.043 260.704C336.788 261.218 333.456 260.556 330.644 258.838L328.098 257.282C326.731 256.447 325.646 255.22 324.983 253.762C324.039 251.686 322.256 250.111 320.08 249.431L317.535 248.636C316.186 248.214 314.781 248 313.368 248H311.5H296.046C294.916 248 294 248.916 294 250.046C294 250.345 293.934 250.64 293.808 250.911L292.468 253.783C291.182 256.54 289.151 258.882 286.605 260.546L284.145 262.155C279.809 264.99 274.741 266.5 269.561 266.5H169.801C167.102 266.5 164.569 267.804 163 270C161.431 272.196 158.898 273.5 156.199 273.5H152H149.753C145.035 273.5 140.433 272.033 136.585 269.302L133.932 267.419C129.584 264.333 127 259.332 127 254V244.372C127 242.233 125.267 240.5 123.128 240.5C122.712 240.5 122.299 240.567 121.904 240.699L119.434 241.522C117.578 242.141 116.101 243.564 115.414 245.395C115.14 246.126 114.737 246.801 114.223 247.388L113.531 248.178C112.198 249.702 110.508 250.872 108.612 251.583L107.5 252L106.626 252.25C104.891 252.745 103.078 252.908 101.282 252.728L100.913 252.691C99.6458 252.565 98.4069 252.236 97.2432 251.719C95.4423 250.919 93.8669 249.686 92.657 248.13L92.2606 247.621C91.4243 246.546 90.7433 245.358 90.2374 244.094L89.2222 241.555C89.0754 241.189 89 240.797 89 240.402C89 238.575 87.4315 237.143 85.6122 237.308L84.3084 237.427C83.7742 237.475 83.2537 237.623 82.774 237.863L81.1818 238.659C80.0679 239.216 78.8715 239.59 77.6386 239.766L77.293 239.815C76.4353 239.938 75.5647 239.938 74.707 239.815C73.2569 239.608 71.8778 239.056 70.6858 238.204L70.5019 238.073C69.5089 237.363 68.6531 236.48 67.9762 235.464L67.9074 235.361C67.3061 234.459 66.8484 233.469 66.5506 232.427C66.1868 231.154 66.0677 229.823 66.1994 228.506L66.277 227.73C66.4237 226.263 66.9064 224.85 67.6878 223.6C68.5485 222.222 69.7447 221.086 71.1644 220.298L78 216.5C82.2704 213.653 83.7186 208.051 81.3631 203.491L47.1832 137.323C46.8131 136.606 45.915 136.351 45.2235 136.766C44.552 137.169 43.6806 136.941 43.2921 136.261L43.0171 135.78C42.4647 134.813 42.8378 133.581 43.8336 133.083L45 132.5L57.8626 127.141C63.9953 124.585 66.8643 117.517 64.2472 111.41Z" fill="#AA5906" stroke="#F6D193" stroke-width="16"/>
<path d="M56.2472 101.41L53.8736 95.8717C52.8093 93.3883 53.7959 90.5023 56.1578 89.1901C56.3856 89.0635 56.6225 88.9541 56.8666 88.8625L61.7423 87.0341C63.508 86.372 64.9384 85.0355 65.7187 83.3188C66.5358 81.5211 66.5686 79.4646 65.8091 77.6418L64.9982 75.6958C64.667 74.9009 64.2509 74.1442 63.7571 73.4388L61.8323 70.6891C61.2887 69.9124 60.5353 69.3064 59.6602 68.9418L58.2566 68.3569C56.4634 67.6097 55.6245 65.5428 56.3898 63.7572C56.4631 63.586 56.5227 63.4092 56.5679 63.2285L56.8943 61.9229C57.2966 60.3137 57.5 58.6612 57.5 57.0025V55.5V54.0896C57.5 52.8559 56.6743 51.7748 55.4841 51.4502L54.3044 51.1285C53.1476 50.813 52.612 49.48 53.2289 48.4518C53.406 48.1567 53.6635 47.9183 53.9713 47.7644L55.9333 46.7833C56.9462 46.2769 57.7515 45.4342 58.2114 44.3994L58.7559 43.1743C59.2084 42.1562 60.218 41.5 61.3322 41.5C62.0799 41.5 62.797 41.797 63.3258 42.3258L66.2593 45.2593C66.7451 45.7451 67.3467 46.099 68.0072 46.2878L68.7535 46.501C69.8178 46.8051 70.9617 46.4613 71.6821 45.6209C72.6902 44.4448 74.456 44.2966 75.6459 45.2883L75.8098 45.4248C76.2603 45.8003 76.593 46.2978 76.768 46.8576L78.2497 51.599C78.7479 53.1933 79.4449 54.7186 80.3241 56.1389L84.142 62.3063C85.0325 63.7448 86.2764 64.9313 87.7553 65.7529C89.2275 66.5708 90.8838 67 92.5678 67H93.9339C95.305 67 96.6697 66.814 97.9907 66.447L98.8178 66.2173C102.726 65.1317 105.93 62.3306 107.528 58.6025L109.875 53.1247C110.558 51.5324 112.123 50.5 113.856 50.5C114.283 50.5 114.708 50.5632 115.116 50.6876L133.472 56.274C136.015 57.0479 138.772 56.6096 140.95 55.0853C141.971 54.3702 143.135 53.8845 144.362 53.6614L145.504 53.4538C147.154 53.1537 148.853 53.1551 150.504 53.4552C152.472 53.8132 154.351 54.5892 155.996 55.7281L156.269 55.917C158.706 57.604 160.611 59.9508 161.761 62.6822L163.84 67.6193C163.946 67.8725 164.077 68.1151 164.229 68.3437C165.693 70.5398 168.761 70.9349 170.734 69.1813L171.036 68.9128C171.344 68.6388 171.687 68.4066 172.056 68.2221L174.481 67.0093C176.485 66.0076 178.613 65.2774 180.809 64.8381L182.021 64.5957C185.65 63.87 189.372 63.734 193.044 64.193L195.5 64.5L200.405 65.7907C203.445 66.5908 206.322 67.9153 208.907 69.7048L210.351 70.7048C211.115 71.2331 211.814 71.8485 212.435 72.5385L213.363 73.5695C215.041 75.4348 217.433 76.5 219.943 76.5C224.072 76.5 227.652 73.6454 228.573 69.62L230.914 59.3783C230.971 59.1282 231.073 58.8906 231.215 58.6772C231.69 57.9649 232.548 57.6096 233.387 57.7775L251.602 61.4203C253.529 61.8058 255.49 62 257.456 62H260.5C261.978 62 263.274 61.0153 263.671 59.5918L271.291 32.2514C271.43 31.7527 271.635 31.275 271.901 30.8311L272.115 30.4758C272.686 29.5235 273.579 28.8069 274.633 28.4557C275.523 28.1589 276.483 28.1384 277.385 28.3969L366.6 53.9558C367.827 54.3071 368.888 55.0827 369.596 56.1442L369.745 56.3672C370.237 57.1058 370.5 57.9737 370.5 58.8615C370.5 59.285 370.44 59.7065 370.322 60.1133L363.571 83.4055C361.799 89.5174 364.71 96.0136 370.451 98.7592L370.658 98.858C371.549 99.2842 372.38 99.8256 373.13 100.468L373.723 100.977C374.886 101.974 375.756 103.267 376.24 104.72L376.375 105.126C376.784 106.351 377.526 107.438 378.518 108.265C379.487 109.073 380.659 109.601 381.907 109.793L386.299 110.469C386.433 110.49 386.568 110.5 386.703 110.5C387.788 110.5 388.764 111.161 389.167 112.168L390.5 115.5L392.703 121.741C393.231 123.239 393.975 124.653 394.909 125.937L395.463 126.699C396.798 128.534 398.591 129.985 400.665 130.906L401.26 131.171C401.752 131.39 402.217 131.663 402.648 131.986L403.623 132.717C403.871 132.903 404.072 133.144 404.211 133.422C404.662 134.323 404.371 135.42 403.532 135.979L400.108 138.261C399.377 138.749 398.749 139.377 398.261 140.108L394.255 146.118C392.755 148.368 391.472 150.754 390.423 153.246L389.69 154.986C388.567 157.654 387.731 160.435 387.197 163.281L386.873 165.009C386.625 166.333 386.5 167.678 386.5 169.026V172.292C386.5 173.089 386.662 173.878 386.976 174.611C387.628 176.133 387.61 177.859 386.924 179.366L384.997 183.606C383.693 186.475 381.592 188.908 378.944 190.616L367.5 198C364.797 199.502 363.317 202.531 363.795 205.586L365.271 215.032C365.423 216.009 365.5 216.997 365.5 217.986V219.465C365.5 221.783 364.903 224.061 363.767 226.081L362.659 228.051C361.598 229.938 359.824 231.321 357.735 231.89L357.039 232.08C356.033 232.355 354.971 232.341 353.972 232.042C351.861 231.408 349.575 232.079 348.141 233.752L345.728 236.567C344.936 237.492 344.5 238.669 344.5 239.887C344.5 241.24 343.963 242.537 343.006 243.494L339.691 246.809C337.617 248.883 334.94 250.246 332.043 250.704C328.788 251.218 325.456 250.556 322.644 248.838L320.098 247.282C318.731 246.447 317.646 245.22 316.983 243.762C316.039 241.686 314.256 240.111 312.08 239.431L309.535 238.636C308.186 238.214 306.781 238 305.368 238H303.5H288.046C286.916 238 286 238.916 286 240.046C286 240.345 285.934 240.64 285.808 240.911L284.468 243.783C283.182 246.54 281.151 248.882 278.605 250.546L276.145 252.155C271.809 254.99 266.741 256.5 261.561 256.5H161.801C159.102 256.5 156.569 257.804 155 260C153.431 262.196 150.898 263.5 148.199 263.5H144H141.753C137.035 263.5 132.433 262.033 128.585 259.302L125.932 257.419C121.584 254.333 119 249.332 119 244V234.372C119 232.233 117.267 230.5 115.128 230.5C114.712 230.5 114.299 230.567 113.904 230.699L111.434 231.522C109.578 232.141 108.101 233.564 107.414 235.395C107.14 236.126 106.737 236.801 106.223 237.388L105.531 238.178C104.198 239.702 102.508 240.872 100.612 241.583L99.5 242L98.6261 242.25C96.8911 242.745 95.0779 242.908 93.2824 242.728L92.9129 242.691C91.6458 242.565 90.4069 242.236 89.2432 241.719C87.4423 240.919 85.8669 239.686 84.657 238.13L84.2606 237.621C83.4243 236.546 82.7433 235.358 82.2374 234.094L81.2222 231.555C81.0754 231.189 81 230.797 81 230.402C81 228.575 79.4315 227.143 77.6122 227.308L76.3084 227.427C75.7742 227.475 75.2537 227.623 74.774 227.863L73.1818 228.659C72.0679 229.216 70.8715 229.59 69.6386 229.766L69.293 229.815C68.4353 229.938 67.5647 229.938 66.707 229.815C65.2569 229.608 63.8778 229.056 62.6858 228.204L62.5019 228.073C61.5089 227.363 60.6531 226.48 59.9762 225.464L59.9074 225.361C59.3061 224.459 58.8484 223.469 58.5506 222.427C58.1868 221.154 58.0677 219.823 58.1994 218.506L58.277 217.73C58.4237 216.263 58.9064 214.85 59.6878 213.6C60.5485 212.222 61.7447 211.086 63.1644 210.298L70 206.5C74.2704 203.653 75.7186 198.051 73.3631 193.491L39.1832 127.323C38.8131 126.606 37.915 126.351 37.2235 126.766C36.552 127.169 35.6806 126.941 35.2921 126.261L35.0171 125.78C34.4647 124.813 34.8378 123.581 35.8336 123.083L37 122.5L49.8626 117.141C55.9953 114.585 58.8643 107.517 56.2472 101.41Z" fill="#AA5906" stroke="#AA5906" stroke-width="16"/>
<g clip-path="url(#clip0_85_674)">
<g opacity="0.8">
<path d="M272.365 31.845C272.974 29.7215 275.189 28.4936 277.313 29.1025L366.71 54.7368C368.834 55.3457 370.062 57.5609 369.453 59.6844L353.19 116.399C352.581 118.522 350.366 119.75 348.242 119.141L258.845 93.5071C256.722 92.8982 255.494 90.683 256.103 88.5595L272.365 31.845Z" fill="#F6D193"/>
<path d="M272.365 31.845C272.974 29.7215 275.189 28.4936 277.313 29.1025L366.71 54.7368C368.834 55.3457 370.062 57.5609 369.453 59.6844L366.972 68.3358L269.884 40.4964L272.365 31.845Z" fill="#E2A567"/>
<path d="M282.25 37.2802C281.717 39.1383 279.779 40.2127 277.921 39.6799C276.063 39.1471 274.988 37.2089 275.521 35.3507C276.054 33.4926 277.992 32.4183 279.85 32.9511C281.708 33.4839 282.783 35.4221 282.25 37.2802Z" fill="#F6D193"/>
<path d="M290.901 39.7609C290.369 41.6191 288.43 42.6934 286.572 42.1606C284.714 41.6278 283.64 39.6896 284.173 37.8315C284.705 35.9734 286.644 34.899 288.502 35.4318C290.36 35.9646 291.434 37.9028 290.901 39.7609Z" fill="#F6D193"/>
<path d="M299.553 42.2417C299.02 44.0998 297.082 45.1742 295.224 44.6414C293.365 44.1086 292.291 42.1703 292.824 40.3122C293.357 38.4541 295.295 37.3797 297.153 37.9125C299.011 38.4453 300.086 40.3836 299.553 42.2417Z" fill="#F6D193"/>
</g>
<path d="M285.722 65.7873C285.247 65.3058 283.452 64.8811 283.362 65.9052C283.146 68.3904 286.694 67.7142 285.954 66.0632C285.718 65.5385 284.946 65.5735 284.856 66.1385C284.782 66.602 285.083 67.0345 284.502 66.8679" stroke="#CF965D" stroke-width="2" stroke-linecap="round"/>
<path d="M297.629 69.2566C297.154 68.7751 295.359 68.3504 295.269 69.3745C295.053 71.8597 298.602 71.1835 297.861 69.5325C297.626 69.0078 296.853 69.0428 296.763 69.6078C296.689 70.0713 296.99 70.5038 296.409 70.3372" stroke="#CF965D" stroke-width="2" stroke-linecap="round"/>
<path d="M284.372 71.0468C284.298 71.8403 284.584 72.8478 285.3 73.2779C286.33 73.8966 288.716 73.161 289.45 72.286C289.566 72.1472 289.477 72.3504 289.48 72.4825C289.508 73.5358 289.972 74.5686 290.777 75.2672C291.664 76.038 293.133 76.5281 294.159 75.7169C294.544 75.4119 294.803 74.7983 294.997 74.3536" stroke="#CF965D" stroke-width="2" stroke-linecap="round"/>
<path d="M303.667 75.4092C306.433 76.2023 309.176 77.054 311.924 77.9068" stroke="#CF965D" stroke-width="2" stroke-linecap="round"/>
<path d="M303.871 78.3283C305.213 78.9369 306.566 79.5185 307.904 80.135" stroke="#CF965D" stroke-width="2" stroke-linecap="round"/>
<path d="M278.503 67.9334C276.679 67.6228 274.809 67.5307 272.964 67.4216C272.097 67.3703 271.058 67.218 270.211 67.3761" stroke="#CF965D" stroke-width="2" stroke-linecap="round"/>
<path d="M277.385 70.4736C276.024 70.3787 274.654 70.3615 273.291 70.3399C272.814 70.3324 272.263 70.2591 271.804 70.4339" stroke="#CF965D" stroke-width="2" stroke-linecap="round"/>
<path d="M269.614 98.9342C272.015 97.0969 274.317 95.1759 275.979 92.6102C278.493 88.7274 280.454 84.2827 282.065 79.9502C282.164 79.6829 282.893 78.2329 282.655 77.793C282.543 77.5864 281.881 77.483 281.695 77.4096C280.622 76.9842 279.757 76.0204 278.996 75.1835C277.553 73.5968 276.532 71.8115 276.077 69.6939C275.763 68.2348 276.029 67.0373 276.426 65.6545C276.676 64.7812 276.808 63.6416 277.335 62.8882C277.795 62.23 278.573 61.6365 279.201 61.1405C279.813 60.6574 280.093 59.9434 280.507 59.2826C281.809 57.2029 283.26 55.1966 284.411 53.0259C284.554 52.756 284.891 51.5773 285.356 51.6933C286.584 51.9993 287.221 52.9529 287.709 54.044C287.983 54.6559 288.413 56.7021 289.168 56.9185C291.48 57.5816 293.861 57.8816 296.096 58.8329C296.923 59.1852 297.856 59.7552 298.343 60.5463C298.665 61.0699 298.639 60.8966 299.36 60.6503C300.125 60.3894 308.419 56.7815 308.584 57.2051C309.026 58.3432 309.083 59.9308 309.09 61.1356C309.1 62.9118 308.589 64.662 308.207 66.3802C308 67.3134 308.52 68.3669 308.643 69.2938C308.802 70.4873 308.79 71.7529 308.594 72.9424C308.102 75.9324 306.757 78.3775 305.044 80.8106C304.498 81.5878 303.642 82.3011 303.38 83.2156C302.801 85.2319 302.345 87.2765 301.767 89.2914C300.854 92.4782 300.136 95.7987 298.956 98.8953C297.912 101.635 296.666 104.318 295.516 107.012" stroke="#CF965D" stroke-width="2" stroke-linecap="round"/>
<path d="M334.226 80.8345L332.533 81.5664C332.338 81.6507 332.181 81.6526 332.051 81.6154C331.994 81.5988 329.467 80.3437 330.306 77.4167C330.806 75.672 330.177 74.8204 329.138 74.5227L329.066 74.5021L327.565 79.7361C327.516 79.9091 327.349 80.0017 327.19 79.9562L324.306 79.1293C324.133 79.0797 324.041 78.9127 324.091 78.7397L327.473 66.945C327.518 66.7864 327.689 66.6794 327.862 66.729L330.746 67.556C330.905 67.6014 330.993 67.7828 330.948 67.9414L329.873 71.6904C330.05 71.7256 330.223 71.7752 330.381 71.8207C333.092 72.5979 334.792 74.8331 334.016 77.7004C333.762 78.6418 333.743 79.4165 334.288 80.1814C334.354 80.2783 334.471 80.468 334.426 80.6266C334.405 80.6987 334.351 80.7769 334.226 80.8345ZM338.694 83.1768L335.769 82.494L335.74 82.4858C335.581 82.4403 335.503 82.2774 335.534 82.1147L337.187 74.9893C337.237 74.8163 337.389 74.7196 337.566 74.7548L340.492 75.4375L340.52 75.4458C340.665 75.4871 340.757 75.6541 340.716 75.7983L339.059 82.9381L339.05 82.9669C339.009 83.1111 338.842 83.2037 338.694 83.1768ZM341.703 73.2258C341.368 74.3937 340.144 75.0725 338.976 74.7376C337.793 74.3986 337.115 73.174 337.45 72.0061C337.789 70.8237 339.013 70.145 340.195 70.484C341.363 70.8189 342.042 72.0434 341.703 73.2258ZM345.136 80.2804L342.7 79.5817C342.527 79.532 342.434 79.3651 342.469 79.1879C342.751 77.8798 343.572 74.1986 344.128 72.2047C344.174 72.0461 344.33 71.935 344.503 71.9846L347.589 72.8694C347.849 72.9438 348.053 73.0491 347.395 75.3417C346.907 77.0431 346.151 78.8082 345.54 80.0686C345.462 80.2333 345.309 80.33 345.136 80.2804ZM342.526 84.6501C341.387 84.3235 340.728 83.136 341.055 81.9969C341.382 80.8579 342.569 80.1997 343.708 80.5263C344.833 80.8488 345.491 82.0362 345.164 83.1753C344.838 84.3144 343.65 84.9726 342.526 84.6501Z" fill="#CF965D"/>
<path d="M327.081 61.5657C325.656 62.1023 324.889 63.0276 323.998 64.2393C323.363 65.1026 322.758 65.9938 322.206 66.9129C322.067 67.1453 322.024 67.3828 321.769 67.4823C319.854 68.2294 317.955 69.0403 316.026 69.7462C315.692 69.8683 315.348 69.9468 315.012 70.0587C314.718 70.1568 315.535 70.3957 315.817 70.524C316.754 70.9498 317.731 71.3002 318.651 71.7601C319.009 71.9391 318.299 73.0836 318.234 73.4268C317.885 75.2633 317.962 77.4865 318.47 79.274C318.79 80.3997 319.318 81.368 320.081 82.2462C320.249 82.4389 320.363 82.5823 320.456 82.8157" stroke="#CF965D" stroke-width="2" stroke-linecap="round"/>
</g>
<g opacity="0.8">
<path d="M52.7915 91.3207L69.0737 133.43C69.27 133.938 69.8365 134.195 70.3481 134.009L74.7979 132.391C75.323 132.2 75.5898 131.616 75.3901 131.094L59.6085 89.8402C59.4604 89.4531 59.089 89.1975 58.6745 89.1975L57.656 89.1975C57.6436 89.1975 57.6312 89.1987 57.619 89.2011L57.0714 89.3107C55.549 89.6151 54.1085 90.2392 52.8451 91.1417C52.7884 91.1821 52.7664 91.2558 52.7915 91.3207Z" fill="#E2A567"/>
<path d="M36.1049 126.251L34.9662 124.518L35.7927 123.307L43.7832 119.201L80.7345 104.272L90.0885 101.37L91.5244 101.667L91.909 103.705L89.9514 105.373L89.1249 106.584L117.353 189.479L116.904 190.538L119.638 195.135L119.189 196.194L115.803 199.755L108.944 203.403L102.534 205.993L95.3698 208.887L88.2781 210.875L82.9918 210.818L81.933 210.369L81.0113 205.916L79.5755 205.619L39.7307 126.541L38.6719 126.091L36.1049 126.251Z" fill="#F6D193"/>
<ellipse cx="84.1569" cy="198.505" rx="4.47333" ry="4.47333" transform="rotate(-22 84.1569 198.505)" fill="#613201"/>
<ellipse cx="93.0624" cy="196.662" rx="4.47333" ry="4.47333" transform="rotate(-22 93.0624 196.662)" fill="#613201"/>
<ellipse cx="102.111" cy="193.006" rx="4.47333" ry="4.47333" transform="rotate(-22 102.111 193.006)" fill="#613201"/>
<ellipse cx="109.797" cy="188.146" rx="4.47333" ry="4.47333" transform="rotate(-22 109.797 188.146)" fill="#613201"/>
<ellipse cx="104.183" cy="180.765" rx="4.47333" ry="4.47333" transform="rotate(-22 104.183 180.765)" fill="#613201"/>
<ellipse cx="77.7438" cy="178.289" rx="4.47333" ry="4.47333" transform="rotate(-22 77.7438 178.289)" fill="#613201"/>
<ellipse cx="87.4867" cy="156.808" rx="4.47333" ry="4.47333" transform="rotate(-22 87.4867 156.808)" fill="#613201"/>
<ellipse cx="87.4482" cy="189.281" rx="4.47333" ry="4.47333" transform="rotate(-22 87.4482 189.281)" fill="#613201"/>
<ellipse cx="96.4974" cy="185.624" rx="4.47333" ry="4.47333" transform="rotate(-22 96.4974 185.624)" fill="#613201"/>
<path d="M80.1049 205.844L81.933 210.369L82.9918 210.818L88.2781 210.875L95.3698 208.887L102.534 205.993L108.944 203.403L115.803 199.755L119.189 196.194L119.638 195.135L117.129 190.008L109.523 196.152L102.511 199.423L97.2323 201.556L86.1454 205.597L80.1049 205.844Z" fill="url(#paint0_linear_85_674)"/>
<path d="M34.9662 124.518L36.1049 126.251L40.702 123.517L53.5942 117.431L72.4469 109.814L86.3256 105.083L91.909 103.705L91.5244 101.667L90.0885 101.37L80.7345 104.272L43.7832 119.201L35.7927 123.307L34.9662 124.518Z" fill="url(#paint1_linear_85_674)"/>
<mask id="mask0_85_674" style="mask-type:alpha" maskUnits="userSpaceOnUse" x="34" y="100" width="87" height="112">
<path d="M36.1049 126.251L34.9662 124.518L35.7927 123.307L43.7832 119.201L80.7345 104.272L90.0885 101.37L91.5244 101.667L91.909 103.705L89.9514 105.373L89.1249 106.584L117.353 189.479L116.904 190.538L119.638 195.135L119.189 196.194L115.803 199.755L108.944 203.403L102.534 205.993L95.3698 208.887L88.2781 210.875L82.9918 210.818L81.933 210.369L81.0113 205.916L79.5755 205.619L39.7307 126.541L38.6719 126.091L36.1049 126.251Z" fill="#F6D193" stroke="black"/>
</mask>
<g mask="url(#mask0_85_674)">
<g style="mix-blend-mode:soft-light">
<path d="M88.2936 221.209L32.542 116.281L58.9331 104.414L107.458 213.853L88.2936 221.209Z" fill="url(#paint2_linear_85_674)" fill-opacity="0.8"/>
</g>
<g style="mix-blend-mode:soft-light">
<path d="M118.738 209.534L78.2893 96.0494L71.0657 98.968L113.579 211.618L118.738 209.534Z" fill="url(#paint3_linear_85_674)" fill-opacity="0.39"/>
</g>
</g>
</g>
<mask id="path-29-outside-1_85_674" maskUnits="userSpaceOnUse" x="86" y="48" width="304" height="194" fill="black">
<rect fill="white" x="86" y="48" width="304" height="194"/>
<path d="M106.987 134.938L91.473 130.806C90.4687 130.479 89.793 129.452 90.0577 128.327L110.46 52.4876L110.519 52.305C110.816 51.392 111.905 50.8373 112.847 51.0427L131.404 56.0628L131.587 56.1221C132.591 56.4484 133.055 57.5075 132.82 58.5414L125.94 84.0647C129.765 84.0963 133.686 84.7648 137.521 86.0108C155.051 91.7066 163.084 106.127 157.744 122.561C152.345 139.178 134.031 146.148 118.053 140.956C114.127 139.68 110.439 137.674 106.987 134.938ZM121.157 101.891L116.228 120.478C117.632 121.439 119.033 122.096 120.494 122.571C126.885 124.647 133.148 121.837 135.165 115.628C136.441 111.702 136.541 104.871 129.054 102.438C126.407 101.578 123.492 101.54 121.157 101.891Z"/>
<path d="M220.839 92.8122C220.839 111.532 201.831 121.996 188.199 121.996C172.551 121.996 158.823 110.668 158.823 93.7722C158.823 73.9962 173.607 63.7242 190.503 63.7242C211.719 63.7242 220.839 80.3322 220.839 92.8122ZM190.503 103.66C197.319 103.66 200.391 98.0922 200.391 92.6202C200.391 90.7962 200.007 81.4842 190.215 81.4842C182.151 81.4842 179.847 88.3002 179.847 92.6202C179.847 99.2442 185.031 103.66 190.503 103.66Z"/>
<path d="M232.708 141.677L216.943 138.637C215.918 138.381 215.173 137.404 215.358 136.263L230.421 59.1853L230.467 58.999C230.699 58.0675 231.747 57.4382 232.701 57.5773L251.563 61.2907L251.75 61.3372C252.774 61.5926 253.31 62.6168 253.148 63.6646L248.065 89.6056C251.884 89.3703 255.842 89.7636 259.754 90.7391C277.639 95.1982 286.658 109.023 282.478 125.79C278.251 142.743 260.468 150.973 244.167 146.909C240.161 145.91 236.342 144.166 232.708 141.677ZM244.538 107.722L240.917 126.607C242.385 127.468 243.829 128.026 245.319 128.397C251.84 130.023 257.891 126.783 259.47 120.449C260.469 116.444 260.092 109.622 252.454 107.717C249.753 107.044 246.842 107.209 244.538 107.722Z"/>
<path d="M354.169 126.963L352.776 139.94C352.554 141.774 351.967 142.924 350.802 143.371C349.906 143.715 343.082 144.69 336.984 142.198C333.252 146.406 328.825 149.34 324.254 151.094C309.287 156.84 291.978 150.322 286.439 135.892C282.31 125.138 283.977 106.708 301.722 99.8965C306.203 98.1763 310.973 97.4764 315.054 97.6583C315.35 96.8245 316.054 96.246 317.129 95.8331L317.577 95.6611L333.598 91.0537C335.997 90.3385 337.072 91.2628 337.485 92.3382L337.657 92.7864C339.533 101.424 341.271 109.703 343.542 115.618C345.606 120.995 348.071 124.471 351.524 124.893C352.592 124.997 353.785 125.157 354.129 126.053C354.197 126.232 354.211 126.535 354.169 126.963ZM325.398 130.5C324.235 128.273 323.092 125.833 322.026 123.054C321.131 120.724 320.292 118.27 319.439 115.512C317.676 114.133 314.774 113.807 312.175 114.805C306.529 116.972 305.491 123.643 307.245 128.214C309.172 133.233 314.318 136.193 320.144 133.957C321.847 133.303 323.681 132.188 325.398 130.5Z"/>
<path d="M176.275 194.722L169.086 205.639C168.013 207.302 166.901 208.081 165.482 207.831C165.482 207.831 157.502 205.547 153.141 199.319C147.33 201.316 141.613 201.673 136.413 200.756C120.625 197.972 109.239 183.487 111.923 168.266C113.957 156.731 124.844 141.982 143.563 145.283C147.628 145.999 151.543 147.567 154.73 149.396L160.9 124.359C161.278 122.769 162.957 122.09 164.848 122.423L181.153 125.591C183.801 126.058 184.34 127.42 184.107 128.744L184.057 129.027C183.651 130.223 173.674 169.113 172.524 175.637C171.157 183.389 171.275 189.356 174.851 191.741C175.807 192.398 176.764 193.054 176.614 193.904C176.564 194.188 176.514 194.472 176.275 194.722ZM149.029 183.387C149.118 179.016 149.623 173.938 150.69 167.888C149.983 165.813 147.57 164.023 144.733 163.523C139.061 162.523 134.551 167.089 133.618 172.383C132.684 177.678 135.571 182.866 141.622 183.933C143.702 184.299 146.165 184.149 149.029 183.387Z"/>
<path d="M212.957 200.109L194.253 204.141C193.116 204.321 192.047 203.713 191.867 202.575L181.403 153.69C181.223 152.552 181.926 151.469 182.969 151.304L193.878 148.993C198.743 146.57 203.553 145.03 208.294 144.279C211.518 143.769 214.707 143.653 217.751 143.851C219.234 144.005 219.923 144.673 220.103 145.811C220.163 146.19 220.128 146.585 220.108 147.074L219.476 160.879C219.402 162.251 218.559 163.065 217.421 163.245C217.137 163.29 216.742 163.255 216.348 163.221C214.756 162.987 213.099 162.958 211.487 163.213C210.16 163.423 208.862 163.823 207.405 164.443L214.523 197.723L214.553 197.913C214.718 198.956 214 199.944 212.957 200.109Z"/>
<path d="M278.839 179.812C278.839 198.532 259.831 208.996 246.199 208.996C230.551 208.996 216.823 197.668 216.823 180.772C216.823 160.996 231.607 150.724 248.503 150.724C269.719 150.724 278.839 167.332 278.839 179.812ZM248.503 190.66C255.319 190.66 258.391 185.092 258.391 179.62C258.391 177.796 258.007 168.484 248.215 168.484C240.151 168.484 237.847 175.3 237.847 179.62C237.847 186.244 243.031 190.66 248.503 190.66Z"/>
<path d="M302.873 238.115L283.648 237.73C282.689 237.764 281.795 236.93 281.758 235.875L281.751 235.683L282.942 159.755C283.001 158.697 283.835 157.803 284.794 157.769L284.986 157.763L301.038 158.067C305.11 156.388 309.305 155.473 313.334 155.332C330.22 154.742 345.808 166.493 346.418 183.955C347.027 201.416 335.036 212.882 316.903 213.515C312.874 213.656 308.92 213.217 305.33 212.19L304.917 236.123C304.861 237.278 304.024 238.075 302.873 238.115ZM305.955 175.089L305.57 194.315C307.718 195.296 310.527 195.967 313.213 195.873C313.981 195.846 323.191 195.524 322.823 184.971C322.591 178.351 317.442 173.92 310.726 174.154C309.191 174.208 307.57 174.553 305.955 175.089Z"/>
<path d="M362.666 199.831L361.661 200.157C359.653 200.81 358.621 200.741 357.569 199.367L350.111 190.081C349.93 189.837 349.75 189.593 349.691 189.41C349.246 188.041 351.012 187.265 352.108 186.909C357.465 185.067 359.191 181.68 358.479 179.489C358.093 178.302 356.432 177.227 354.619 175.999L351.264 174.061C345.764 170.801 342.845 167.409 341.717 163.939C338.365 153.622 351.467 143.309 363.428 139.422C366.989 138.265 368.02 138.334 369.193 139.77L376.743 149.026C377.044 149.332 377.133 149.606 377.222 149.88C377.549 150.884 376.663 151.575 375.476 151.961L375.111 152.08C369.633 153.86 368.126 156.368 368.72 158.194C369.224 159.746 371.157 161.036 375.873 163.743C381.556 166.944 384.717 170.459 385.844 173.928C389.345 184.702 374.9 195.855 362.666 199.831Z"/>
</mask>
<path d="M106.987 134.938L91.473 130.806C90.4687 130.479 89.793 129.452 90.0577 128.327L110.46 52.4876L110.519 52.305C110.816 51.392 111.905 50.8373 112.847 51.0427L131.404 56.0628L131.587 56.1221C132.591 56.4484 133.055 57.5075 132.82 58.5414L125.94 84.0647C129.765 84.0963 133.686 84.7648 137.521 86.0108C155.051 91.7066 163.084 106.127 157.744 122.561C152.345 139.178 134.031 146.148 118.053 140.956C114.127 139.68 110.439 137.674 106.987 134.938ZM121.157 101.891L116.228 120.478C117.632 121.439 119.033 122.096 120.494 122.571C126.885 124.647 133.148 121.837 135.165 115.628C136.441 111.702 136.541 104.871 129.054 102.438C126.407 101.578 123.492 101.54 121.157 101.891Z" fill="#F6D193"/>
<path d="M220.839 92.8122C220.839 111.532 201.831 121.996 188.199 121.996C172.551 121.996 158.823 110.668 158.823 93.7722C158.823 73.9962 173.607 63.7242 190.503 63.7242C211.719 63.7242 220.839 80.3322 220.839 92.8122ZM190.503 103.66C197.319 103.66 200.391 98.0922 200.391 92.6202C200.391 90.7962 200.007 81.4842 190.215 81.4842C182.151 81.4842 179.847 88.3002 179.847 92.6202C179.847 99.2442 185.031 103.66 190.503 103.66Z" fill="#F6D193"/>
<path d="M232.708 141.677L216.943 138.637C215.918 138.381 215.173 137.404 215.358 136.263L230.421 59.1853L230.467 58.999C230.699 58.0675 231.747 57.4382 232.701 57.5773L251.563 61.2907L251.75 61.3372C252.774 61.5926 253.31 62.6168 253.148 63.6646L248.065 89.6056C251.884 89.3703 255.842 89.7636 259.754 90.7391C277.639 95.1982 286.658 109.023 282.478 125.79C278.251 142.743 260.468 150.973 244.167 146.909C240.161 145.91 236.342 144.166 232.708 141.677ZM244.538 107.722L240.917 126.607C242.385 127.468 243.829 128.026 245.319 128.397C251.84 130.023 257.891 126.783 259.47 120.449C260.469 116.444 260.092 109.622 252.454 107.717C249.753 107.044 246.842 107.209 244.538 107.722Z" fill="#F6D193"/>
<path d="M354.169 126.963L352.776 139.94C352.554 141.774 351.967 142.924 350.802 143.371C349.906 143.715 343.082 144.69 336.984 142.198C333.252 146.406 328.825 149.34 324.254 151.094C309.287 156.84 291.978 150.322 286.439 135.892C282.31 125.138 283.977 106.708 301.722 99.8965C306.203 98.1763 310.973 97.4764 315.054 97.6583C315.35 96.8245 316.054 96.246 317.129 95.8331L317.577 95.6611L333.598 91.0537C335.997 90.3385 337.072 91.2628 337.485 92.3382L337.657 92.7864C339.533 101.424 341.271 109.703 343.542 115.618C345.606 120.995 348.071 124.471 351.524 124.893C352.592 124.997 353.785 125.157 354.129 126.053C354.197 126.232 354.211 126.535 354.169 126.963ZM325.398 130.5C324.235 128.273 323.092 125.833 322.026 123.054C321.131 120.724 320.292 118.27 319.439 115.512C317.676 114.133 314.774 113.807 312.175 114.805C306.529 116.972 305.491 123.643 307.245 128.214C309.172 133.233 314.318 136.193 320.144 133.957C321.847 133.303 323.681 132.188 325.398 130.5Z" fill="#F6D193"/>
<path d="M176.275 194.722L169.086 205.639C168.013 207.302 166.901 208.081 165.482 207.831C165.482 207.831 157.502 205.547 153.141 199.319C147.33 201.316 141.613 201.673 136.413 200.756C120.625 197.972 109.239 183.487 111.923 168.266C113.957 156.731 124.844 141.982 143.563 145.283C147.628 145.999 151.543 147.567 154.73 149.396L160.9 124.359C161.278 122.769 162.957 122.09 164.848 122.423L181.153 125.591C183.801 126.058 184.34 127.42 184.107 128.744L184.057 129.027C183.651 130.223 173.674 169.113 172.524 175.637C171.157 183.389 171.275 189.356 174.851 191.741C175.807 192.398 176.764 193.054 176.614 193.904C176.564 194.188 176.514 194.472 176.275 194.722ZM149.029 183.387C149.118 179.016 149.623 173.938 150.69 167.888C149.983 165.813 147.57 164.023 144.733 163.523C139.061 162.523 134.551 167.089 133.618 172.383C132.684 177.678 135.571 182.866 141.622 183.933C143.702 184.299 146.165 184.149 149.029 183.387Z" fill="#F6D193"/>
<path d="M212.957 200.109L194.253 204.141C193.116 204.321 192.047 203.713 191.867 202.575L181.403 153.69C181.223 152.552 181.926 151.469 182.969 151.304L193.878 148.993C198.743 146.57 203.553 145.03 208.294 144.279C211.518 143.769 214.707 143.653 217.751 143.851C219.234 144.005 219.923 144.673 220.103 145.811C220.163 146.19 220.128 146.585 220.108 147.074L219.476 160.879C219.402 162.251 218.559 163.065 217.421 163.245C217.137 163.29 216.742 163.255 216.348 163.221C214.756 162.987 213.099 162.958 211.487 163.213C210.16 163.423 208.862 163.823 207.405 164.443L214.523 197.723L214.553 197.913C214.718 198.956 214 199.944 212.957 200.109Z" fill="#F6D193"/>
<path d="M278.839 179.812C278.839 198.532 259.831 208.996 246.199 208.996C230.551 208.996 216.823 197.668 216.823 180.772C216.823 160.996 231.607 150.724 248.503 150.724C269.719 150.724 278.839 167.332 278.839 179.812ZM248.503 190.66C255.319 190.66 258.391 185.092 258.391 179.62C258.391 177.796 258.007 168.484 248.215 168.484C240.151 168.484 237.847 175.3 237.847 179.62C237.847 186.244 243.031 190.66 248.503 190.66Z" fill="#F6D193"/>
<path d="M302.873 238.115L283.648 237.73C282.689 237.764 281.795 236.93 281.758 235.875L281.751 235.683L282.942 159.755C283.001 158.697 283.835 157.803 284.794 157.769L284.986 157.763L301.038 158.067C305.11 156.388 309.305 155.473 313.334 155.332C330.22 154.742 345.808 166.493 346.418 183.955C347.027 201.416 335.036 212.882 316.903 213.515C312.874 213.656 308.92 213.217 305.33 212.19L304.917 236.123C304.861 237.278 304.024 238.075 302.873 238.115ZM305.955 175.089L305.57 194.315C307.718 195.296 310.527 195.967 313.213 195.873C313.981 195.846 323.191 195.524 322.823 184.971C322.591 178.351 317.442 173.92 310.726 174.154C309.191 174.208 307.57 174.553 305.955 175.089Z" fill="#F6D193"/>
<path d="M362.666 199.831L361.661 200.157C359.653 200.81 358.621 200.741 357.569 199.367L350.111 190.081C349.93 189.837 349.75 189.593 349.691 189.41C349.246 188.041 351.012 187.265 352.108 186.909C357.465 185.067 359.191 181.68 358.479 179.489C358.093 178.302 356.432 177.227 354.619 175.999L351.264 174.061C345.764 170.801 342.845 167.409 341.717 163.939C338.365 153.622 351.467 143.309 363.428 139.422C366.989 138.265 368.02 138.334 369.193 139.77L376.743 149.026C377.044 149.332 377.133 149.606 377.222 149.88C377.549 150.884 376.663 151.575 375.476 151.961L375.111 152.08C369.633 153.86 368.126 156.368 368.72 158.194C369.224 159.746 371.157 161.036 375.873 163.743C381.556 166.944 384.717 170.459 385.844 173.928C389.345 184.702 374.9 195.855 362.666 199.831Z" fill="#F6D193"/>
<path d="M106.987 134.938L91.473 130.806C90.4687 130.479 89.793 129.452 90.0577 128.327L110.46 52.4876L110.519 52.305C110.816 51.392 111.905 50.8373 112.847 51.0427L131.404 56.0628L131.587 56.1221C132.591 56.4484 133.055 57.5075 132.82 58.5414L125.94 84.0647C129.765 84.0963 133.686 84.7648 137.521 86.0108C155.051 91.7066 163.084 106.127 157.744 122.561C152.345 139.178 134.031 146.148 118.053 140.956C114.127 139.68 110.439 137.674 106.987 134.938ZM121.157 101.891L116.228 120.478C117.632 121.439 119.033 122.096 120.494 122.571C126.885 124.647 133.148 121.837 135.165 115.628C136.441 111.702 136.541 104.871 129.054 102.438C126.407 101.578 123.492 101.54 121.157 101.891Z" stroke="#AA5906" stroke-width="6" mask="url(#path-29-outside-1_85_674)"/>
<path d="M220.839 92.8122C220.839 111.532 201.831 121.996 188.199 121.996C172.551 121.996 158.823 110.668 158.823 93.7722C158.823 73.9962 173.607 63.7242 190.503 63.7242C211.719 63.7242 220.839 80.3322 220.839 92.8122ZM190.503 103.66C197.319 103.66 200.391 98.0922 200.391 92.6202C200.391 90.7962 200.007 81.4842 190.215 81.4842C182.151 81.4842 179.847 88.3002 179.847 92.6202C179.847 99.2442 185.031 103.66 190.503 103.66Z" stroke="#AA5906" stroke-width="6" mask="url(#path-29-outside-1_85_674)"/>
<path d="M232.708 141.677L216.943 138.637C215.918 138.381 215.173 137.404 215.358 136.263L230.421 59.1853L230.467 58.999C230.699 58.0675 231.747 57.4382 232.701 57.5773L251.563 61.2907L251.75 61.3372C252.774 61.5926 253.31 62.6168 253.148 63.6646L248.065 89.6056C251.884 89.3703 255.842 89.7636 259.754 90.7391C277.639 95.1982 286.658 109.023 282.478 125.79C278.251 142.743 260.468 150.973 244.167 146.909C240.161 145.91 236.342 144.166 232.708 141.677ZM244.538 107.722L240.917 126.607C242.385 127.468 243.829 128.026 245.319 128.397C251.84 130.023 257.891 126.783 259.47 120.449C260.469 116.444 260.092 109.622 252.454 107.717C249.753 107.044 246.842 107.209 244.538 107.722Z" stroke="#AA5906" stroke-width="6" mask="url(#path-29-outside-1_85_674)"/>
<path d="M354.169 126.963L352.776 139.94C352.554 141.774 351.967 142.924 350.802 143.371C349.906 143.715 343.082 144.69 336.984 142.198C333.252 146.406 328.825 149.34 324.254 151.094C309.287 156.84 291.978 150.322 286.439 135.892C282.31 125.138 283.977 106.708 301.722 99.8965C306.203 98.1763 310.973 97.4764 315.054 97.6583C315.35 96.8245 316.054 96.246 317.129 95.8331L317.577 95.6611L333.598 91.0537C335.997 90.3385 337.072 91.2628 337.485 92.3382L337.657 92.7864C339.533 101.424 341.271 109.703 343.542 115.618C345.606 120.995 348.071 124.471 351.524 124.893C352.592 124.997 353.785 125.157 354.129 126.053C354.197 126.232 354.211 126.535 354.169 126.963ZM325.398 130.5C324.235 128.273 323.092 125.833 322.026 123.054C321.131 120.724 320.292 118.27 319.439 115.512C317.676 114.133 314.774 113.807 312.175 114.805C306.529 116.972 305.491 123.643 307.245 128.214C309.172 133.233 314.318 136.193 320.144 133.957C321.847 133.303 323.681 132.188 325.398 130.5Z" stroke="#AA5906" stroke-width="6" mask="url(#path-29-outside-1_85_674)"/>
<path d="M176.275 194.722L169.086 205.639C168.013 207.302 166.901 208.081 165.482 207.831C165.482 207.831 157.502 205.547 153.141 199.319C147.33 201.316 141.613 201.673 136.413 200.756C120.625 197.972 109.239 183.487 111.923 168.266C113.957 156.731 124.844 141.982 143.563 145.283C147.628 145.999 151.543 147.567 154.73 149.396L160.9 124.359C161.278 122.769 162.957 122.09 164.848 122.423L181.153 125.591C183.801 126.058 184.34 127.42 184.107 128.744L184.057 129.027C183.651 130.223 173.674 169.113 172.524 175.637C171.157 183.389 171.275 189.356 174.851 191.741C175.807 192.398 176.764 193.054 176.614 193.904C176.564 194.188 176.514 194.472 176.275 194.722ZM149.029 183.387C149.118 179.016 149.623 173.938 150.69 167.888C149.983 165.813 147.57 164.023 144.733 163.523C139.061 162.523 134.551 167.089 133.618 172.383C132.684 177.678 135.571 182.866 141.622 183.933C143.702 184.299 146.165 184.149 149.029 183.387Z" stroke="#AA5906" stroke-width="6" mask="url(#path-29-outside-1_85_674)"/>
<path d="M212.957 200.109L194.253 204.141C193.116 204.321 192.047 203.713 191.867 202.575L181.403 153.69C181.223 152.552 181.926 151.469 182.969 151.304L193.878 148.993C198.743 146.57 203.553 145.03 208.294 144.279C211.518 143.769 214.707 143.653 217.751 143.851C219.234 144.005 219.923 144.673 220.103 145.811C220.163 146.19 220.128 146.585 220.108 147.074L219.476 160.879C219.402 162.251 218.559 163.065 217.421 163.245C217.137 163.29 216.742 163.255 216.348 163.221C214.756 162.987 213.099 162.958 211.487 163.213C210.16 163.423 208.862 163.823 207.405 164.443L214.523 197.723L214.553 197.913C214.718 198.956 214 199.944 212.957 200.109Z" stroke="#AA5906" stroke-width="6" mask="url(#path-29-outside-1_85_674)"/>
<path d="M278.839 179.812C278.839 198.532 259.831 208.996 246.199 208.996C230.551 208.996 216.823 197.668 216.823 180.772C216.823 160.996 231.607 150.724 248.503 150.724C269.719 150.724 278.839 167.332 278.839 179.812ZM248.503 190.66C255.319 190.66 258.391 185.092 258.391 179.62C258.391 177.796 258.007 168.484 248.215 168.484C240.151 168.484 237.847 175.3 237.847 179.62C237.847 186.244 243.031 190.66 248.503 190.66Z" stroke="#AA5906" stroke-width="6" mask="url(#path-29-outside-1_85_674)"/>
<path d="M302.873 238.115L283.648 237.73C282.689 237.764 281.795 236.93 281.758 235.875L281.751 235.683L282.942 159.755C283.001 158.697 283.835 157.803 284.794 157.769L284.986 157.763L301.038 158.067C305.11 156.388 309.305 155.473 313.334 155.332C330.22 154.742 345.808 166.493 346.418 183.955C347.027 201.416 335.036 212.882 316.903 213.515C312.874 213.656 308.92 213.217 305.33 212.19L304.917 236.123C304.861 237.278 304.024 238.075 302.873 238.115ZM305.955 175.089L305.57 194.315C307.718 195.296 310.527 195.967 313.213 195.873C313.981 195.846 323.191 195.524 322.823 184.971C322.591 178.351 317.442 173.92 310.726 174.154C309.191 174.208 307.57 174.553 305.955 175.089Z" stroke="#AA5906" stroke-width="6" mask="url(#path-29-outside-1_85_674)"/>
<path d="M362.666 199.831L361.661 200.157C359.653 200.81 358.621 200.741 357.569 199.367L350.111 190.081C349.93 189.837 349.75 189.593 349.691 189.41C349.246 188.041 351.012 187.265 352.108 186.909C357.465 185.067 359.191 181.68 358.479 179.489C358.093 178.302 356.432 177.227 354.619 175.999L351.264 174.061C345.764 170.801 342.845 167.409 341.717 163.939C338.365 153.622 351.467 143.309 363.428 139.422C366.989 138.265 368.02 138.334 369.193 139.77L376.743 149.026C377.044 149.332 377.133 149.606 377.222 149.88C377.549 150.884 376.663 151.575 375.476 151.961L375.111 152.08C369.633 153.86 368.126 156.368 368.72 158.194C369.224 159.746 371.157 161.036 375.873 163.743C381.556 166.944 384.717 170.459 385.844 173.928C389.345 184.702 374.9 195.855 362.666 199.831Z" stroke="#AA5906" stroke-width="6" mask="url(#path-29-outside-1_85_674)"/>
<mask id="mask1_85_674" style="mask-type:alpha" maskUnits="userSpaceOnUse" x="90" y="51" width="297" height="188">
<path d="M106.987 134.938L91.473 130.806C90.4687 130.479 89.793 129.452 90.0577 128.327L110.46 52.4876L110.519 52.305C110.816 51.392 111.905 50.8373 112.847 51.0427L131.404 56.0628L131.587 56.1221C132.591 56.4484 133.055 57.5075 132.82 58.5414L125.94 84.0647C129.765 84.0963 133.686 84.7648 137.521 86.0108C155.051 91.7066 163.084 106.127 157.744 122.561C152.345 139.178 134.031 146.148 118.053 140.956C114.127 139.68 110.439 137.674 106.987 134.938ZM121.157 101.891L116.228 120.478C117.632 121.439 119.033 122.096 120.494 122.571C126.885 124.647 133.148 121.837 135.165 115.628C136.441 111.702 136.541 104.871 129.054 102.438C126.407 101.578 123.492 101.54 121.157 101.891Z" fill="#F6D193"/>
<path d="M220.839 92.8122C220.839 111.532 201.831 121.996 188.199 121.996C172.551 121.996 158.823 110.668 158.823 93.7722C158.823 73.9962 173.607 63.7242 190.503 63.7242C211.719 63.7242 220.839 80.3322 220.839 92.8122ZM190.503 103.66C197.319 103.66 200.391 98.0922 200.391 92.6202C200.391 90.7962 200.007 81.4842 190.215 81.4842C182.151 81.4842 179.847 88.3002 179.847 92.6202C179.847 99.2442 185.031 103.66 190.503 103.66Z" fill="#F6D193"/>
<path d="M232.708 141.677L216.943 138.637C215.918 138.381 215.173 137.404 215.358 136.263L230.421 59.1853L230.467 58.999C230.699 58.0675 231.747 57.4382 232.701 57.5773L251.563 61.2907L251.75 61.3372C252.774 61.5926 253.31 62.6168 253.148 63.6646L248.065 89.6056C251.884 89.3703 255.842 89.7636 259.754 90.7391C277.639 95.1982 286.658 109.023 282.478 125.79C278.251 142.743 260.468 150.973 244.167 146.909C240.161 145.91 236.342 144.166 232.708 141.677ZM244.538 107.722L240.917 126.607C242.385 127.468 243.829 128.026 245.319 128.397C251.84 130.023 257.891 126.783 259.47 120.449C260.469 116.444 260.092 109.622 252.454 107.717C249.753 107.044 246.842 107.209 244.538 107.722Z" fill="#F6D193"/>
<path d="M354.169 126.963L352.776 139.94C352.554 141.774 351.967 142.924 350.802 143.371C349.906 143.715 343.082 144.69 336.984 142.198C333.252 146.406 328.825 149.34 324.254 151.094C309.287 156.84 291.978 150.322 286.439 135.892C282.31 125.138 283.977 106.708 301.722 99.8965C306.203 98.1763 310.973 97.4764 315.054 97.6583C315.35 96.8245 316.054 96.246 317.129 95.8331L317.577 95.6611L333.598 91.0537C335.997 90.3385 337.072 91.2628 337.485 92.3382L337.657 92.7864C339.533 101.424 341.271 109.703 343.542 115.618C345.606 120.995 348.071 124.471 351.524 124.893C352.592 124.997 353.785 125.157 354.129 126.053C354.197 126.232 354.211 126.535 354.169 126.963ZM325.398 130.5C324.235 128.273 323.092 125.833 322.026 123.054C321.131 120.724 320.292 118.27 319.439 115.512C317.676 114.133 314.774 113.807 312.175 114.805C306.529 116.972 305.491 123.643 307.245 128.214C309.172 133.233 314.318 136.193 320.144 133.957C321.847 133.303 323.681 132.188 325.398 130.5Z" fill="#F6D193"/>
<path d="M176.275 194.722L169.086 205.639C168.013 207.302 166.901 208.081 165.482 207.831C165.482 207.831 157.502 205.547 153.141 199.319C147.33 201.316 141.613 201.673 136.413 200.756C120.625 197.972 109.239 183.487 111.923 168.266C113.957 156.731 124.844 141.982 143.563 145.283C147.628 145.999 151.543 147.567 154.73 149.396L160.9 124.359C161.278 122.769 162.957 122.09 164.848 122.423L181.153 125.591C183.801 126.058 184.34 127.42 184.107 128.744L184.057 129.027C183.651 130.223 173.674 169.113 172.524 175.637C171.157 183.389 171.275 189.356 174.851 191.741C175.807 192.398 176.764 193.054 176.614 193.904C176.564 194.188 176.514 194.472 176.275 194.722ZM149.029 183.387C149.118 179.016 149.623 173.938 150.69 167.888C149.983 165.813 147.57 164.023 144.733 163.523C139.061 162.523 134.551 167.089 133.618 172.383C132.684 177.678 135.571 182.866 141.622 183.933C143.702 184.299 146.165 184.149 149.029 183.387Z" fill="#F6D193"/>
<path d="M212.957 200.109L194.253 204.141C193.116 204.321 192.047 203.713 191.867 202.575L181.403 153.69C181.223 152.552 181.926 151.469 182.969 151.304L193.878 148.993C198.743 146.57 203.553 145.03 208.294 144.279C211.518 143.769 214.707 143.653 217.751 143.851C219.234 144.005 219.923 144.673 220.103 145.811C220.163 146.19 220.128 146.585 220.108 147.074L219.476 160.879C219.402 162.251 218.559 163.065 217.421 163.245C217.137 163.29 216.742 163.255 216.348 163.221C214.756 162.987 213.099 162.958 211.487 163.213C210.16 163.423 208.862 163.823 207.405 164.443L214.523 197.723L214.553 197.913C214.718 198.956 214 199.944 212.957 200.109Z" fill="#F6D193"/>
<path d="M278.839 179.812C278.839 198.532 259.831 208.996 246.199 208.996C230.551 208.996 216.823 197.668 216.823 180.772C216.823 160.996 231.607 150.724 248.503 150.724C269.719 150.724 278.839 167.332 278.839 179.812ZM248.503 190.66C255.319 190.66 258.391 185.092 258.391 179.62C258.391 177.796 258.007 168.484 248.215 168.484C240.151 168.484 237.847 175.3 237.847 179.62C237.847 186.244 243.031 190.66 248.503 190.66Z" fill="#F6D193"/>
<path d="M302.873 238.115L283.648 237.73C282.689 237.764 281.795 236.93 281.758 235.875L281.751 235.683L282.942 159.755C283.001 158.697 283.835 157.803 284.794 157.769L284.986 157.763L301.038 158.067C305.11 156.388 309.305 155.473 313.334 155.332C330.22 154.742 345.808 166.493 346.418 183.955C347.027 201.416 335.036 212.882 316.903 213.515C312.874 213.656 308.92 213.217 305.33 212.19L304.917 236.123C304.861 237.278 304.024 238.075 302.873 238.115ZM305.955 175.089L305.57 194.315C307.718 195.296 310.527 195.967 313.213 195.873C313.981 195.846 323.191 195.524 322.823 184.971C322.591 178.351 317.442 173.92 310.726 174.154C309.191 174.208 307.57 174.553 305.955 175.089Z" fill="#F6D193"/>
<path d="M362.666 199.831L361.661 200.157C359.653 200.81 358.621 200.741 357.569 199.367L350.111 190.081C349.93 189.837 349.75 189.593 349.691 189.41C349.246 188.041 351.012 187.265 352.108 186.909C357.465 185.067 359.191 181.68 358.479 179.489C358.093 178.302 356.432 177.227 354.619 175.999L351.264 174.061C345.764 170.801 342.845 167.409 341.717 163.939C338.365 153.622 351.467 143.309 363.428 139.422C366.989 138.265 368.02 138.334 369.193 139.77L376.743 149.026C377.044 149.332 377.133 149.606 377.222 149.88C377.549 150.884 376.663 151.575 375.476 151.961L375.111 152.08C369.633 153.86 368.126 156.368 368.72 158.194C369.224 159.746 371.157 161.036 375.873 163.743C381.556 166.944 384.717 170.459 385.844 173.928C389.345 184.702 374.9 195.855 362.666 199.831Z" fill="#F6D193"/>
</mask>
<g mask="url(#mask1_85_674)">
<path d="M158.729 19.7055L127.64 13.6885C123.651 12.9163 119.519 13.4341 115.843 15.167L102.202 21.5974C95.1484 24.9229 94.2511 34.598 100.573 39.164C103.059 40.9594 104.61 43.774 104.799 46.8345L106.75 78.3798C107.223 86.0221 111.217 93.0118 117.562 97.2986C122.966 100.95 126.568 106.637 128.298 112.926C130.812 122.067 133.077 125.346 134 127.5C134.765 129.285 146.005 141.193 156.341 147.127C165.009 152.104 176.843 149.091 186.787 150.096L202.746 151.71C209.988 152.443 215.5 158.54 215.5 165.819C215.5 173.651 221.849 180 229.681 180H244.285C254.079 180 263.173 185.045 269.75 192.303C279.531 203.094 291.268 213.268 293 215C294.362 216.362 301.152 221.704 308.204 224.763C317.062 228.605 327.931 225.288 337.573 225.8L359.349 226.957C370.885 227.569 381.346 220.22 384.682 209.16C390.421 190.129 372.79 172.307 353.699 177.841L350.508 178.766C338.048 182.377 324.787 176.574 318.986 164.971L315.421 157.842C313.816 154.632 311.74 151.68 309.262 149.084L308.341 148.119C304.513 144.109 301.793 139.172 300.448 133.793L300.289 133.156C297.908 123.633 291.117 115.824 282.016 112.145C276.149 109.773 269.692 109.273 263.53 110.713L238.181 116.635C226.504 119.364 214.236 116.099 205.459 107.928L195.561 98.7115C192.217 95.599 189.497 91.8786 187.545 87.749L179.947 71.6768C178.366 68.3321 175.661 65.6486 172.304 64.0943L167.771 61.9959C159.607 58.2161 157.982 47.3119 164.689 41.3156C172.404 34.4191 168.888 21.6719 158.729 19.7055Z" fill="#FFDEA7"/>
</g>
<path d="M386.011 118.296C386.262 117.042 387.289 111.532 387.289 112.032C388.097 112.436 389.148 116.289 389.289 117.032C389.789 119.032 390.289 120.032 391.289 122.532C392.091 124.537 393.286 126.487 394.15 127.81C395.778 130.3 396.789 131.032 398.97 132.796C400.075 133.117 403.243 133.565 402.192 134.032C401.861 134.179 401.5 134.464 401.178 134.643C398.194 136.306 396.026 138.74 394.15 141.5C392.903 143.336 391.547 145.546 390.5 147.5C389.613 149.156 388.676 151.144 387.845 152.838C386.962 154.637 386.034 156.554 385.539 158.504C385.297 159.46 385.039 162.407 385.039 161.421C385.039 156.352 385.198 151.498 383.914 146.56C383.4 144.581 382.606 142.215 381.539 140.463C380.449 138.671 378.619 137.25 377.4 135.504C376.245 133.85 374.38 132.418 372.317 132.074C372.078 132.034 370.87 132.037 371.011 132.018C372.184 131.862 373.368 131.828 374.539 131.671C377.702 131.248 379.493 130.251 381.4 127.81C382.536 126.356 383.187 125.045 383.984 123.393C384.739 121.826 385.669 120.006 386.011 118.296Z" stroke="#E2A567" stroke-width="3" stroke-linecap="round"/>
<path d="M373.78 106.005C373.86 105.606 374.187 103.851 374.187 104.01C374.445 104.139 374.779 105.366 374.824 105.602C374.983 106.239 375.143 106.558 375.461 107.354C375.716 107.992 376.097 108.613 376.372 109.035C376.89 109.828 377.212 110.061 377.907 110.622C378.259 110.724 379.268 110.867 378.933 111.016C378.828 111.063 378.713 111.153 378.61 111.211C377.66 111.74 376.969 112.515 376.372 113.394C375.975 113.979 375.543 114.683 375.21 115.305C374.927 115.832 374.629 116.465 374.364 117.004C374.083 117.577 373.787 118.188 373.63 118.809C373.553 119.113 373.471 120.052 373.471 119.738C373.471 118.123 373.521 116.578 373.112 115.005C372.949 114.375 372.696 113.622 372.356 113.064C372.009 112.493 371.426 112.041 371.038 111.485C370.67 110.958 370.076 110.502 369.419 110.392C369.343 110.38 368.959 110.381 369.004 110.375C369.377 110.325 369.754 110.314 370.127 110.264C371.134 110.129 371.705 109.812 372.312 109.035C372.674 108.572 372.881 108.154 373.135 107.628C373.375 107.129 373.671 106.549 373.78 106.005Z" stroke="#E2A567" stroke-width="3" stroke-linecap="round"/>
<path d="M361.78 119.005C361.86 118.606 362.187 116.851 362.187 117.01C362.445 117.139 362.779 118.366 362.824 118.602C362.983 119.239 363.143 119.558 363.461 120.354C363.716 120.992 364.097 121.613 364.372 122.035C364.89 122.828 365.212 123.061 365.907 123.622C366.259 123.724 367.268 123.867 366.933 124.016C366.828 124.063 366.713 124.153 366.61 124.211C365.66 124.74 364.969 125.515 364.372 126.394C363.975 126.979 363.543 127.683 363.21 128.305C362.927 128.832 362.629 129.465 362.364 130.004C362.083 130.577 361.787 131.188 361.63 131.809C361.553 132.113 361.471 133.052 361.471 132.738C361.471 131.123 361.521 129.578 361.112 128.005C360.949 127.375 360.696 126.622 360.356 126.064C360.009 125.493 359.426 125.041 359.038 124.485C358.67 123.958 358.076 123.502 357.419 123.392C357.343 123.38 356.959 123.381 357.004 123.375C357.377 123.325 357.754 123.314 358.127 123.264C359.134 123.129 359.705 122.812 360.312 122.035C360.674 121.572 360.881 121.154 361.135 120.628C361.375 120.129 361.671 119.549 361.78 119.005Z" stroke="#E2A567" stroke-width="3" stroke-linecap="round"/>
<path d="M73.0115 53.2959C73.2622 52.0423 74.2893 46.532 74.2893 47.032C75.0974 47.436 76.1484 51.2893 76.2893 52.032C76.7893 54.032 77.2893 55.032 78.2893 57.532C79.0914 59.5371 80.286 61.4871 81.1504 62.8098C82.7778 65.3002 83.7893 66.032 85.9698 67.7959C87.0746 68.1166 90.2433 68.5648 89.192 69.032C88.861 69.1791 88.4999 69.4638 88.1781 69.6431C85.1943 71.3055 83.0259 73.7398 81.1504 76.5C79.9026 78.3364 78.5468 80.5459 77.5 82.5C76.6131 84.1556 75.6762 86.144 74.8448 87.8375C73.9616 89.6367 73.034 91.5536 72.5393 93.5042C72.2968 94.4603 72.0393 97.4073 72.0393 96.4209C72.0393 91.3515 72.1982 86.4982 70.9143 81.5598C70.3997 79.5808 69.6058 77.2147 68.5393 75.4625C67.4485 73.6706 65.6191 72.25 64.4004 70.5042C63.2455 68.8499 61.3803 67.4175 59.317 67.0736C59.0785 67.0339 57.87 67.0369 58.0115 67.0181C59.1839 66.8618 60.3678 66.8276 61.5393 66.6709C64.7023 66.2476 66.4934 65.2507 68.4004 62.8098C69.5361 61.356 70.1873 60.0448 70.9837 58.3931C71.7392 56.8262 72.6695 55.0058 73.0115 53.2959Z" stroke="#E2A567" stroke-width="3" stroke-linecap="round"/>
<path d="M60.7803 45.0049C60.8602 44.6057 61.1872 42.851 61.1872 43.0102C61.4446 43.1389 61.7793 44.3659 61.8241 44.6024C61.9833 45.2393 62.1426 45.5577 62.461 46.3538C62.7164 46.9924 63.0969 47.6133 63.3721 48.0345C63.8904 48.8276 64.2125 49.0606 64.9068 49.6223C65.2586 49.7245 66.2677 49.8672 65.9329 50.016C65.8275 50.0628 65.7125 50.1535 65.6101 50.2106C64.6599 50.74 63.9693 51.5151 63.3721 52.3941C62.9747 52.9789 62.543 53.6825 62.2097 54.3048C61.9272 54.832 61.6289 55.4652 61.3641 56.0045C61.0829 56.5774 60.7875 57.1879 60.6299 57.809C60.5527 58.1135 60.4707 59.0519 60.4707 58.7378C60.4707 57.1235 60.5213 55.578 60.1125 54.0054C59.9486 53.3752 59.6958 52.6217 59.3562 52.0637C59.0088 51.4931 58.4263 51.0407 58.0382 50.4848C57.6704 49.958 57.0764 49.5018 56.4194 49.3923C56.3434 49.3797 55.9586 49.3806 56.0037 49.3746C56.377 49.3249 56.754 49.314 57.1271 49.2641C58.1343 49.1293 58.7047 48.8118 59.3119 48.0345C59.6736 47.5716 59.881 47.154 60.1346 46.6281C60.3752 46.1291 60.6714 45.5494 60.7803 45.0049Z" stroke="#E2A567" stroke-width="3" stroke-linecap="round"/>
<path d="M89.7803 81.0049C89.8602 80.6057 90.1872 78.851 90.1872 79.0102C90.4446 79.1389 90.7793 80.3659 90.8241 80.6024C90.9833 81.2393 91.1426 81.5577 91.461 82.3538C91.7164 82.9924 92.0969 83.6133 92.3721 84.0345C92.8904 84.8276 93.2125 85.0606 93.9068 85.6223C94.2586 85.7245 95.2677 85.8672 94.9329 86.016C94.8275 86.0628 94.7125 86.1535 94.6101 86.2106C93.6599 86.74 92.9693 87.5151 92.3721 88.3941C91.9747 88.9789 91.543 89.6825 91.2097 90.3048C90.9272 90.832 90.6289 91.4652 90.3641 92.0045C90.0829 92.5774 89.7875 93.1879 89.6299 93.809C89.5527 94.1135 89.4707 95.0519 89.4707 94.7378C89.4707 93.1235 89.5213 91.578 89.1125 90.0054C88.9486 89.3752 88.6958 88.6217 88.3562 88.0637C88.0088 87.4931 87.4263 87.0407 87.0382 86.4848C86.6704 85.958 86.0764 85.5018 85.4194 85.3923C85.3434 85.3797 84.9586 85.3806 85.0037 85.3746C85.377 85.3249 85.754 85.314 86.1271 85.2641C87.1343 85.1293 87.7047 84.8118 88.3119 84.0345C88.6736 83.5716 88.881 83.154 89.1346 82.6281C89.3752 82.1291 89.6714 81.5494 89.7803 81.0049Z" stroke="#E2A567" stroke-width="3" stroke-linecap="round"/>
<circle cx="149" cy="68" r="14" fill="url(#paint4_radial_85_674)"/>
<circle cx="95" cy="229" r="14" fill="url(#paint5_radial_85_674)"/>
<circle cx="330" cy="237" r="14" fill="url(#paint6_radial_85_674)"/>
<circle cx="68.5" cy="219.5" r="10.5" fill="url(#paint7_radial_85_674)"/>
<circle cx="354.5" cy="221.5" r="10.5" fill="url(#paint8_radial_85_674)"/>
<circle cx="235.5" cy="223.5" r="6.5" fill="url(#paint9_radial_85_674)"/>
<circle cx="250.5" cy="219.5" r="6.5" fill="url(#paint10_radial_85_674)"/>
<circle cx="198.5" cy="133.5" r="8.5" fill="url(#paint11_radial_85_674)"/>
<circle cx="280.5" cy="147.5" r="7.5" fill="url(#paint12_radial_85_674)"/>
<rect x="153" y="236" width="121" height="20.8344" rx="10.4172" fill="#F6D193"/>
<path d="M163.834 252.975L164.244 251.796C164.295 251.629 164.436 251.539 164.577 251.539C164.603 251.539 164.629 251.552 164.654 251.552C165 251.642 165.308 251.68 165.59 251.68C166.667 251.68 167.295 251.065 167.603 250.039C167.206 250.167 166.77 250.244 166.359 250.244C164.398 250.244 162.616 248.667 162.616 246.283C162.616 244.731 163.539 242.847 166.244 242.847C166.859 242.847 167.449 242.962 167.949 243.18C167.988 243.039 168.103 243.013 168.218 243.013H168.283C168.283 243.013 170.385 243.154 170.68 243.167C170.885 243.18 171.013 243.347 171.013 243.539C170.988 245.795 170.975 248.129 170.603 250.052C170.078 252.77 168.116 253.834 166.116 253.834C165.372 253.834 164.629 253.693 163.949 253.424C163.834 253.386 163.808 253.283 163.808 253.18C163.808 253.103 163.821 253.027 163.834 252.975ZM167.847 247.693L167.911 247.654C167.936 247.142 167.949 246.578 167.949 246.001C167.898 245.398 167.398 245.077 166.847 245.077C166.039 245.077 165.59 245.731 165.59 246.449C165.59 246.949 165.795 248.001 166.924 248.001C167.231 248.001 167.642 247.86 167.847 247.693Z" fill="#AA5906"/>
<path d="M176.584 250.526H176.43C173.52 250.526 172.058 248.539 172.058 246.59C172.058 244.757 173.353 242.834 176.276 242.834C179.456 242.834 179.597 245.667 179.597 246.09C179.597 246.68 179.353 247.167 178.597 247.424C177.994 247.629 177.045 247.77 176.379 247.796C176.174 247.796 176.11 247.706 176.058 247.552C175.904 247.129 175.661 246.295 175.661 246.244C175.661 246.103 175.763 246.039 175.93 246.001C176.597 245.847 176.686 245.821 176.686 245.642C176.686 245.526 176.443 245.116 175.904 245.116C175.289 245.116 174.776 245.654 174.776 246.449C174.776 247.36 175.443 248.385 177.045 248.385C177.135 248.385 177.238 248.385 177.328 248.372H177.353C177.533 248.372 177.751 248.488 177.751 248.706C177.751 248.834 177.417 249.706 177.225 250.142C177.122 250.347 176.956 250.526 176.584 250.526Z" fill="#AA5906"/>
<path d="M185.536 248.437L184.869 250.052C184.767 250.296 184.651 250.424 184.459 250.424C184.421 250.424 184.382 250.424 184.344 250.411C182.279 250.001 181.561 248.872 181.497 245.629L180.536 245.577C180.395 245.565 180.279 245.436 180.279 245.295L180.433 243.167C180.446 243.026 180.561 242.911 180.715 242.911L181.536 242.962C181.561 242.475 181.587 241.949 181.626 241.398C181.638 241.244 181.664 241 181.997 241H182.049L184.472 241.116C184.69 241.129 184.792 241.257 184.792 241.475C184.767 242.013 184.728 242.577 184.69 243.116L185.574 243.167C185.715 243.167 185.831 243.295 185.831 243.449L185.677 245.577C185.664 245.706 185.562 245.821 185.421 245.821H185.395L184.549 245.783C184.549 246.949 184.703 247.834 185.267 248.078C185.408 248.142 185.562 248.193 185.562 248.334C185.562 248.36 185.549 248.398 185.536 248.437Z" fill="#AA5906"/>
<path d="M196.15 249.86V249.924C196.15 250.206 195.97 250.244 195.803 250.244C195.803 250.244 193.701 250.385 193.406 250.385H193.38C193.188 250.385 193.06 250.232 193.047 250.052C192.996 248.783 192.893 247.154 192.854 245.629L191.931 245.577C191.79 245.565 191.675 245.436 191.675 245.295L191.829 243.167C191.842 243.026 191.957 242.911 192.111 242.911L192.854 242.949L192.893 242.475C193.137 240.103 194.906 239.257 196.534 239.257C197.021 239.257 197.496 239.334 197.906 239.462C198.073 239.5 198.111 239.693 198.111 239.821V239.872L197.88 241.334C197.855 241.539 197.65 241.667 197.483 241.667H197.444C196.791 241.667 195.88 241.885 195.88 243.103L196.97 243.167C197.111 243.167 197.227 243.295 197.227 243.449L197.073 245.577C197.06 245.706 196.957 245.821 196.816 245.821H196.791L195.893 245.783C195.944 247.154 196.047 248.68 196.15 249.86Z" fill="#AA5906"/>
<path d="M201.652 250.232L199.101 250.373C198.947 250.373 198.819 250.27 198.819 250.116L198.46 243.449C198.46 243.295 198.575 243.167 198.716 243.167L200.203 243.09C200.896 242.872 201.562 242.77 202.204 242.77C202.639 242.77 203.063 242.821 203.46 242.911C203.652 242.962 203.729 243.065 203.729 243.218C203.729 243.27 203.716 243.321 203.704 243.385L203.332 245.193C203.293 245.372 203.165 245.462 203.011 245.462C202.973 245.462 202.922 245.449 202.87 245.436C202.665 245.372 202.447 245.334 202.229 245.334C202.05 245.334 201.87 245.359 201.665 245.411L201.909 249.949V249.975C201.909 250.116 201.793 250.232 201.652 250.232Z" fill="#AA5906"/>
<path d="M208.937 250.526H208.784C205.873 250.526 204.411 248.539 204.411 246.59C204.411 244.757 205.706 242.834 208.63 242.834C211.809 242.834 211.95 245.667 211.95 246.09C211.95 246.68 211.707 247.167 210.95 247.424C210.348 247.629 209.399 247.77 208.732 247.796C208.527 247.796 208.463 247.706 208.412 247.552C208.258 247.129 208.014 246.295 208.014 246.244C208.014 246.103 208.117 246.039 208.283 246.001C208.95 245.847 209.04 245.821 209.04 245.642C209.04 245.526 208.796 245.116 208.258 245.116C207.642 245.116 207.13 245.654 207.13 246.449C207.13 247.36 207.796 248.385 209.399 248.385C209.489 248.385 209.591 248.385 209.681 248.372H209.707C209.886 248.372 210.104 248.488 210.104 248.706C210.104 248.834 209.771 249.706 209.578 250.142C209.476 250.347 209.309 250.526 208.937 250.526Z" fill="#AA5906"/>
<path d="M217.364 250.526H217.21C214.3 250.526 212.838 248.539 212.838 246.59C212.838 244.757 214.133 242.834 217.056 242.834C220.236 242.834 220.377 245.667 220.377 246.09C220.377 246.68 220.133 247.167 219.377 247.424C218.774 247.629 217.825 247.77 217.159 247.796C216.954 247.796 216.889 247.706 216.838 247.552C216.684 247.129 216.441 246.295 216.441 246.244C216.441 246.103 216.543 246.039 216.71 246.001C217.377 245.847 217.466 245.821 217.466 245.642C217.466 245.526 217.223 245.116 216.684 245.116C216.069 245.116 215.556 245.654 215.556 246.449C215.556 247.36 216.223 248.385 217.825 248.385C217.915 248.385 218.018 248.385 218.107 248.372H218.133C218.313 248.372 218.531 248.488 218.531 248.706C218.531 248.834 218.197 249.706 218.005 250.142C217.902 250.347 217.736 250.526 217.364 250.526Z" fill="#AA5906"/>
<path d="M229.478 250.232L227.337 250.347C227.196 250.347 227.068 250.244 227.055 250.091L226.517 239.616V239.59C226.517 239.462 226.632 239.346 226.76 239.334L229.324 239.205H229.35C229.491 239.205 229.594 239.321 229.606 239.462L229.786 242.988C230.273 242.834 230.799 242.757 231.337 242.757C233.799 242.757 235.414 244.257 235.414 246.565C235.414 248.898 233.376 250.539 231.132 250.539C230.581 250.539 230.03 250.437 229.478 250.232ZM229.914 245.449L230.055 248.013C230.273 248.078 230.478 248.103 230.683 248.103C231.581 248.103 232.26 247.488 232.26 246.616C232.26 246.065 231.991 245.193 230.94 245.193C230.568 245.193 230.196 245.308 229.914 245.449Z" fill="#AA5906"/>
<path d="M244.494 246.603C244.494 249.103 241.955 250.501 240.135 250.501C238.045 250.501 236.211 248.988 236.211 246.731C236.211 244.09 238.186 242.718 240.442 242.718C243.276 242.718 244.494 244.936 244.494 246.603ZM240.442 248.052C241.353 248.052 241.763 247.308 241.763 246.578C241.763 246.334 241.712 245.09 240.404 245.09C239.327 245.09 239.019 246.001 239.019 246.578C239.019 247.462 239.712 248.052 240.442 248.052Z" fill="#AA5906"/>
<path d="M248.56 250.232L246.419 250.347C246.278 250.347 246.149 250.244 246.137 250.091L245.598 239.616V239.59C245.598 239.462 245.713 239.346 245.842 239.334L248.406 239.205H248.432C248.573 239.205 248.675 239.321 248.688 239.462L248.867 242.988C249.355 242.834 249.88 242.757 250.419 242.757C252.88 242.757 254.496 244.257 254.496 246.565C254.496 248.898 252.457 250.539 250.214 250.539C249.662 250.539 249.111 250.437 248.56 250.232ZM248.996 245.449L249.137 248.013C249.355 248.078 249.56 248.103 249.765 248.103C250.662 248.103 251.342 247.488 251.342 246.616C251.342 246.065 251.073 245.193 250.021 245.193C249.65 245.193 249.278 245.308 248.996 245.449Z" fill="#AA5906"/>
<path d="M264.204 248.667L263.409 250.219C263.293 250.437 263.165 250.552 262.998 250.552C262.87 250.552 261.973 250.347 261.332 249.744C260.665 250.091 259.973 250.244 259.319 250.244C257.178 250.244 255.331 248.603 255.331 246.539C255.331 245 256.421 242.782 258.96 242.782C259.601 242.782 260.229 242.923 260.729 243.141C260.806 243.052 260.921 243.013 261.075 243.013H261.139L263.357 243.206C263.691 243.231 263.781 243.398 263.781 243.552V243.616C263.601 244.783 263.422 245.898 263.422 246.744C263.422 247.513 263.563 248.065 263.973 248.283C264.101 248.347 264.242 248.424 264.242 248.552C264.242 248.578 264.229 248.616 264.204 248.667ZM260.447 247.731C260.409 247.398 260.383 247.039 260.383 246.642C260.383 246.308 260.396 245.962 260.421 245.577C260.267 245.321 259.921 245.142 259.55 245.142C258.742 245.142 258.293 245.924 258.293 246.578C258.293 247.295 258.793 247.911 259.626 247.911C259.87 247.911 260.152 247.86 260.447 247.731Z" fill="#AA5906"/>
<rect x="115" y="212" width="102" height="20.0909" rx="10.0455" fill="#F6D193"/>
<path d="M128.675 227.269L126.61 227.38C126.474 227.38 126.35 227.281 126.338 227.133L125.819 217.032V217.007C125.819 216.884 125.93 216.772 126.054 216.76L128.526 216.636H128.551C128.687 216.636 128.786 216.748 128.798 216.884L128.971 220.284C129.441 220.135 129.948 220.061 130.467 220.061C132.841 220.061 134.399 221.508 134.399 223.733C134.399 225.983 132.433 227.566 130.27 227.566C129.738 227.566 129.206 227.467 128.675 227.269ZM129.095 222.657L129.231 225.13C129.441 225.192 129.639 225.217 129.837 225.217C130.702 225.217 131.358 224.623 131.358 223.783C131.358 223.251 131.098 222.41 130.084 222.41C129.726 222.41 129.367 222.521 129.095 222.657Z" fill="#AA5906"/>
<path d="M142.907 227.294L140.484 227.158C139.89 227.343 139.309 227.442 138.765 227.442C137.047 227.442 135.712 226.478 135.6 224.178C135.563 223.375 135.538 221.841 135.526 221.05C135.526 220.543 135.699 220.444 135.848 220.432C135.86 220.407 137.776 220.271 137.986 220.271C138.234 220.271 138.333 220.395 138.345 220.543C138.419 221.372 138.444 222.039 138.518 223.511C138.568 224.574 138.938 224.945 139.458 224.945C139.705 224.945 140.002 224.858 140.311 224.71L140.533 220.457C140.546 220.308 140.669 220.209 140.805 220.209L143.266 220.345C143.414 220.345 143.513 220.469 143.513 220.617L143.179 227.047C143.167 227.195 143.043 227.294 142.907 227.294Z" fill="#AA5906"/>
<path d="M148.303 227.257L145.831 227.38H145.806C145.67 227.38 145.571 227.269 145.559 227.133L145.25 221.112C145.25 220.964 145.349 220.852 145.497 220.84L147.97 220.716H147.994C148.118 220.716 148.229 220.828 148.229 220.951L148.538 226.985V227.009C148.538 227.133 148.427 227.244 148.303 227.257ZM148.427 218.689C148.427 219.69 147.611 220.506 146.61 220.506C145.596 220.506 144.78 219.69 144.78 218.689C144.78 217.675 145.596 216.859 146.61 216.859C147.611 216.859 148.427 217.675 148.427 218.689Z" fill="#AA5906"/>
<path d="M152.824 227.306H150.339C150.203 227.306 150.092 227.195 150.092 227.059V216.958C150.092 216.809 150.203 216.698 150.339 216.698H152.824C152.96 216.698 153.071 216.809 153.071 216.958V227.059C153.071 227.195 152.96 227.306 152.824 227.306Z" fill="#AA5906"/>
<path d="M163.168 225.625L162.501 227.17C162.402 227.405 162.278 227.529 162.093 227.529C162.093 227.529 161.029 227.417 160.337 226.725C159.645 227.108 158.927 227.281 158.247 227.281C156.183 227.281 154.415 225.699 154.415 223.708C154.415 222.2 155.466 220.086 157.914 220.086C158.445 220.086 158.977 220.197 159.422 220.358L159.645 217.044C159.657 216.834 159.855 216.711 160.102 216.711L162.241 216.748C162.587 216.748 162.686 216.908 162.686 217.081V217.119C162.661 217.279 162.266 222.435 162.266 223.288C162.266 224.302 162.414 225.056 162.921 225.279C163.057 225.34 163.193 225.402 163.193 225.513C163.193 225.551 163.193 225.588 163.168 225.625ZM159.459 224.796C159.373 224.24 159.323 223.585 159.323 222.793C159.187 222.546 158.841 222.373 158.47 222.373C157.728 222.373 157.258 223.053 157.258 223.745C157.258 224.438 157.741 225.031 158.532 225.031C158.804 225.031 159.113 224.957 159.459 224.796Z" fill="#AA5906"/>
<path d="M177 225.761L176.233 227.257C176.122 227.467 175.998 227.578 175.837 227.578C175.714 227.578 174.848 227.38 174.23 226.799C173.587 227.133 172.92 227.281 172.289 227.281C170.224 227.281 168.444 225.699 168.444 223.708C168.444 222.225 169.495 220.086 171.943 220.086C172.561 220.086 173.167 220.222 173.649 220.432C173.723 220.345 173.835 220.308 173.983 220.308H174.045L176.184 220.494C176.505 220.519 176.592 220.679 176.592 220.828V220.889C176.419 222.015 176.245 223.09 176.245 223.906C176.245 224.648 176.381 225.18 176.777 225.39C176.901 225.452 177.037 225.526 177.037 225.649C177.037 225.674 177.024 225.711 177 225.761ZM173.377 224.858C173.34 224.537 173.315 224.191 173.315 223.807C173.315 223.486 173.328 223.152 173.352 222.781C173.204 222.534 172.87 222.361 172.512 222.361C171.733 222.361 171.3 223.115 171.3 223.745C171.3 224.438 171.782 225.031 172.586 225.031C172.821 225.031 173.093 224.982 173.377 224.858Z" fill="#AA5906"/>
<path d="M183.747 227.529H183.611C183.339 227.529 183.215 227.479 183.141 227.269L182.597 225.835C182.585 225.798 182.572 225.761 182.572 225.736C182.572 225.551 182.82 225.526 182.968 225.526C183.698 225.513 184.044 225.167 184.044 224.871C184.044 224.71 183.883 224.512 183.71 224.289L183.376 223.919C182.832 223.3 182.61 222.769 182.61 222.299C182.61 220.902 184.625 220.16 186.244 220.16C186.727 220.16 186.85 220.209 186.937 220.432L187.493 221.866C187.518 221.916 187.518 221.953 187.518 221.99C187.518 222.126 187.382 222.175 187.221 222.175H187.172C186.43 222.175 186.146 222.423 186.146 222.67C186.146 222.88 186.331 223.115 186.801 223.634C187.37 224.252 187.617 224.809 187.617 225.279C187.617 226.737 185.404 227.529 183.747 227.529Z" fill="#AA5906"/>
<path d="M192.083 227.257L189.611 227.38H189.586C189.45 227.38 189.351 227.269 189.339 227.133L189.029 221.112C189.029 220.964 189.128 220.852 189.277 220.84L191.749 220.716H191.774C191.898 220.716 192.009 220.828 192.009 220.951L192.318 226.985V227.009C192.318 227.133 192.207 227.244 192.083 227.257ZM192.207 218.689C192.207 219.69 191.391 220.506 190.389 220.506C189.376 220.506 188.56 219.69 188.56 218.689C188.56 217.675 189.376 216.859 190.389 216.859C191.391 216.859 192.207 217.675 192.207 218.689Z" fill="#AA5906"/>
<path d="M198.298 225.538L197.655 227.096C197.556 227.331 197.445 227.455 197.259 227.455C197.222 227.455 197.185 227.455 197.148 227.442C195.157 227.047 194.465 225.959 194.403 222.831L193.476 222.781C193.34 222.769 193.229 222.645 193.229 222.509L193.377 220.457C193.389 220.321 193.501 220.209 193.649 220.209L194.44 220.259C194.465 219.789 194.49 219.282 194.527 218.751C194.539 218.602 194.564 218.367 194.885 218.367H194.935L197.272 218.479C197.482 218.491 197.581 218.615 197.581 218.825C197.556 219.344 197.519 219.888 197.482 220.407L198.335 220.457C198.471 220.457 198.582 220.58 198.582 220.729L198.434 222.781C198.422 222.905 198.323 223.016 198.187 223.016H198.162L197.346 222.979C197.346 224.104 197.494 224.957 198.038 225.192C198.174 225.254 198.323 225.303 198.323 225.439C198.323 225.464 198.31 225.501 198.298 225.538Z" fill="#AA5906"/>
<path d="M203.888 227.553H203.74C200.933 227.553 199.524 225.637 199.524 223.758C199.524 221.99 200.773 220.135 203.592 220.135C206.658 220.135 206.794 222.868 206.794 223.276C206.794 223.844 206.559 224.314 205.829 224.561C205.248 224.759 204.333 224.895 203.69 224.92C203.493 224.92 203.431 224.833 203.381 224.685C203.233 224.277 202.998 223.473 202.998 223.424C202.998 223.288 203.097 223.226 203.258 223.189C203.901 223.041 203.987 223.016 203.987 222.843C203.987 222.732 203.752 222.336 203.233 222.336C202.64 222.336 202.145 222.855 202.145 223.622C202.145 224.5 202.788 225.489 204.333 225.489C204.42 225.489 204.519 225.489 204.605 225.476H204.63C204.803 225.476 205.013 225.588 205.013 225.798C205.013 225.921 204.692 226.762 204.506 227.183C204.408 227.38 204.247 227.553 203.888 227.553Z" fill="#AA5906"/>
<path d="M123.765 236.589C124.09 236.142 123.992 235.517 123.546 235.192C123.099 234.867 122.474 234.965 122.149 235.411L123.765 236.589ZM120.022 242.862L121.02 242.927L120.022 242.862ZM125.363 248.845L125.501 249.835L125.363 248.845ZM132.366 242.61L131.371 242.506L132.366 242.61ZM128.524 239.537L128.409 238.543L128.524 239.537ZM122.957 244.424L123.856 244.861L122.957 244.424ZM124.607 255.886L125.164 255.055L124.607 255.886ZM150.996 253.281C151.046 252.731 150.641 252.245 150.091 252.195L141.127 251.38C140.577 251.33 140.091 251.735 140.041 252.285C139.991 252.835 140.396 253.322 140.946 253.372L148.914 254.096L148.189 262.063C148.139 262.613 148.545 263.099 149.095 263.149C149.645 263.199 150.131 262.794 150.181 262.244L150.996 253.281ZM122.149 235.411C120.666 237.446 119.217 239.825 119.024 242.797L121.02 242.927C121.174 240.545 122.334 238.554 123.765 236.589L122.149 235.411ZM119.024 242.797C118.898 244.747 119.256 246.661 120.334 248.038C121.462 249.477 123.235 250.151 125.501 249.835L125.225 247.855C123.536 248.09 122.522 247.587 121.909 246.804C121.246 245.958 120.911 244.605 121.02 242.927L119.024 242.797ZM125.501 249.835C127.271 249.588 129.104 248.826 130.559 247.635C132.019 246.439 133.145 244.768 133.361 242.714L131.371 242.506C131.223 243.92 130.444 245.144 129.292 246.087C128.135 247.035 126.648 247.656 125.225 247.855L125.501 249.835ZM133.361 242.714C133.518 241.215 132.835 240.052 131.819 239.345C130.843 238.667 129.574 238.408 128.409 238.543L128.64 240.53C129.387 240.443 130.153 240.623 130.677 240.987C131.162 241.324 131.444 241.81 131.371 242.506L133.361 242.714ZM128.409 238.543C125.24 238.913 123.168 241.704 122.058 243.986L123.856 244.861C124.905 242.706 126.552 240.773 128.64 240.53L128.409 238.543ZM122.058 243.986C121.092 245.971 120.47 248.358 120.637 250.647C120.807 252.964 121.794 255.204 124.05 256.717L125.164 255.055C123.512 253.948 122.765 252.325 122.632 250.501C122.497 248.647 123.004 246.613 123.856 244.861L122.058 243.986ZM124.05 256.717C127.995 259.361 132.991 260.045 137.774 259.405C142.559 258.765 147.246 256.787 150.64 253.959L149.36 252.422C146.283 254.986 141.959 256.827 137.509 257.422C133.057 258.018 128.592 257.353 125.164 255.055L124.05 256.717Z" fill="#F6D193"/>
<defs>
<linearGradient id="paint0_linear_85_674" x1="60.9602" y1="107.437" x2="101.026" y2="206.602" gradientUnits="userSpaceOnUse">
<stop stop-color="#EDC98E"/>
<stop offset="0.123574" stop-color="#907A56"/>
<stop offset="0.89189" stop-color="#AC9367"/>
<stop offset="1" stop-color="#F6D193"/>
</linearGradient>
<linearGradient id="paint1_linear_85_674" x1="60.9602" y1="107.437" x2="101.026" y2="206.602" gradientUnits="userSpaceOnUse">
<stop stop-color="#EDC98E"/>
<stop offset="0.123574" stop-color="#907A56"/>
<stop offset="0.89189" stop-color="#AC9367"/>
<stop offset="1" stop-color="#F6D193"/>
</linearGradient>
<linearGradient id="paint2_linear_85_674" x1="83.6875" y1="158.293" x2="61.5294" y2="168.891" gradientUnits="userSpaceOnUse">
<stop stop-color="#767676"/>
<stop offset="0.5" stop-color="#D9D9D9" stop-opacity="0.91"/>
<stop offset="1" stop-color="#737373"/>
</linearGradient>
<linearGradient id="paint3_linear_85_674" x1="98.8482" y1="152.877" x2="91.0322" y2="155.814" gradientUnits="userSpaceOnUse">
<stop stop-color="#7B7B7B"/>
<stop offset="0.394737" stop-color="#D9D9D9" stop-opacity="0.52"/>
<stop offset="1" stop-color="#737373"/>
</linearGradient>
<radialGradient id="paint4_radial_85_674" cx="0" cy="0" r="1" gradientUnits="userSpaceOnUse" gradientTransform="translate(146.667 62.8667) rotate(116.565) scale(4.17399)">
<stop stop-color="#F6D193"/>
<stop offset="0.9999" stop-color="#EFC98C"/>
<stop offset="1" stop-color="#603101"/>
</radialGradient>
<radialGradient id="paint5_radial_85_674" cx="0" cy="0" r="1" gradientUnits="userSpaceOnUse" gradientTransform="translate(92.6667 223.867) rotate(116.565) scale(4.17399)">
<stop stop-color="#F6D193"/>
<stop offset="0.9999" stop-color="#EFC98C"/>
<stop offset="1" stop-color="#603101"/>
</radialGradient>
<radialGradient id="paint6_radial_85_674" cx="0" cy="0" r="1" gradientUnits="userSpaceOnUse" gradientTransform="translate(327.667 231.867) rotate(116.565) scale(4.17399)">
<stop stop-color="#F6D193"/>
<stop offset="0.9999" stop-color="#EFC98C"/>
<stop offset="1" stop-color="#603101"/>
</radialGradient>
<radialGradient id="paint7_radial_85_674" cx="0" cy="0" r="1" gradientUnits="userSpaceOnUse" gradientTransform="translate(66.75 215.65) rotate(116.565) scale(3.1305)">
<stop stop-color="#F6D193"/>
<stop offset="0.9999" stop-color="#EFC98C"/>
<stop offset="1" stop-color="#603101"/>
</radialGradient>
<radialGradient id="paint8_radial_85_674" cx="0" cy="0" r="1" gradientUnits="userSpaceOnUse" gradientTransform="translate(352.75 217.65) rotate(116.565) scale(3.1305)">
<stop stop-color="#F6D193"/>
<stop offset="0.9999" stop-color="#EFC98C"/>
<stop offset="1" stop-color="#603101"/>
</radialGradient>
<radialGradient id="paint9_radial_85_674" cx="0" cy="0" r="1" gradientUnits="userSpaceOnUse" gradientTransform="translate(234.417 221.117) rotate(116.565) scale(1.93793)">
<stop stop-color="#F6D193"/>
<stop offset="0.9999" stop-color="#EFC98C"/>
<stop offset="1" stop-color="#603101"/>
</radialGradient>
<radialGradient id="paint10_radial_85_674" cx="0" cy="0" r="1" gradientUnits="userSpaceOnUse" gradientTransform="translate(249.417 217.117) rotate(116.565) scale(1.93793)">
<stop stop-color="#F6D193"/>
<stop offset="0.9999" stop-color="#EFC98C"/>
<stop offset="1" stop-color="#603101"/>
</radialGradient>
<radialGradient id="paint11_radial_85_674" cx="0" cy="0" r="1" gradientUnits="userSpaceOnUse" gradientTransform="translate(197.083 130.383) rotate(116.565) scale(2.53421)">
<stop stop-color="#F6D193"/>
<stop offset="0.9999" stop-color="#EFC98C"/>
<stop offset="1" stop-color="#603101"/>
</radialGradient>
<radialGradient id="paint12_radial_85_674" cx="0" cy="0" r="1" gradientUnits="userSpaceOnUse" gradientTransform="translate(279.25 144.75) rotate(116.565) scale(2.23607)">
<stop stop-color="#F6D193"/>
<stop offset="0.9999" stop-color="#EFC98C"/>
<stop offset="1" stop-color="#603101"/>
</radialGradient>
<clipPath id="clip0_85_674">
<rect width="101" height="67" fill="white" transform="translate(273.468 28) rotate(16)"/>
</clipPath>
</defs>
</svg>
