<svg width="291" height="176" viewBox="0 0 291 176" fill="none" xmlns="http://www.w3.org/2000/svg">
<path d="M105 139.26H107.602C113.011 139.26 117.613 143.202 118.444 148.547C118.805 150.867 119.901 153.01 121.57 154.662L123.414 156.486C126.078 159.12 129.466 160.901 133.146 161.601L135.256 162.002C138.667 162.651 142.195 162.218 145.347 160.763L145.532 160.677C147.165 159.923 148.654 158.891 149.933 157.626L150.874 156.695C152.265 155.319 153.253 153.589 153.733 151.692C154.802 147.464 158.322 144.302 162.641 143.691L166 143.217C169.984 142.231 173.828 140.747 177.439 138.798L177.5 138.765L182.162 136.041C186.154 133.707 191.009 133.381 195.277 135.159L195.753 135.357C197.236 135.974 198.827 136.292 200.434 136.292H200.949C205 136.292 208.74 138.463 210.75 141.98C212.76 145.497 216.5 147.668 220.551 147.668H229.113C230.033 147.668 230.949 147.795 231.835 148.045L235.087 148.964C238.399 149.9 241.863 148.074 242.962 144.812C243.315 143.766 243.393 142.647 243.19 141.562L242.833 139.655C241.737 133.801 244.493 127.9 249.685 124.982L262.534 117.76C262.843 117.586 263.128 117.372 263.38 117.122L263.952 116.557C265.315 115.208 265.214 112.976 263.734 111.756C263.578 111.628 263.411 111.514 263.234 111.417L246.019 101.957C245.678 101.77 245.296 101.671 244.908 101.671C242.645 101.671 241.736 98.7512 243.599 97.4666L250.054 93.0163C252.227 91.5182 252.761 88.5351 251.242 86.3765L212.047 30.6717C211.038 29.2372 209.631 28.1291 208 27.4838L207 26.9892C206.081 26.3829 204.898 26.3476 203.944 26.898L194.795 32.1768C193.933 32.6741 193.117 33.2462 192.355 33.8866L184.604 40.4041C183.938 40.9639 183.683 41.8743 183.961 42.6987C184.549 44.4446 182.779 46.0559 181.096 45.3067L178.623 44.2062C176.916 43.4462 174.919 44.2529 174.218 45.9853L173.182 48.5489C172.744 49.6307 171.906 50.5018 170.842 50.9803C168.677 51.9537 166.128 51.0895 165.001 49.0002L164.194 47.5039C163.429 46.0842 162.137 45.0219 160.596 44.5456C157.462 43.5768 154.119 45.2372 152.997 48.3197L151.582 52.2079C150.908 54.059 149.334 55.4367 147.41 55.8596C146.484 56.0632 145.523 56.0348 144.61 55.7769L144.004 55.6057C143.01 55.3247 141.972 55.2327 140.944 55.3344L139.817 55.4459C138.282 55.5977 136.783 55.9975 135.377 56.6298L133.042 57.6793C132.349 57.9911 131.687 58.3689 131.067 58.8076L129.545 59.8826C128.86 60.3665 128.314 61.0206 127.959 61.7804L127.77 62.1856C126.591 64.7121 123.405 65.5436 121.142 63.9154C120.399 63.3808 119.839 62.6298 119.538 61.7649L116.31 52.4766C115.31 49.5985 112.121 48.0908 109.242 49.0876C106.584 50.0079 105.029 52.8236 105.719 55.5508L105.94 56.426C106.531 58.7666 105.163 61.1552 102.845 61.8296C100.452 62.5259 97.9482 61.129 97.2743 58.7292C96.5812 56.2608 93.9663 54.8619 91.5314 55.6647L88.7019 56.5977C86.0718 57.4649 84.5898 60.2482 85.3385 62.9145L85.8512 64.7403C86.2274 66.0799 85.5963 67.4975 84.3491 68.1143C83.2427 68.6616 81.9109 68.4462 81.0334 67.5781L78.0589 64.6359C76.4195 63.0142 74.2066 62.1047 71.9007 62.1047H68.9963C66.3733 62.1047 63.7914 62.7568 61.4829 64.0023L60.7034 64.4229C59.9033 64.8546 59.1408 65.3767 58.4474 65.9646C56.8545 67.3152 55.591 69.0512 54.8081 70.9872L54.2743 72.3073C54.0927 72.7563 53.9869 73.2325 53.9611 73.7162L53.6819 78.9646C53.6066 80.38 51.9525 81.107 50.8588 80.2055C50.6238 80.0118 50.3417 79.8837 50.0412 79.8341L45.4204 79.0723C44.8091 78.9715 44.1878 78.9463 43.5703 78.9972L42.0579 79.1219C39.907 79.2992 37.8631 78.1552 36.8895 76.2291C36.6315 75.7187 36.2927 75.2534 35.8861 74.8512L34.6856 73.6638C33.6179 72.6076 32.1351 72.0819 30.6405 72.2298C28.9875 72.3933 27.5208 73.3599 26.7187 74.8145L26.4485 75.3046C25.5349 76.9613 25.4404 78.9479 26.1926 80.6839L26.8292 82.1533C27.54 83.7938 29.1571 84.8556 30.945 84.8556H31.2465C33.3779 84.8556 35.1632 86.4694 35.3775 88.59C35.4575 89.381 35.7629 90.1324 36.2573 90.7549L40.4538 96.0379C40.8079 96.4838 41.2998 96.7998 41.8525 96.9365C42.581 97.1166 43.1947 97.6054 43.5332 98.2751L43.865 98.9315C43.9549 99.1093 44.0319 99.2933 44.0956 99.4822L44.5 100.682L46.6665 107.647C47.7073 110.993 46.0428 114.583 42.8167 115.951C41.9484 116.319 41.1658 116.863 40.5185 117.549L37.6276 120.613C35.6189 122.742 34.5 125.558 34.5 128.485C34.5 131.285 35.524 133.988 37.379 136.085L38.1304 136.934C40.3114 139.4 43.268 141.048 46.5121 141.606L46.9605 141.683C50.8451 142.351 54.8392 141.54 58.1547 139.408L59.9132 138.277C61.9285 136.981 64.2739 136.292 66.6697 136.292C69.1659 136.292 71.6048 137.04 73.6721 138.439L74.3751 138.915C77.9558 141.338 82.3962 142.129 86.5934 141.092L90.9914 140.004C92.9898 139.51 95.0407 139.26 97.0992 139.26H105Z" fill="#1E304A" stroke="url(#paint0_linear_59_2632)" stroke-width="16"/>
<path d="M105 132H107.48C112.957 132 117.615 135.996 118.448 141.409C118.806 143.742 119.9 145.9 121.569 147.569L123.388 149.388C126.068 152.068 129.489 153.883 133.211 154.598L135.235 154.988C138.658 155.646 142.2 155.207 145.358 153.733L145.509 153.663C147.157 152.893 148.658 151.842 149.944 150.556L150.874 149.626C152.265 148.235 153.252 146.492 153.729 144.582C154.8 140.3 158.357 137.092 162.727 136.468L166 136C169.984 135.004 173.825 133.505 177.429 131.538L177.5 131.5L182.168 128.742C186.151 126.388 191.014 126.059 195.279 127.854L195.749 128.052C197.235 128.678 198.83 129 200.443 129H200.895C204.976 129 208.742 131.197 210.75 134.75C212.758 138.303 216.524 140.5 220.605 140.5H229.106C230.031 140.5 230.951 140.629 231.84 140.883L235.012 141.789C238.36 142.746 241.868 140.895 242.969 137.592C243.317 136.548 243.395 135.432 243.195 134.35L242.835 132.409C241.737 126.478 244.517 120.502 249.762 117.522L262.527 110.269C262.841 110.09 263.129 109.871 263.385 109.615L263.957 109.043C265.323 107.677 265.221 105.434 263.737 104.198C263.579 104.066 263.41 103.95 263.23 103.85L246.026 94.2924C245.681 94.1006 245.293 94 244.898 94C242.624 94 241.703 91.0704 243.569 89.77L250.058 85.2474C252.236 83.7298 252.771 80.7347 251.255 78.5563L212.038 22.21C211.035 20.7683 209.631 19.6523 208 19L207 18.5C206.082 17.8881 204.896 17.8525 203.943 18.4084L194.813 23.7343C193.939 24.2438 193.113 24.8293 192.342 25.4841L184.601 32.0644C183.936 32.6297 183.681 33.5424 183.957 34.3705C184.546 36.1387 182.75 37.7623 181.05 36.9975L178.638 35.9121C176.927 35.1421 174.919 35.9527 174.222 37.6949L173.172 40.3193C172.741 41.3979 171.91 42.2683 170.852 42.7491C168.686 43.7335 166.128 42.8656 165.009 40.7665L164.182 39.2156C163.424 37.7958 162.139 36.731 160.603 36.251C157.471 35.2721 154.123 36.9356 153.012 40.0235L151.569 44.031C150.903 45.8795 149.337 47.2583 147.42 47.6845C146.488 47.8916 145.519 47.8627 144.602 47.6005L144.004 47.4298C143.01 47.1458 141.972 47.0528 140.943 47.1557L139.815 47.2685C138.282 47.4218 136.784 47.8253 135.382 48.4629L133.05 49.5227C132.352 49.8402 131.686 50.2245 131.061 50.6704L129.541 51.7567C128.859 52.2438 128.315 52.9002 127.964 53.6612L127.764 54.0946C126.592 56.6333 123.392 57.4668 121.131 55.8223C120.395 55.2871 119.841 54.5384 119.546 53.6779L116.306 44.2535C115.31 41.3568 112.14 39.8261 109.249 40.838C106.563 41.7781 105.028 44.6125 105.718 47.3732L105.956 48.323C106.539 50.6571 105.178 53.036 102.869 53.7149C100.467 54.4215 97.947 53.0092 97.2768 50.5964C96.5848 48.1052 93.9429 46.6857 91.4902 47.5033L88.7472 48.4176C86.0873 49.3042 84.5889 52.1199 85.3393 54.8214L85.8616 56.7019C86.2324 58.0367 85.6058 59.4471 84.3667 60.0667C83.2519 60.624 81.9056 60.4056 81.0243 59.5243L78.0547 56.5547C76.4189 54.9189 74.2004 54 71.8871 54H69.0009C66.3756 54 63.7923 54.6587 61.4876 55.9158L60.7122 56.3388C59.9063 56.7784 59.146 57.3034 58.449 57.9008C56.8442 59.2764 55.59 61.025 54.805 62.9875L54.2704 64.3241C54.0913 64.7717 53.9871 65.2456 53.9617 65.727L53.6807 71.0666C53.6062 72.4825 51.948 73.2067 50.8587 72.2989C50.6238 72.1032 50.341 71.9735 50.0394 71.9232L45.4243 71.154C44.8105 71.0517 44.1863 71.0261 43.5662 71.0778L42.095 71.2004C39.9237 71.3814 37.8611 70.2221 36.8867 68.2734C36.6306 67.7611 36.2935 67.2935 35.8886 66.8886L34.6804 65.6804C33.6168 64.6168 32.132 64.0868 30.6353 64.2365C28.9864 64.4014 27.5253 65.3702 26.7318 66.8251L26.4372 67.3651C25.5297 69.0288 25.4358 71.0168 26.1823 72.7587L26.8377 74.288C27.5428 75.9333 29.1606 77 30.9505 77H31.1976C33.3562 77 35.1636 78.6357 35.3784 80.7835C35.4578 81.578 35.762 82.3335 36.2553 82.9613L40.4564 88.3082C40.8088 88.7566 41.3003 89.0751 41.8536 89.2134C42.5812 89.3953 43.193 89.8861 43.5285 90.557L43.8662 91.2323C43.9553 91.4106 44.0316 91.5949 44.0946 91.7839L44.5 93L46.6853 100.102C47.7173 103.456 46.0537 107.048 42.8283 108.431C41.9524 108.806 41.1642 109.36 40.514 110.056L37.6439 113.132C35.6236 115.296 34.5 118.147 34.5 121.108C34.5 123.939 35.5278 126.675 37.3923 128.806L38.1062 129.621C40.3021 132.131 43.2922 133.812 46.5776 134.383L46.9481 134.447C50.838 135.124 54.8399 134.304 58.1503 132.152L59.9229 131C61.9311 129.695 64.2748 129 66.67 129C69.165 129 71.6018 129.754 73.6609 131.163L74.3724 131.65C77.9516 134.098 82.4079 134.898 86.6152 133.846L90.9906 132.752C92.9893 132.253 95.0418 132 97.102 132H105Z" fill="#1E304A" stroke="#1E304A" stroke-width="16"/>
<g filter="url(#filter0_d_59_2632)">
<path d="M251.8 81.1872L252.104 79.4638L241.427 87.9471L228.114 96.2618L229.837 96.5657L231.46 97.4441L242.847 89.9744L252.071 83.012L251.8 81.1872Z" fill="url(#paint1_linear_59_2632)"/>
<path d="M185.02 33.2793L187.149 31.2852L193.67 26.2155L195.022 25.2691L196.373 24.3228L203.705 19.6922L206.983 17.9008L206.611 16.6505L194.312 24.2555L183.973 32.5022L185.02 33.2793Z" fill="url(#paint2_linear_59_2632)"/>
<path d="M185.629 34.8674L185.899 36.6921L228.114 96.2618L241.427 87.9471L252.104 79.4638L209.889 19.8941L208.267 19.0157L206.983 17.9008L203.705 19.6922L196.373 24.3228L195.022 25.2691L193.67 26.2155L187.149 31.2852L185.02 33.2793L185.629 34.8674Z" fill="url(#paint3_linear_59_2632)"/>
</g>
<path d="M224.26 82.8465L219.291 75.7508L239.565 61.5553L244.533 68.6509L224.26 82.8465Z" fill="black"/>
<path d="M218.954 75.9873L215.575 78.3532L220.544 85.4488L223.923 83.0829L218.954 75.9873Z" fill="#CF2F2E"/>
<path d="M251.8 81.1872L252.104 79.4638L241.427 87.9471L228.114 96.2618L229.837 96.5657L231.46 97.4441L242.847 89.9744L252.071 83.012L251.8 81.1872Z" fill="#74747D"/>
<path d="M185.02 33.2793L187.149 31.2852L193.67 26.2155L195.022 25.2691L196.373 24.3228L203.705 19.6922L206.983 17.9008L206.611 16.6505L194.312 24.2555L183.973 32.5022L185.02 33.2793Z" fill="#74747D"/>
<path d="M210.37 65.8851L208.511 64.6688L211.62 65.5132L214.594 65.4452L217.973 63.0793L221.251 66.3229L219.798 67.8437L218.582 69.7025L217.704 71.3246L217.4 73.048L217.028 71.7978L216.318 70.7841L216.521 69.6352L217.298 68.5875L217.974 68.1143L217.737 67.7764L216.487 68.1483L214.426 68.081L212.465 67.4392L210.37 65.8851Z" fill="url(#paint4_linear_59_2632)"/>
<path d="M216.357 56.0448L216.063 56.2053C214.625 56.9886 213.573 58.3286 213.153 59.911C213.007 60.4644 212.94 61.0362 212.956 61.6085L212.964 61.8851C213.001 63.2001 213.497 64.4608 214.364 65.4496C215.204 66.4066 216.343 67.0517 217.595 67.2802L217.711 67.3013C219.147 67.5633 220.63 67.2912 221.879 66.5362L224.046 65.2268C225.037 64.6282 225.848 63.7738 226.394 62.7534L226.781 62.0304C227.188 61.2708 227.337 60.3998 227.207 59.5481C227.049 58.5153 226.491 57.586 225.654 56.9606L225.157 56.5888C224.869 56.3737 224.561 56.1874 224.236 56.0324L223.985 55.9124C222.383 55.1464 220.577 54.9125 218.832 55.2449L218.321 55.3422C217.634 55.4731 216.972 55.7101 216.357 56.0448Z" fill="url(#paint5_linear_59_2632)"/>
<mask id="mask0_59_2632" style="mask-type:alpha" maskUnits="userSpaceOnUse" x="212" y="55" width="16" height="13">
<path d="M216.357 56.0448L216.063 56.2053C214.625 56.9886 213.573 58.3286 213.153 59.911C213.007 60.4644 212.94 61.0362 212.956 61.6085L212.964 61.8851C213.001 63.2001 213.497 64.4608 214.364 65.4496C215.204 66.4066 216.343 67.0517 217.595 67.2802L217.711 67.3013C219.147 67.5633 220.63 67.2912 221.879 66.5362L224.046 65.2268C225.037 64.6282 225.848 63.7738 226.394 62.7534L226.781 62.0304C227.188 61.2708 227.337 60.3998 227.207 59.5481C227.049 58.5153 226.491 57.586 225.654 56.9606L225.157 56.5888C224.869 56.3737 224.561 56.1874 224.236 56.0324L223.985 55.9124C222.383 55.1464 220.577 54.9125 218.832 55.2449L218.321 55.3422C217.634 55.4731 216.972 55.7101 216.357 56.0448Z" fill="url(#paint6_linear_59_2632)"/>
</mask>
<g mask="url(#mask0_59_2632)">
<path d="M221.689 65.5121L221.047 67.4722L222.737 66.2892L224.325 65.6807L226.217 63.3488L226.284 61.2875L225.101 59.598L223.75 60.5444L222.973 61.5921L223.007 63.0789L222.703 64.8024L221.689 65.5121Z" fill="url(#paint7_linear_59_2632)"/>
</g>
<path d="M213.14 61.9311L212.903 61.5932L212.667 61.2553L212.768 60.6808L212.531 60.3429L212.734 59.194L213.274 57.8084L213.578 56.085L214.693 54.8007L217.396 52.908L219.559 52.4008L221.046 52.3668L221.519 53.0426L220.945 52.9413L220.505 53.7523L218.377 55.7464L215.336 57.8757L213.41 58.7208L212.971 59.5318L212.869 60.1063L213.342 60.7821L213.579 61.12L213.14 61.9311Z" fill="url(#paint8_linear_59_2632)"/>
<path d="M224.088 60.3078L223.21 61.9299L223.92 62.9436L224.967 63.7207L227.029 63.7879L229.631 62.4697L230.948 60.0365L231.015 57.9751L229.934 55.7112L228.413 54.2584L227.163 54.6303L226.724 55.4413L226.96 55.7792L226.859 56.3537L227.095 56.6916L226.758 56.9282L226.656 57.5027L226.318 57.7393L226.555 58.0771L226.217 58.3137L225.643 58.2124L225.541 58.7869L225.203 59.0235L224.967 58.6856L224.865 59.2601L224.528 59.4967L224.764 59.8346L224.19 59.7333L224.088 60.3078Z" fill="url(#paint9_radial_59_2632)"/>
<path d="M221.598 77.1574C221.645 77.193 221.787 77.2702 221.796 77.3321C221.802 77.3742 221.793 77.4116 221.805 77.4532" stroke="#CF2F2E" stroke-width="0.5" stroke-linecap="round"/>
<path d="M222.693 78.7206C222.795 78.665 223.003 78.8813 222.913 78.9445" stroke="#CF2F2E" stroke-width="0.5" stroke-linecap="round"/>
<path d="M223.685 80.2279C223.763 80.246 223.861 80.2768 223.929 80.3161C223.991 80.3523 223.94 80.5278 223.936 80.587" stroke="#CF2F2E" stroke-width="0.5" stroke-linecap="round"/>
<path d="M227.422 83.05L227.315 83.0751C226.834 83.1878 226.425 83.5007 226.19 83.9349C225.878 84.5107 225.918 85.2133 226.294 85.7496L227.754 87.8351C228.217 88.4959 229.035 88.8083 229.82 88.6242L229.927 88.5992C230.408 88.4864 230.817 88.1735 231.052 87.7393C231.364 87.1635 231.324 86.461 230.948 85.9246L229.488 83.8391C229.025 83.1784 228.207 82.8659 227.422 83.05Z" fill="black"/>
<path d="M227.321 84.3858C226.87 84.7761 227.566 85.6447 227.809 85.9815C228.051 86.316 228.49 86.7521 228.939 86.5223C229.298 86.339 229.39 85.8525 229.41 85.4864C229.427 85.1806 229.179 84.8435 228.981 84.6292C228.793 84.4252 228.586 84.3357 228.33 84.2531C228.049 84.1628 227.811 84.2145 227.541 84.295" stroke="white" stroke-width="0.5" stroke-linecap="round"/>
<path d="M235.323 81.647C236.06 82.6988 235.804 84.1485 234.753 84.885C233.701 85.6215 232.251 85.3658 231.515 84.314C230.778 83.2622 231.034 81.8125 232.085 81.0761C233.137 80.3396 234.587 80.5952 235.323 81.647Z" stroke="black" stroke-width="0.3"/>
<path d="M238.701 79.2807C239.437 80.3325 239.182 81.7822 238.13 82.5186C237.078 83.2551 235.628 82.9995 234.892 81.9477C234.155 80.8959 234.411 79.4462 235.463 78.7097C236.514 77.9732 237.964 78.2289 238.701 79.2807Z" stroke="black" stroke-width="0.3"/>
<path d="M242.081 76.9154C242.818 77.9672 242.562 79.4169 241.51 80.1534C240.458 80.8899 239.009 80.6342 238.272 79.5824C237.536 78.5306 237.791 77.0809 238.843 76.3445C239.895 75.608 241.345 75.8636 242.081 76.9154Z" stroke="black" stroke-width="0.3"/>
<path d="M233.222 81.8906C233.262 81.944 233.304 82.0174 233.37 82.0442C233.437 82.0715 233.513 82.0291 233.492 81.9516C233.471 81.8708 233.311 81.6087 233.193 81.6736C233.18 81.6804 233.209 81.6972 233.218 81.7079C233.258 81.7527 233.288 81.8114 233.31 81.866C233.414 82.1223 233.381 82.4486 233.368 82.7185C233.361 82.8727 233.292 82.9774 233.454 82.9116C233.592 82.856 233.757 82.8349 233.848 82.7044C233.856 82.6923 233.917 82.5529 233.88 82.6051C233.736 82.8044 233.649 83.0061 233.403 83.1031C233.288 83.1487 233.138 83.1452 233.035 83.2172C232.959 83.2709 232.949 83.5871 232.988 83.6633C233.026 83.738 233.352 83.5039 233.415 83.4867C233.562 83.4463 233.443 83.845 233.431 83.8916C233.396 84.0228 233.35 84.1512 233.303 84.2784C233.282 84.3348 233.189 84.445 233.249 84.4508C233.405 84.4662 233.659 84.1589 233.751 84.0694C233.827 83.9954 234.014 83.7277 234.15 83.8303C234.269 83.9197 234.324 84.0941 234.384 84.2242" stroke="black" stroke-width="0.3" stroke-linecap="round"/>
<path d="M236.775 79.592C236.703 79.6421 236.68 79.8174 236.807 79.8075C236.824 79.8061 236.886 79.7644 236.897 79.7967C236.939 79.9194 236.938 80.0658 236.971 80.1924C236.985 80.2451 237.023 80.4539 237.107 80.3316C237.186 80.2167 237.241 80.0893 237.33 79.9799C237.487 79.7866 237.739 80.3977 237.792 80.5099C237.845 80.6249 237.88 80.7563 237.872 80.8841C237.863 81.0276 237.703 80.9677 237.61 80.9449C237.377 80.8879 237.154 80.8035 236.927 80.7268C236.816 80.689 236.78 80.7988 236.723 80.8842C236.661 80.9769 236.171 81.5867 236.361 81.6464C236.449 81.674 236.529 81.6558 236.615 81.6263C236.916 81.5223 237.18 81.3491 237.455 81.1933" stroke="black" stroke-width="0.3" stroke-linecap="round"/>
<path d="M239.643 77.1738C239.586 77.2182 239.579 77.2672 239.622 77.3316C239.699 77.447 239.805 77.3622 239.883 77.2963C239.939 77.2481 239.919 77.2471 239.861 77.2586C239.774 77.2762 239.891 77.3936 239.915 77.4275C240.1 77.6914 240.203 77.9975 240.355 78.2807C240.431 78.423 240.382 78.5412 240.391 78.6964C240.395 78.7749 240.414 79.0147 240.539 79.0086C240.757 78.9981 241.003 78.7882 241.156 78.6503C241.194 78.6165 241.347 78.5051 241.348 78.4456C241.351 78.2958 241.423 78.1879 241.52 78.0704C241.598 77.9746 241.645 77.9019 241.71 78.0423C241.768 78.1692 241.843 78.3251 241.804 78.4694C241.751 78.6633 241.548 78.8169 241.399 78.9317C241.251 79.0447 241.065 79.162 240.889 79.2276C240.801 79.2602 240.636 79.2028 240.537 79.213C240.38 79.2291 240.18 79.2687 240.153 79.4539C240.144 79.5176 240.135 79.7032 240.225 79.7289C240.353 79.7655 240.547 79.4561 240.59 79.3755C240.702 79.1651 240.732 78.9222 240.811 78.6995C240.834 78.6334 240.963 78.4749 240.938 78.4041C240.838 78.1156 240.446 77.9296 240.404 77.6063C240.372 77.3604 240.967 77.5283 241.051 77.566C241.265 77.6621 241.042 77.7849 240.926 77.8527C240.78 77.9384 240.593 78.0433 240.416 78.0384C240.294 78.0351 240.122 77.9498 240.013 78.0322C239.851 78.1549 239.782 78.4206 239.708 78.6008C239.701 78.6168 239.616 78.7644 239.69 78.7148C239.764 78.6659 239.821 78.6124 239.882 78.5491" stroke="black" stroke-width="0.3" stroke-linecap="round"/>
<path d="M201.35 38.3734L201.417 38.7038C201.502 39.1185 201.671 39.5112 201.914 39.8579C202.14 40.1804 202.425 40.4568 202.754 40.6723L202.861 40.7422C203.438 41.1195 204.107 41.3309 204.796 41.3534L204.845 41.355C205.475 41.3756 206.101 41.2445 206.67 40.9728L207.138 40.7489C207.746 40.4583 208.263 40.0064 208.632 39.4424L208.783 39.2125C209.109 38.7142 209.584 38.3313 210.14 38.1182C210.619 37.9345 211.14 37.8846 211.645 37.9737L213.17 38.2427L212.999 39.2149C212.844 40.0929 212.549 40.9403 212.124 41.7243L212.097 41.7745C211.667 42.5682 211.106 43.2831 210.436 43.8886L210.372 43.9465C209.458 44.7728 208.358 45.3649 207.165 45.6722L207.063 45.6984C206.078 45.9522 205.05 45.9921 204.048 45.8154C203.155 45.6579 202.3 45.3315 201.529 44.8536L201.187 44.6415C200.417 44.1641 199.722 43.576 199.124 42.8959L198.487 42.1723C197.874 41.4756 197.403 40.6659 197.1 39.7888C196.757 38.7944 196.637 37.7364 196.751 36.6905L196.785 36.3714C196.959 34.7693 197.581 33.2487 198.58 31.984L198.819 31.6812C199.416 30.9244 200.121 30.2589 200.911 29.7057L203.099 28.174L205.802 26.2812L205.922 27.0869C206.022 27.7619 206.012 28.4486 205.894 29.1206C205.744 29.9673 205.425 30.7749 204.954 31.4943L204.9 31.5773C204.602 32.0326 204.251 32.4506 203.853 32.8225L202.945 33.6734C202.533 34.0597 202.185 34.51 201.916 35.0069L201.823 35.1788C201.295 36.1549 201.127 37.286 201.35 38.3734Z" fill="url(#paint10_linear_59_2632)"/>
<mask id="mask1_59_2632" style="mask-type:alpha" maskUnits="userSpaceOnUse" x="196" y="26" width="18" height="20">
<path d="M201.038 36.8529L201.434 38.7848C201.508 39.146 201.655 39.4882 201.867 39.7902C202.124 40.1574 202.449 40.4721 202.824 40.7176L203.683 41.2801C203.722 41.3056 203.767 41.3199 203.814 41.3214L204.845 41.355C205.475 41.3756 206.101 41.2445 206.67 40.9728L207.138 40.7489C207.746 40.4583 208.263 40.0064 208.632 39.4424L208.783 39.2125C209.109 38.7142 209.584 38.3313 210.14 38.1182C210.619 37.9345 211.14 37.8846 211.645 37.9737L213.17 38.2427L212.999 39.2149C212.844 40.0929 212.549 40.9403 212.124 41.7243L212.097 41.7745C211.667 42.5682 211.106 43.2831 210.436 43.8886L210.372 43.9465C209.458 44.7728 208.358 45.3649 207.165 45.6722L207.063 45.6984C206.078 45.9522 205.05 45.9921 204.048 45.8154C203.155 45.6579 202.3 45.3315 201.529 44.8536L201.187 44.6415C200.417 44.1641 199.722 43.576 199.124 42.8959L198.487 42.1723C197.874 41.4756 197.403 40.6659 197.1 39.7888C196.757 38.7944 196.637 37.7364 196.751 36.6905L196.785 36.3714C196.959 34.7693 197.581 33.2487 198.58 31.984L198.819 31.6812C199.416 30.9244 200.121 30.2589 200.911 29.7057L203.099 28.174L205.802 26.2812L205.922 27.0869C206.022 27.7619 206.012 28.4486 205.894 29.1206C205.744 29.9673 205.425 30.7749 204.954 31.4943L204.9 31.5773C204.602 32.0326 204.251 32.4506 203.853 32.8225L202.945 33.6734C202.533 34.0597 202.185 34.51 201.916 35.0069L201.084 36.5436C201.033 36.6381 201.017 36.7476 201.038 36.8529Z" fill="url(#paint11_linear_59_2632)"/>
</mask>
<g mask="url(#mask1_59_2632)">
<path d="M202.32 33.7551L203.776 32.7361L206.797 30.6203C207.025 30.4608 207.176 30.2137 207.214 29.9383L207.959 24.5582C208.072 23.7395 207.2 23.1446 206.479 23.5489L201.116 26.5571C201.042 26.599 200.973 26.6502 200.911 26.7096L195.445 31.983C195.345 32.0793 195.267 32.1954 195.214 32.3238L192.951 37.8513C192.795 38.232 192.888 38.6692 193.186 38.9533L197.089 42.6825C197.16 42.7502 197.278 42.7116 197.295 42.6151L197.559 41.1183C197.955 38.8733 199.026 36.8024 200.629 35.1819C201.149 34.6566 201.715 34.179 202.32 33.7551Z" fill="url(#paint12_linear_59_2632)"/>
</g>
<path d="M192.231 36.3515L192.256 36.2613C192.358 35.8856 192.66 35.5978 193.04 35.5143C193.315 35.4541 193.602 35.5068 193.837 35.6606L194.041 35.794C194.39 36.0225 194.638 36.3765 194.733 36.7828L194.783 36.9981C194.851 37.2855 194.8 37.588 194.642 37.8373L194.577 37.9389C194.414 38.1965 194.129 38.3514 193.824 38.3486C193.68 38.3472 193.539 38.3107 193.412 38.2422L193.158 38.1048C192.919 37.9749 192.712 37.791 192.556 37.5676L192.406 37.3539C192.202 37.0623 192.138 36.695 192.231 36.3515Z" stroke="#AFB9C3" stroke-linecap="round"/>
<path d="M188.569 33.3126C189.504 32.4902 191.441 30.7981 193.063 29.6624" stroke="#5B5B63" stroke-linecap="round"/>
<path d="M194.077 28.9521L194.415 28.7154" stroke="#5B5B63" stroke-linecap="round"/>
<path d="M195.428 28.006C195.428 28.006 198.122 25.6608 205.967 20.7676" stroke="#5B5B63" stroke-linecap="round"/>
<path d="M216.61 49.6292L221.003 46.5535" stroke="#D24B4A" stroke-width="1.5" stroke-linecap="round"/>
<path d="M218.412 72.3384L226.522 66.6602" stroke="#D24B4A" stroke-width="1.3" stroke-linecap="round"/>
<path d="M219.121 73.3519L227.23 67.6737" stroke="#D24B4A" stroke-width="1.3" stroke-linecap="round"/>
<path d="M228.584 66.7273L233.99 62.9419" stroke="#353636" stroke-width="1.3" stroke-linecap="round"/>
<path d="M222.543 76.798L233.355 69.2271" stroke="white" stroke-width="1.3" stroke-linecap="round"/>
<path d="M224.766 79.9743L235.579 72.4034" stroke="white" stroke-width="1.3" stroke-linecap="round"/>
<path d="M223.583 78.2848L239.464 67.165" stroke="white" stroke-width="1.3" stroke-linecap="round"/>
<path d="M229.296 87.8815L230.31 87.1715" stroke="white" stroke-width="0.7" stroke-linecap="round"/>
<path d="M229.938 90.9564L237.71 85.5148" stroke="#29292A" stroke-width="0.7" stroke-linecap="round"/>
<path d="M230.649 91.9695L239.434 85.8181" stroke="#29292A" stroke-width="0.7" stroke-linecap="round"/>
<path d="M242.576 83.1148L248.32 79.0928" stroke="#29292A" stroke-linecap="round"/>
<path d="M207.018 52.7156L207.624 53.008C207.656 53.0231 207.684 53.0407 207.702 53.0658C207.724 53.0981 207.733 53.1404 207.721 53.2076C207.603 53.8787 207.27 54.3736 206.839 54.6751C206.018 55.2505 204.851 55.1265 204.212 54.215C203.451 53.1278 203.924 52.0694 204.774 51.4739C205.094 51.2503 205.448 51.1146 205.767 51.1048C205.805 51.1052 205.851 51.1321 205.876 51.168C205.883 51.1787 205.888 51.1859 205.892 51.1992L206.088 51.9069C206.098 51.9431 206.084 52.0005 206.045 52.0282C206.03 52.0382 206.014 52.0447 205.998 52.045C205.836 52.0512 205.593 52.1309 205.388 52.2741C204.936 52.5907 204.87 53.054 205.177 53.4918C205.473 53.9152 205.963 53.9356 206.34 53.6718C206.591 53.4959 206.797 53.1861 206.855 52.7874C206.859 52.763 206.875 52.7408 206.893 52.7282C206.929 52.7031 206.984 52.697 207.018 52.7156Z" fill="black"/>
<path d="M210.237 52.1087L209.339 52.8122C209.336 52.8147 209.331 52.8233 209.328 52.8259L208.653 53.3517L208.646 53.3567C208.603 53.3869 208.539 53.3725 208.506 53.332L206.399 50.6361L206.394 50.6289C206.363 50.5858 206.375 50.5187 206.418 50.4886L207.046 49.9954L207.061 49.9853L207.98 49.2668L207.987 49.2617C208.03 49.2316 208.097 49.2434 208.131 49.284L208.597 49.8882L208.602 49.8954C208.632 49.9385 208.62 50.0056 208.58 50.0393L207.774 50.6678L208.008 50.9639L208.65 50.5141C208.693 50.484 208.761 50.4897 208.794 50.5363L208.799 50.5435L209.176 51.0976C209.208 51.1503 209.2 51.2149 209.149 51.2501L208.554 51.6672L208.805 51.9883L209.645 51.3311L209.652 51.3261C209.698 51.2934 209.766 51.3053 209.796 51.3483L210.258 51.9551C210.291 52.0018 210.285 52.0699 210.237 52.1087Z" fill="black"/>
<path d="M212.505 50.6546L212.498 50.6596L211.561 51.2461L211.546 51.2562L210.775 51.7429C210.726 51.772 210.662 51.7576 210.627 51.7074L208.814 48.8055C208.788 48.7599 208.799 48.6989 208.845 48.6662L208.852 48.6612L209.62 48.177C209.669 48.1479 209.733 48.1622 209.768 48.2125L211.051 50.2661L211.917 49.7237C211.97 49.6922 212.036 49.7101 212.069 49.7567L212.533 50.5117C212.56 50.5573 212.552 50.6219 212.505 50.6546Z" fill="black"/>
<path d="M212.952 50.24L212.457 49.7847C212.448 49.78 212.44 49.7692 212.435 49.7621C212.398 49.7082 212.439 49.6526 212.46 49.6375L212.475 49.6275C212.719 49.4566 212.894 49.1415 212.736 48.9154C212.653 48.797 212.513 48.7346 212.108 48.5689C211.805 48.4494 211.6 48.2937 211.477 48.1179C211.08 47.5509 211.502 46.7793 212.105 46.3571C212.245 46.2591 212.327 46.2232 212.401 46.2835L212.898 46.7267C212.909 46.7349 212.917 46.7457 212.922 46.7529C212.962 46.8103 212.923 46.8695 212.902 46.8846L212.88 46.8996C212.647 47.063 212.489 47.3024 212.632 47.5069C212.717 47.6289 212.925 47.7347 213.253 47.8524C213.56 47.9693 213.765 48.1251 213.891 48.3045C214.308 48.9002 213.84 49.7518 213.219 50.1865C213.183 50.2116 213.151 50.2342 213.113 50.2558C213.066 50.2884 212.995 50.2791 212.952 50.24Z" fill="black"/>
<path d="M215.883 48.2249L215.09 48.7802C215.043 48.8129 214.976 48.801 214.944 48.7544L212.981 45.9519C212.949 45.9052 212.961 45.8381 213.007 45.8054L213.8 45.2502C213.847 45.2175 213.914 45.2293 213.947 45.276L215.909 48.0785C215.942 48.1251 215.93 48.1923 215.883 48.2249Z" fill="black"/>
<path d="M216.438 43.3548L217.156 42.8523C217.203 42.8196 217.27 42.8315 217.306 42.8756C217.486 43.1024 217.784 43.4978 218.068 43.9033C218.239 44.1473 218.409 44.3974 218.537 44.6181C219.053 45.4923 218.652 46.3934 217.977 46.8658C217.32 47.3256 216.408 47.3817 215.804 46.6117L214.529 44.9808L214.524 44.9736C214.491 44.927 214.502 44.8659 214.542 44.8322L215.246 44.2863L215.253 44.2812C215.296 44.2511 215.357 44.2618 215.391 44.3024C216.64 45.9035 216.326 45.4926 216.622 45.8784C216.84 46.159 217.163 46.1467 217.393 45.9859C217.63 45.8201 217.762 45.4975 217.574 45.1749C217.47 44.9962 217.313 44.764 217.139 44.5164C216.913 44.1934 216.651 43.8421 216.408 43.5257L216.403 43.5185C216.35 43.4431 216.402 43.38 216.438 43.3548Z" fill="black"/>
<path d="M219.82 45.4307L219.325 44.9754C219.316 44.9707 219.309 44.96 219.304 44.9528C219.266 44.899 219.307 44.8433 219.329 44.8283L219.343 44.8182C219.587 44.6473 219.762 44.3322 219.604 44.1062C219.521 43.9877 219.381 43.9253 218.976 43.7596C218.673 43.6401 218.468 43.4844 218.345 43.3086C217.948 42.7416 218.37 41.97 218.973 41.5479C219.113 41.4499 219.195 41.414 219.269 41.4742L219.767 41.9174C219.778 41.9256 219.785 41.9364 219.79 41.9436C219.831 42.001 219.792 42.0602 219.77 42.0753L219.749 42.0904C219.515 42.2537 219.357 42.4931 219.5 42.6976C219.586 42.8196 219.793 42.9254 220.122 43.0431C220.428 43.1601 220.633 43.3158 220.759 43.4952C221.176 44.0909 220.708 44.9425 220.088 45.3772C220.052 45.4023 220.019 45.425 219.981 45.4465C219.934 45.4792 219.864 45.4698 219.82 45.4307Z" fill="black"/>
<mask id="mask2_59_2632" style="mask-type:alpha" maskUnits="userSpaceOnUse" x="183" y="16" width="70" height="82">
<path d="M251.8 81.1872L252.104 79.4637L241.427 87.9471L228.114 96.2618L229.837 96.5657L231.46 97.444L242.846 89.9744L252.071 83.0119L251.8 81.1872Z" fill="white" fill-opacity="0.9" shape-rendering="crispEdges"/>
<path d="M185.02 33.2793L187.149 31.2852L193.67 26.2155L195.022 25.2691L196.373 24.3228L203.705 19.6922L206.983 17.9008L206.611 16.6505L194.312 24.2555L183.973 32.5022L185.02 33.2793Z" fill="white" fill-opacity="0.9" shape-rendering="crispEdges"/>
<path d="M185.629 34.8674L185.899 36.6921L228.114 96.2618L241.427 87.9471L252.104 79.4637L209.889 19.8941L208.267 19.0157L206.983 17.9008L203.705 19.6922L196.373 24.3228L195.022 25.2691L193.67 26.2155L187.149 31.2852L185.02 33.2793L185.629 34.8674Z" fill="white" fill-opacity="0.9" shape-rendering="crispEdges"/>
</mask>
<g mask="url(#mask2_59_2632)">
<g filter="url(#filter1_dd_59_2632)">
<path d="M181.828 46.2306L178.128 35.9049C177.61 34.4603 176.544 33.278 175.16 32.6145C171.511 30.8643 167.232 33.2742 166.837 37.3025L164.17 64.4915C163.556 70.7435 165.324 76.9967 169.119 82.0027L190.898 110.732C195.941 117.384 203.369 121.817 211.618 123.098L228.267 125.683C234.391 126.634 240.294 122.975 242.166 117.067L243.979 111.345C246.166 104.442 239.912 97.8248 232.897 99.6195C229.578 100.468 226.062 99.4089 223.765 96.8675L218.5 91.0424L201.307 72.4949L187.588 56.2336C185.087 53.2693 183.137 49.8816 181.828 46.2306Z" fill="#9570FF" fill-opacity="0.7" shape-rendering="crispEdges"/>
</g>
</g>
<g filter="url(#filter2_d_59_2632)">
<path d="M94.256 86.7813L93.7287 86.7537C92.6742 86.6984 92.2049 86.4816 91.96 85.6516L90.1423 79.9807C90.1019 79.8344 90.0615 79.6881 90.0665 79.5922C90.1042 78.8732 91.0679 78.8276 91.6431 78.8577C94.4738 78.958 95.8863 77.6862 95.9466 76.5357C95.9792 75.9126 95.3963 75.113 94.7704 74.215L93.5515 72.7092C91.568 70.2019 90.8132 68.0955 90.9087 66.274C91.1926 60.8575 99.1566 58.3909 105.436 58.72C107.305 58.8179 107.775 59.0348 108.065 59.9152L109.931 65.5886C110.016 65.7854 110.009 65.9292 110.001 66.073C109.974 66.6003 109.436 66.7644 108.813 66.7317L108.622 66.7217C105.745 66.5709 104.593 67.4718 104.543 68.4305C104.5 69.2454 105.171 70.1938 106.887 72.3025C108.966 74.8148 109.812 77.0221 109.717 78.8436C109.42 84.4998 100.679 87.1179 94.256 86.7813Z" fill="white"/>
<path d="M126.727 78.2148L117.551 81.1962C117.049 81.3593 116.504 81.082 116.341 80.5798L104.223 43.2832C104.045 42.7354 104.322 42.191 104.824 42.0279L114 39.0465C114.502 38.8833 115.047 39.1607 115.225 39.7085L127.343 77.0051C127.506 77.5073 127.229 78.0516 126.727 78.2148Z" fill="white"/>
<path d="M143.099 75.994H142.523C131.627 75.994 126.155 68.554 126.155 61.258C126.155 54.394 131.003 47.194 141.947 47.194C153.851 47.194 154.379 57.802 154.379 59.386C154.379 61.594 153.467 63.418 150.635 64.378C148.379 65.146 144.827 65.674 142.331 65.77C141.563 65.77 141.323 65.434 141.131 64.858C140.555 63.274 139.643 60.154 139.643 59.962C139.643 59.434 140.027 59.194 140.651 59.05C143.147 58.474 143.483 58.378 143.483 57.706C143.483 57.274 142.571 55.738 140.555 55.738C138.251 55.738 136.331 57.754 136.331 60.73C136.331 64.138 138.827 67.978 144.827 67.978C145.163 67.978 145.547 67.978 145.883 67.93H145.979C146.651 67.93 147.467 68.362 147.467 69.178C147.467 69.658 146.219 72.922 145.499 74.554C145.115 75.322 144.491 75.994 143.099 75.994Z" fill="white"/>
<path d="M166.099 91.994H165.523C154.627 91.994 149.155 84.554 149.155 77.258C149.155 70.394 154.003 63.194 164.947 63.194C176.851 63.194 177.379 73.802 177.379 75.386C177.379 77.594 176.467 79.418 173.635 80.378C171.379 81.146 167.827 81.674 165.331 81.77C164.563 81.77 164.323 81.434 164.131 80.858C163.555 79.274 162.643 76.154 162.643 75.962C162.643 75.434 163.027 75.194 163.651 75.05C166.147 74.474 166.483 74.378 166.483 73.706C166.483 73.274 165.571 71.738 163.555 71.738C161.251 71.738 159.331 73.754 159.331 76.73C159.331 80.138 161.827 83.978 167.827 83.978C168.163 83.978 168.547 83.978 168.883 83.93H168.979C169.651 83.93 170.467 84.362 170.467 85.178C170.467 85.658 169.219 88.922 168.499 90.554C168.115 91.322 167.491 91.994 166.099 91.994Z" fill="white"/>
<path d="M180.48 105.231L171.513 101.762C171.057 101.614 170.78 101.07 170.943 100.568L170.972 100.476L184.516 65.0055C184.725 64.5182 185.269 64.2408 185.726 64.3892L185.817 64.4188L193.307 67.3068C195.508 67.2142 197.635 67.5016 199.552 68.1246C207.587 70.7352 212.901 78.922 210.202 87.2305C207.502 95.5389 199.907 98.8753 191.279 96.0719C189.362 95.4489 187.579 94.5669 186.068 93.4702L181.781 104.644C181.558 105.177 181.028 105.409 180.48 105.231ZM192.707 76.1457L189.238 85.1127C190.079 85.9412 191.284 86.7365 192.563 87.1519C192.928 87.2705 197.31 88.6945 198.942 83.6729C199.965 80.523 198.303 77.5605 195.108 76.5222C194.377 76.2848 193.557 76.1696 192.707 76.1457Z" fill="white"/>
<path d="M70.3469 120.193L70.1913 126.728C70.1769 127.717 69.9117 128.342 69.2441 128.612C69.2441 128.612 65.2548 129.757 61.7556 128.272C59.8208 130.659 57.4912 132.325 55.0435 133.314C47.6112 136.316 38.9454 133.191 36.0504 126.026C33.8567 120.596 34.5649 111.458 43.3768 107.897C45.2905 107.124 47.3661 106.751 49.202 106.683L45.1841 94.4318C44.923 93.6572 45.4552 92.9244 46.3453 92.5648L54.0986 89.5876C55.3447 89.0841 55.9345 89.5188 56.1863 90.1419L56.2402 90.2754C56.385 90.89 62.4589 110.024 63.6996 113.095C65.1741 116.744 66.805 119.243 68.9533 119.307C69.5328 119.332 70.1123 119.356 70.2741 119.757C70.328 119.89 70.382 120.024 70.3469 120.193ZM55.7907 122.606C54.67 120.729 53.539 118.442 52.3882 115.594C51.5391 114.902 50.0412 114.782 48.706 115.322C46.0358 116.4 45.3335 119.531 46.3405 122.024C47.3474 124.516 49.9462 125.951 52.7945 124.8C53.7736 124.405 54.7783 123.688 55.7907 122.606Z" fill="white"/>
<path d="M86.5308 114.949L85.9967 115.165C75.8941 119.247 68.0335 114.398 65.3004 107.634C62.7291 101.269 64.5269 92.7775 74.674 88.6778C85.7112 84.2185 90.1746 93.8563 90.7679 95.325C91.5951 97.3722 91.4328 99.405 89.1666 101.356C87.3626 102.913 84.267 104.733 81.9887 105.757C81.2766 106.045 80.9282 105.823 80.5345 105.361C79.407 104.108 77.3927 101.557 77.3207 101.379C77.1229 100.89 77.3891 100.523 77.9137 100.156C80.0122 98.6869 80.2877 98.4721 80.036 97.849C79.8742 97.4485 78.4532 96.3659 76.584 97.1211C74.4478 97.9842 73.4228 100.573 74.5376 103.332C75.8143 106.492 79.567 109.117 85.1301 106.87C85.4416 106.744 85.7977 106.6 86.0912 106.429L86.1802 106.394C86.8033 106.142 87.7217 106.237 88.0274 106.993C88.2072 107.438 88.2728 110.932 88.2166 112.715C88.1482 113.571 87.8214 114.428 86.5308 114.949Z" fill="white"/>
<path d="M103.715 132.33L94.1004 132.305C93.621 132.33 93.167 131.922 93.1394 131.394L93.1344 131.298L93.0672 93.33C93.0875 92.8002 93.4963 92.3462 93.9756 92.321L94.0715 92.316L102.099 92.3279C104.12 91.4529 106.209 90.9589 108.222 90.8534C116.659 90.4113 124.554 96.1499 125.011 104.874C125.468 113.598 119.574 119.435 110.514 119.909C108.501 120.015 106.521 119.83 104.717 119.348L104.719 131.316C104.701 131.894 104.29 132.3 103.715 132.33ZM104.706 100.795L104.681 110.41C105.763 110.882 107.173 111.192 108.515 111.122C108.899 111.102 113.501 110.861 113.224 105.588C113.051 102.28 110.438 100.11 107.082 100.286C106.315 100.326 105.508 100.513 104.706 100.795Z" fill="white"/>
<path d="M142.679 109.006L134.093 113.224C133.563 113.449 132.971 113.283 132.746 112.753L121.756 90.3024C121.531 89.7722 121.741 89.1615 122.227 88.9552L127.24 86.5145C129.307 84.7506 131.455 83.4219 133.664 82.4841C135.166 81.8465 136.699 81.4043 138.2 81.1322C138.938 81.0276 139.353 81.2685 139.578 81.7987C139.653 81.9755 139.684 82.171 139.734 82.4106L141.097 89.1845C141.227 89.8594 140.916 90.3562 140.386 90.5813C140.254 90.6375 140.058 90.6684 139.863 90.6992C139.062 90.7784 138.254 90.9646 137.503 91.2835C136.885 91.546 136.304 91.897 135.672 92.3738L143.15 107.659L143.188 107.747C143.394 108.233 143.165 108.8 142.679 109.006Z" fill="white"/>
<path d="M150.963 132.446L141.603 130.262L141.51 130.235C141.003 130.09 140.753 129.568 140.852 129.048L146.142 106.246C146.301 105.693 146.789 105.383 147.356 105.496L156.716 107.681L156.808 107.707C157.27 107.84 157.566 108.374 157.434 108.835L152.131 131.683L152.104 131.775C151.972 132.236 151.438 132.532 150.963 132.446ZM160.593 100.603C159.522 104.341 155.603 106.513 151.866 105.441C148.082 104.356 145.91 100.438 146.982 96.7002C148.067 92.9167 151.985 90.7446 155.769 91.8295C159.506 92.9012 161.678 96.8197 160.593 100.603Z" fill="white"/>
<path d="M160.437 135.017L156.778 131.837C156.054 131.207 155.527 130.495 155.727 129.46L161.099 106.527C161.232 106.007 161.412 105.654 161.632 105.401C161.979 105.002 162.416 104.938 162.972 105.103C164.188 105.46 170.634 107.629 171.395 108.291C171.938 108.763 172.08 109.332 171.947 109.851L168.226 122.326C168.141 122.57 168.186 122.737 168.259 122.8C168.367 122.895 168.503 122.885 168.8 122.762C172.619 120.93 179.241 117.337 180.03 116.941C180.656 116.659 181.208 116.757 181.679 117.166C181.932 117.387 182.154 117.643 182.35 118.004L185.913 123.709C186.525 124.687 186.537 125.333 186.096 125.84C185.592 126.419 170.333 135.924 162.539 135.891C161.925 135.866 161.089 135.584 160.437 135.017Z" fill="white"/>
<path d="M203.552 128.414L202.977 128.434C192.087 128.814 186.359 121.57 186.104 114.278C185.865 107.418 190.458 100.054 201.396 99.6717C213.292 99.2562 214.19 109.839 214.246 111.422C214.323 113.629 213.475 115.484 210.678 116.542C208.45 117.388 204.919 118.04 202.428 118.223C201.66 118.25 201.409 117.922 201.197 117.353C200.566 115.79 199.545 112.704 199.539 112.512C199.52 111.985 199.896 111.731 200.514 111.566C202.989 110.903 203.321 110.795 203.298 110.124C203.283 109.692 202.318 108.189 200.303 108.259C198 108.339 196.152 110.421 196.256 113.395C196.374 116.801 199.003 120.552 204.999 120.343C205.335 120.331 205.719 120.317 206.053 120.258L206.149 120.254C206.821 120.231 207.651 120.634 207.68 121.45C207.696 121.929 206.563 125.235 205.9 126.891C205.543 127.672 204.943 128.365 203.552 128.414Z" fill="white"/>
<path d="M243.129 134.482L240.748 140.569C240.396 141.494 239.933 141.99 239.213 142.015C239.213 142.015 235.073 141.728 232.292 139.135C229.658 140.716 226.899 141.485 224.261 141.577C216.25 141.857 209.175 135.956 208.906 128.233C208.701 122.38 212.492 114.035 221.991 113.703C224.053 113.631 226.131 113.991 227.88 114.554L228.294 101.668C228.314 100.851 229.065 100.344 230.024 100.311L238.328 100.165C239.671 100.118 240.077 100.728 240.1 101.4L240.105 101.544C240.031 102.171 239.194 122.228 239.31 125.538C239.447 129.472 240.125 132.378 242.122 133.172C242.658 133.394 243.194 133.615 243.209 134.047C243.214 134.191 243.219 134.335 243.129 134.482ZM228.625 131.771C228.214 129.624 227.933 127.088 227.826 124.018C227.265 123.077 225.898 122.452 224.459 122.502C221.581 122.603 219.85 125.305 219.944 127.991C220.038 130.678 221.989 132.915 225.059 132.808C226.114 132.771 227.304 132.441 228.625 131.771Z" fill="white"/>
</g>
<mask id="mask3_59_2632" style="mask-type:alpha" maskUnits="userSpaceOnUse" x="35" y="39" width="209" height="104">
<path d="M94.256 86.7813L93.7287 86.7537C92.6742 86.6984 92.2049 86.4816 91.96 85.6516L90.1423 79.9807C90.1019 79.8344 90.0615 79.6881 90.0665 79.5922C90.1042 78.8732 91.0679 78.8276 91.6431 78.8577C94.4738 78.958 95.8863 77.6862 95.9466 76.5357C95.9792 75.9126 95.3963 75.113 94.7704 74.215L93.5515 72.7092C91.568 70.2019 90.8132 68.0955 90.9087 66.274C91.1926 60.8575 99.1566 58.3909 105.436 58.72C107.305 58.8179 107.775 59.0348 108.065 59.9152L109.931 65.5886C110.016 65.7854 110.009 65.9292 110.001 66.073C109.974 66.6003 109.436 66.7644 108.813 66.7317L108.622 66.7217C105.745 66.5709 104.593 67.4718 104.543 68.4305C104.5 69.2454 105.171 70.1938 106.887 72.3025C108.966 74.8148 109.812 77.0221 109.717 78.8436C109.42 84.4998 100.679 87.1179 94.256 86.7813Z" fill="white"/>
<path d="M126.727 78.2148L117.551 81.1962C117.049 81.3593 116.504 81.082 116.341 80.5798L104.223 43.2832C104.045 42.7354 104.322 42.191 104.824 42.0279L114 39.0465C114.502 38.8833 115.047 39.1607 115.225 39.7085L127.343 77.0051C127.506 77.5073 127.229 78.0516 126.727 78.2148Z" fill="white"/>
<path d="M143.099 75.994H142.523C131.627 75.994 126.155 68.554 126.155 61.258C126.155 54.394 131.003 47.194 141.947 47.194C153.851 47.194 154.379 57.802 154.379 59.386C154.379 61.594 153.467 63.418 150.635 64.378C148.379 65.146 144.827 65.674 142.331 65.77C141.563 65.77 141.323 65.434 141.131 64.858C140.555 63.274 139.643 60.154 139.643 59.962C139.643 59.434 140.027 59.194 140.651 59.05C143.147 58.474 143.483 58.378 143.483 57.706C143.483 57.274 142.571 55.738 140.555 55.738C138.251 55.738 136.331 57.754 136.331 60.73C136.331 64.138 138.827 67.978 144.827 67.978C145.163 67.978 145.547 67.978 145.883 67.93H145.979C146.651 67.93 147.467 68.362 147.467 69.178C147.467 69.658 146.219 72.922 145.499 74.554C145.115 75.322 144.491 75.994 143.099 75.994Z" fill="white"/>
<path d="M166.099 91.994H165.523C154.627 91.994 149.155 84.554 149.155 77.258C149.155 70.394 154.003 63.194 164.947 63.194C176.851 63.194 177.379 73.802 177.379 75.386C177.379 77.594 176.467 79.418 173.635 80.378C171.379 81.146 167.827 81.674 165.331 81.77C164.563 81.77 164.323 81.434 164.131 80.858C163.555 79.274 162.643 76.154 162.643 75.962C162.643 75.434 163.027 75.194 163.651 75.05C166.147 74.474 166.483 74.378 166.483 73.706C166.483 73.274 165.571 71.738 163.555 71.738C161.251 71.738 159.331 73.754 159.331 76.73C159.331 80.138 161.827 83.978 167.827 83.978C168.163 83.978 168.547 83.978 168.883 83.93H168.979C169.651 83.93 170.467 84.362 170.467 85.178C170.467 85.658 169.219 88.922 168.499 90.554C168.115 91.322 167.491 91.994 166.099 91.994Z" fill="white"/>
<path d="M180.48 105.231L171.513 101.762C171.057 101.614 170.78 101.07 170.943 100.568L170.972 100.476L184.516 65.0055C184.725 64.5182 185.269 64.2408 185.726 64.3892L185.817 64.4188L193.307 67.3068C195.508 67.2142 197.635 67.5016 199.552 68.1246C207.587 70.7352 212.901 78.922 210.202 87.2305C207.502 95.5389 199.907 98.8753 191.279 96.0719C189.362 95.4489 187.579 94.5669 186.068 93.4702L181.781 104.644C181.558 105.177 181.028 105.409 180.48 105.231ZM192.707 76.1457L189.238 85.1127C190.079 85.9412 191.284 86.7365 192.563 87.1519C192.928 87.2705 197.31 88.6945 198.942 83.6729C199.965 80.523 198.303 77.5605 195.108 76.5222C194.377 76.2848 193.557 76.1696 192.707 76.1457Z" fill="white"/>
<path d="M70.3469 120.193L70.1913 126.728C70.1769 127.717 69.9117 128.342 69.2441 128.612C69.2441 128.612 65.2548 129.757 61.7556 128.272C59.8208 130.659 57.4912 132.325 55.0435 133.314C47.6112 136.316 38.9454 133.191 36.0504 126.026C33.8567 120.596 34.5649 111.458 43.3768 107.897C45.2905 107.124 47.3661 106.751 49.202 106.683L45.1841 94.4318C44.923 93.6572 45.4552 92.9244 46.3453 92.5648L54.0986 89.5876C55.3447 89.0841 55.9345 89.5188 56.1863 90.1419L56.2402 90.2754C56.385 90.89 62.4589 110.024 63.6996 113.095C65.1741 116.744 66.805 119.243 68.9533 119.307C69.5328 119.332 70.1123 119.356 70.2741 119.757C70.328 119.89 70.382 120.024 70.3469 120.193ZM55.7907 122.606C54.67 120.729 53.539 118.442 52.3882 115.594C51.5391 114.902 50.0412 114.782 48.706 115.322C46.0358 116.4 45.3335 119.531 46.3405 122.024C47.3474 124.516 49.9462 125.951 52.7945 124.8C53.7736 124.405 54.7783 123.688 55.7907 122.606Z" fill="white"/>
<path d="M86.5308 114.949L85.9967 115.165C75.8941 119.247 68.0335 114.398 65.3004 107.634C62.7291 101.269 64.5269 92.7775 74.674 88.6778C85.7112 84.2185 90.1746 93.8563 90.7679 95.325C91.5951 97.3722 91.4328 99.405 89.1666 101.356C87.3626 102.913 84.267 104.733 81.9887 105.757C81.2766 106.045 80.9282 105.823 80.5345 105.361C79.407 104.108 77.3927 101.557 77.3207 101.379C77.1229 100.89 77.3891 100.523 77.9137 100.156C80.0122 98.6869 80.2877 98.4721 80.036 97.849C79.8742 97.4485 78.4532 96.3659 76.584 97.1211C74.4478 97.9842 73.4228 100.573 74.5376 103.332C75.8143 106.492 79.567 109.117 85.1301 106.87C85.4416 106.744 85.7977 106.6 86.0912 106.429L86.1802 106.394C86.8033 106.142 87.7217 106.237 88.0274 106.993C88.2072 107.438 88.2728 110.932 88.2166 112.715C88.1482 113.571 87.8214 114.428 86.5308 114.949Z" fill="white"/>
<path d="M103.715 132.33L94.1004 132.305C93.621 132.33 93.167 131.922 93.1394 131.394L93.1344 131.298L93.0672 93.33C93.0875 92.8002 93.4963 92.3462 93.9756 92.321L94.0715 92.316L102.099 92.3279C104.12 91.4529 106.209 90.9589 108.222 90.8534C116.659 90.4113 124.554 96.1499 125.011 104.874C125.468 113.598 119.574 119.435 110.514 119.909C108.501 120.015 106.521 119.83 104.717 119.348L104.719 131.316C104.701 131.894 104.29 132.3 103.715 132.33ZM104.706 100.795L104.681 110.41C105.763 110.882 107.173 111.192 108.515 111.122C108.899 111.102 113.501 110.861 113.224 105.588C113.051 102.28 110.438 100.11 107.082 100.286C106.315 100.326 105.508 100.513 104.706 100.795Z" fill="white"/>
<path d="M142.679 109.006L134.093 113.224C133.563 113.449 132.971 113.283 132.746 112.753L121.756 90.3024C121.531 89.7722 121.741 89.1615 122.227 88.9552L127.24 86.5145C129.307 84.7506 131.455 83.4219 133.664 82.4841C135.166 81.8465 136.699 81.4043 138.2 81.1322C138.938 81.0276 139.353 81.2685 139.578 81.7987C139.653 81.9755 139.684 82.171 139.734 82.4106L141.097 89.1845C141.227 89.8594 140.916 90.3562 140.386 90.5813C140.254 90.6375 140.058 90.6684 139.863 90.6992C139.062 90.7784 138.254 90.9646 137.503 91.2835C136.885 91.546 136.304 91.897 135.672 92.3738L143.15 107.659L143.188 107.747C143.394 108.233 143.165 108.8 142.679 109.006Z" fill="white"/>
<path d="M150.963 132.446L141.603 130.262L141.51 130.235C141.003 130.09 140.753 129.568 140.852 129.048L146.142 106.246C146.301 105.693 146.789 105.383 147.356 105.496L156.716 107.681L156.808 107.707C157.27 107.84 157.566 108.374 157.434 108.835L152.131 131.683L152.104 131.775C151.972 132.236 151.438 132.532 150.963 132.446ZM160.593 100.603C159.522 104.341 155.603 106.513 151.866 105.441C148.082 104.356 145.91 100.438 146.982 96.7002C148.067 92.9167 151.985 90.7446 155.769 91.8295C159.506 92.9012 161.678 96.8197 160.593 100.603Z" fill="white"/>
<path d="M160.437 135.017L156.778 131.837C156.054 131.207 155.527 130.495 155.727 129.46L161.099 106.527C161.232 106.007 161.412 105.654 161.632 105.401C161.979 105.002 162.416 104.938 162.972 105.103C164.188 105.46 170.634 107.629 171.395 108.291C171.938 108.763 172.08 109.332 171.947 109.851L168.226 122.326C168.141 122.57 168.186 122.737 168.259 122.8C168.367 122.895 168.503 122.885 168.8 122.762C172.619 120.93 179.241 117.337 180.03 116.941C180.656 116.659 181.208 116.757 181.679 117.166C181.932 117.387 182.154 117.643 182.35 118.004L185.913 123.709C186.525 124.687 186.537 125.333 186.096 125.84C185.592 126.419 170.333 135.924 162.539 135.891C161.925 135.866 161.089 135.584 160.437 135.017Z" fill="white"/>
<path d="M203.552 128.414L202.977 128.434C192.087 128.814 186.359 121.57 186.104 114.278C185.865 107.418 190.458 100.054 201.396 99.6717C213.292 99.2562 214.19 109.839 214.246 111.422C214.323 113.629 213.475 115.484 210.678 116.542C208.45 117.388 204.919 118.04 202.428 118.223C201.66 118.25 201.409 117.922 201.197 117.353C200.566 115.79 199.545 112.704 199.539 112.512C199.52 111.985 199.896 111.731 200.514 111.566C202.989 110.903 203.321 110.795 203.298 110.124C203.283 109.692 202.318 108.189 200.303 108.259C198 108.339 196.152 110.421 196.256 113.395C196.374 116.801 199.003 120.552 204.999 120.343C205.335 120.331 205.719 120.317 206.053 120.258L206.149 120.254C206.821 120.231 207.651 120.634 207.68 121.45C207.696 121.929 206.563 125.235 205.9 126.891C205.543 127.672 204.943 128.365 203.552 128.414Z" fill="white"/>
<path d="M243.129 134.482L240.748 140.569C240.396 141.494 239.933 141.99 239.213 142.015C239.213 142.015 235.073 141.728 232.292 139.135C229.658 140.716 226.899 141.485 224.261 141.577C216.25 141.857 209.175 135.956 208.906 128.233C208.701 122.38 212.492 114.035 221.991 113.703C224.053 113.631 226.131 113.991 227.88 114.554L228.294 101.668C228.314 100.851 229.065 100.344 230.024 100.311L238.328 100.165C239.671 100.118 240.077 100.728 240.1 101.4L240.105 101.544C240.031 102.171 239.194 122.228 239.31 125.538C239.447 129.472 240.125 132.378 242.122 133.172C242.658 133.394 243.194 133.615 243.209 134.047C243.214 134.191 243.219 134.335 243.129 134.482ZM228.625 131.771C228.214 129.624 227.933 127.088 227.826 124.018C227.265 123.077 225.898 122.452 224.459 122.502C221.581 122.603 219.85 125.305 219.944 127.991C220.038 130.678 221.989 132.915 225.059 132.808C226.114 132.771 227.304 132.441 228.625 131.771Z" fill="white"/>
</mask>
<g mask="url(#mask3_59_2632)">
<path opacity="0.6" d="M156.248 91.0292L158.348 86.6185C160.327 82.4639 160.182 77.6105 157.959 73.5815L154.296 66.9428C153.812 66.0647 153.887 64.9841 154.489 64.1817C154.821 63.7393 155.287 63.4167 155.818 63.2628L180.154 56.2089C183.376 55.2751 186.025 58.8461 184.197 61.6583C183.461 62.7901 183.417 64.2371 184.081 65.4122L188.607 73.42C189.201 74.4709 189.692 75.5766 190.074 76.7218L193.012 85.5346C196.965 97.3943 193.639 110.47 184.5 119L176.359 125.187C173.465 127.386 170.298 129.201 166.937 130.585L162.683 132.336C157.61 134.425 152.177 135.5 146.691 135.5H137.062C129.495 135.5 122.068 133.455 115.567 129.582L105.656 123.678C103.225 122.23 100.654 121.031 97.9814 120.1L77.8435 113.082C72.3755 111.176 68.3491 106.485 67.2947 100.791C66.7743 97.981 67.0102 95.0828 67.9783 92.3936L68.9016 89.8288C70.2779 86.0059 72.6044 82.5961 75.6622 79.9205C77.8686 77.9899 79.7017 75.6705 81.0701 73.0777L94.3542 47.9079C101.8 33.8006 118.773 27.6971 133.498 33.8323L160.526 45.0941C164.162 46.609 165.544 51.0422 163.414 54.3554C163.139 54.7836 162.813 55.177 162.444 55.527L153.601 63.9045C153.534 63.9678 153.458 64.0209 153.376 64.0621C152.899 64.3007 152.319 64.0927 152.102 63.6052L150.801 60.6781C150.602 60.2299 150.322 59.8221 149.975 59.4753L148.982 58.4823C148.002 57.5021 146.854 56.7062 145.592 56.1326L144.674 55.7155C142.904 54.9111 141.01 54.4139 139.074 54.2455L138.406 54.1874C133.311 53.7444 128.229 55.1735 124.112 58.2073L121 60.5L107.5 73.5C100.173 80.0691 101.048 91.7948 109.269 97.2034L112 99C118.885 104.946 128.258 107.116 137.056 104.801L140.82 103.811C147.593 102.028 153.237 97.3525 156.248 91.0292Z" fill="url(#paint13_linear_59_2632)" fill-opacity="0.6"/>
<path opacity="0.6" d="M129.608 159.884L177.33 141.461C182.395 139.506 187.033 136.587 190.987 132.866L194.963 129.124C204.73 119.934 209.52 106.632 207.856 93.3256L204.633 67.5551C203.971 62.266 204.323 56.8992 205.668 51.7415L213.137 23.1125C213.667 21.0795 214.588 19.1693 215.849 17.4885C217.955 14.6803 220.917 12.6332 224.289 11.6559L305.527 -11.8913C316.596 -15.0998 325.699 -2.82948 319.418 6.8335C316.89 10.7223 316.736 15.6945 319.018 19.7322L335.642 49.1428C336.97 51.4933 338.069 53.9663 338.923 56.5277L363.472 130.175C368.668 145.763 364.297 162.949 352.284 174.161L320.459 203.865L281.867 233.195C278.973 235.394 275.806 237.208 272.445 238.592L226.777 257.397C221.704 259.485 216.271 260.56 210.785 260.56H129.292C121.724 260.56 114.297 258.516 107.796 254.642L40.6372 214.633C38.2061 213.185 35.6348 211.986 32.9626 211.054L-53.3749 180.967C-67.6175 176.004 -78.1052 163.785 -80.8516 148.954L-82.93 137.731C-84.2856 130.41 -83.6711 122.861 -81.1494 115.857L-73.2188 93.8269C-70.8044 87.1204 -66.7229 81.1387 -61.3587 76.4449L-47.9043 64.6723C-44.0336 61.2855 -40.8179 57.2165 -38.4173 52.668L37.9802 -92.0852C48.1181 -111.294 71.2292 -119.604 91.2783 -111.251L238.081 -50.0827C250.574 -44.8773 255.325 -29.6446 248.007 -18.2601C247.061 -16.7888 245.941 -15.4371 244.671 -14.2341L214.286 14.5515C214.057 14.7691 213.796 14.9516 213.513 15.0931C211.874 15.9128 209.882 15.1982 209.137 13.5233L204.667 3.46541C203.983 1.92519 203.02 0.524147 201.829 -0.667671L198.416 -4.07981C195.048 -7.44777 191.102 -10.1825 186.766 -12.1535L180.986 -14.7808C176.644 -16.7546 171.997 -17.9743 167.245 -18.3875L150.701 -19.8261C140.524 -20.7111 130.373 -17.8563 122.149 -11.7963L114.844 -6.41428C106.803 -0.489273 101.5 8.43596 100.142 18.3313C99.3132 24.3654 97.0074 30.1014 93.4292 35.0301L68.4599 69.423C66.4941 72.1307 64.8683 75.0697 63.619 78.1739L54.2517 101.45C51.3158 108.746 54.6505 117.059 61.8142 120.303L70.5019 124.237C73.2433 125.478 74.4261 128.732 73.1214 131.444C72.0714 133.627 72.6153 136.242 74.4484 137.826L92.5331 153.444C102.755 162.272 117.009 164.748 129.608 159.884Z" fill="url(#paint14_linear_59_2632)" fill-opacity="0.6"/>
</g>
<g clip-path="url(#clip0_59_2632)">
<path d="M74.2231 128.05C74.2231 128.05 76.5112 122.544 81.1665 122.218C85.8218 121.893 88.854 127.027 88.854 127.027C88.854 127.027 86.5659 132.533 81.9106 132.859C77.2553 133.184 74.2231 128.05 74.2231 128.05Z" stroke="url(#paint15_linear_59_2632)" stroke-opacity="0.6" stroke-width="2" stroke-linecap="round" stroke-linejoin="round"/>
<path d="M81.6781 129.534C82.7799 129.457 83.6107 128.501 83.5337 127.399C83.4566 126.297 82.5009 125.466 81.399 125.543C80.2972 125.62 79.4664 126.576 79.5434 127.678C79.6205 128.78 80.5762 129.611 81.6781 129.534Z" stroke="url(#paint16_linear_59_2632)" stroke-opacity="0.6" stroke-width="2" stroke-linecap="round" stroke-linejoin="round"/>
</g>
<g clip-path="url(#clip1_59_2632)">
<path d="M156.399 36.5822C156.399 36.5822 162.219 37.8794 163.348 42.4075C164.477 46.9355 159.947 50.8132 159.947 50.8132C159.947 50.8132 154.127 49.516 152.998 44.988C151.869 40.4599 156.399 36.5822 156.399 36.5822Z" stroke="url(#paint17_linear_59_2632)" stroke-opacity="0.6" stroke-width="2" stroke-linecap="round" stroke-linejoin="round"/>
<path d="M156.232 44.1816C156.5 45.2533 157.585 45.9056 158.657 45.6383C159.729 45.3711 160.381 44.2857 160.114 43.2139C159.846 42.1421 158.761 41.4899 157.689 41.7572C156.617 42.0244 155.965 43.1098 156.232 44.1816Z" stroke="url(#paint18_linear_59_2632)" stroke-opacity="0.6" stroke-width="2" stroke-linecap="round" stroke-linejoin="round"/>
</g>
<g clip-path="url(#clip2_59_2632)">
<path d="M186.714 50.6592L187.764 51.0623C188.878 51.49 189.777 52.3428 190.262 53.4331C190.748 54.5234 190.78 55.7619 190.353 56.8761C189.925 57.9903 189.072 58.889 187.982 59.3744C186.892 59.8598 185.653 59.8923 184.539 59.4646L183.489 59.0614M186.714 50.6592L169.909 44.2085L166.281 53.661C165.853 54.7752 165.886 56.0137 166.371 57.104C166.857 58.1943 167.755 59.0471 168.869 59.4748L177.272 62.7001C178.386 63.1278 179.624 63.0954 180.715 62.61C181.805 62.1245 182.658 61.2259 183.085 60.1117L186.714 50.6592ZM176.933 38.4693L175.723 41.6201M181.134 40.0819L179.924 43.2327M185.335 41.6946L184.125 44.8454" stroke="url(#paint19_linear_59_2632)" stroke-opacity="0.6" stroke-width="2.5" stroke-linecap="round" stroke-linejoin="round"/>
</g>
<path d="M153.5 138.448C153.212 141.569 152.04 144.543 150.123 147.022C148.206 149.502 145.623 151.384 142.675 152.449C139.728 153.513 136.538 153.717 133.479 153.035C130.42 152.352 127.619 150.813 125.403 148.597C123.187 146.381 121.648 143.58 120.965 140.521C120.283 137.462 120.487 134.272 121.551 131.325C122.616 128.377 124.498 125.794 126.978 123.877C129.457 121.96 132.431 120.788 135.552 120.5C133.725 122.972 132.845 126.017 133.074 129.083C133.303 132.148 134.624 135.029 136.797 137.203C138.971 139.376 141.852 140.697 144.917 140.926C147.983 141.155 151.028 140.275 153.5 138.448Z" stroke="url(#paint20_linear_59_2632)" stroke-opacity="0.6" stroke-width="4" stroke-linecap="round" stroke-linejoin="round"/>
<g clip-path="url(#clip3_59_2632)">
<path d="M213.166 95.3393C213.166 95.3393 213.441 96.4517 214.495 96.8994C215.55 97.3471 216.541 96.7719 216.541 96.7719M214.483 93.4088L214.487 93.4106M217.015 94.4834L217.019 94.4851M219.431 97.0026C218.442 99.3327 215.751 100.42 213.421 99.4308C211.091 98.4417 210.004 95.751 210.993 93.4209C211.982 91.0909 214.672 90.0038 217.002 90.9928C219.333 91.9819 220.42 94.6726 219.431 97.0026Z" stroke="url(#paint21_linear_59_2632)" stroke-opacity="0.6" stroke-linecap="round" stroke-linejoin="round"/>
</g>
<g clip-path="url(#clip4_59_2632)">
<path d="M224.82 109.189L223.481 107.703L219.133 109.599L223.814 101.348L219.467 103.244L218.128 101.758" stroke="url(#paint22_linear_59_2632)" stroke-opacity="0.6" stroke-linecap="round" stroke-linejoin="round"/>
</g>
<g clip-path="url(#clip5_59_2632)">
<path d="M248.133 101.944L250.3 105.697M252.467 109.449L252.476 109.444M243.745 98.0477L243.458 115.902C243.458 116.28 243.557 116.652 243.745 116.98C243.933 117.308 244.204 117.581 244.53 117.772C244.857 117.963 245.228 118.065 245.606 118.068C245.985 118.072 246.357 117.976 246.687 117.79L262.58 108.614C262.905 108.421 263.175 108.147 263.361 107.818C263.548 107.488 263.645 107.116 263.643 106.738C263.641 106.359 263.539 105.988 263.349 105.661C263.159 105.334 262.887 105.062 262.559 104.873L246.953 96.1952C246.627 96.016 246.26 95.924 245.888 95.928C245.515 95.9321 245.15 96.032 244.828 96.2182C244.505 96.4044 244.236 96.6705 244.046 96.991C243.857 97.3115 243.753 97.6754 243.745 98.0477Z" stroke="url(#paint23_linear_59_2632)" stroke-opacity="0.6" stroke-width="2.5" stroke-linecap="round" stroke-linejoin="round"/>
</g>
<g clip-path="url(#clip6_59_2632)">
<path d="M73.1989 56.1915L71.6828 61.4784M67.1348 77.3392L65.6188 82.6262M62.7437 57.3846L65.4117 62.1977M73.406 76.6199L76.074 81.433M56.1915 65.6188L61.4784 67.1348M77.3393 71.6828L82.6262 73.1988M57.3846 76.0739L62.1977 73.406M76.62 65.4116L81.433 62.7437" stroke="url(#paint24_linear_59_2632)" stroke-opacity="0.6" stroke-width="4" stroke-linecap="round" stroke-linejoin="round"/>
</g>
<g clip-path="url(#clip7_59_2632)">
<path d="M45.0248 72.6569L45.0772 75.6564M45.2342 84.655L45.2866 87.6546M39.7615 74.9466L41.9207 77.0317M48.3907 83.2797L50.5499 85.3649M37.6568 80.2866L40.6564 80.2343M49.655 80.0772L52.6546 80.0248M39.9466 85.5499L42.0317 83.3907M48.2797 76.9207L50.3649 74.7615" stroke="url(#paint25_linear_59_2632)" stroke-opacity="0.6" stroke-width="2" stroke-linecap="round" stroke-linejoin="round"/>
</g>
<g clip-path="url(#clip8_59_2632)">
<path d="M33.2662 65.0509L32.623 67.2939M30.6936 74.0227L30.0504 76.2657M28.8307 65.5571L29.9625 67.599M33.3541 73.7176L34.4859 75.7595M26.0509 69.0504L28.2939 69.6936M35.0227 71.623L37.2656 72.2662M26.5571 73.4859L28.599 72.3541M34.7176 68.9625L36.7595 67.8307" stroke="url(#paint26_linear_59_2632)" stroke-opacity="0.6" stroke-width="1.5" stroke-linecap="round" stroke-linejoin="round"/>
</g>
<g clip-path="url(#clip9_59_2632)">
<path d="M97.0973 53.9048C97.1773 54.2037 97.1354 54.5221 96.9807 54.7901C96.826 55.058 96.5712 55.2536 96.2723 55.3337L89.5108 57.1454L87.8609 60.0031L85.4453 50.9878C85.3652 50.6889 85.4071 50.3705 85.5618 50.1025C85.7165 49.8346 85.9713 49.639 86.2702 49.5589L94.1586 47.4453C94.4575 47.3652 94.7759 47.4071 95.0439 47.5618C95.3119 47.7165 95.5074 47.9713 95.5875 48.2702L97.0973 53.9048Z" stroke="url(#paint27_linear_59_2632)" stroke-opacity="0.6" stroke-width="2" stroke-linecap="round" stroke-linejoin="round"/>
</g>
<defs>
<filter id="filter0_d_59_2632" x="179.973" y="12.6505" width="76.1315" height="88.7935" filterUnits="userSpaceOnUse" color-interpolation-filters="sRGB">
<feFlood flood-opacity="0" result="BackgroundImageFix"/>
<feColorMatrix in="SourceAlpha" type="matrix" values="0 0 0 0 0 0 0 0 0 0 0 0 0 0 0 0 0 0 127 0" result="hardAlpha"/>
<feOffset/>
<feGaussianBlur stdDeviation="2"/>
<feComposite in2="hardAlpha" operator="out"/>
<feColorMatrix type="matrix" values="0 0 0 0 0.584314 0 0 0 0 0.439216 0 0 0 0 1 0 0 0 0.75 0"/>
<feBlend mode="normal" in2="BackgroundImageFix" result="effect1_dropShadow_59_2632"/>
<feBlend mode="normal" in="SourceGraphic" in2="effect1_dropShadow_59_2632" result="shape"/>
</filter>
<filter id="filter1_dd_59_2632" x="100.65" y="-45.3641" width="193.172" height="206.597" filterUnits="userSpaceOnUse" color-interpolation-filters="sRGB">
<feFlood flood-opacity="0" result="BackgroundImageFix"/>
<feColorMatrix in="SourceAlpha" type="matrix" values="0 0 0 0 0 0 0 0 0 0 0 0 0 0 0 0 0 0 127 0" result="hardAlpha"/>
<feOffset dy="-11"/>
<feGaussianBlur stdDeviation="17.8"/>
<feComposite in2="hardAlpha" operator="out"/>
<feColorMatrix type="matrix" values="0 0 0 0 0.584314 0 0 0 0 0.439216 0 0 0 0 1 0 0 0 1 0"/>
<feBlend mode="normal" in2="BackgroundImageFix" result="effect1_dropShadow_59_2632"/>
<feColorMatrix in="SourceAlpha" type="matrix" values="0 0 0 0 0 0 0 0 0 0 0 0 0 0 0 0 0 0 127 0" result="hardAlpha"/>
<feOffset dx="-7" dy="-21"/>
<feGaussianBlur stdDeviation="28.2"/>
<feComposite in2="hardAlpha" operator="out"/>
<feColorMatrix type="matrix" values="0 0 0 0 1 0 0 0 0 0.744611 0 0 0 0 0.518055 0 0 0 1 0"/>
<feBlend mode="normal" in2="effect1_dropShadow_59_2632" result="effect2_dropShadow_59_2632"/>
<feBlend mode="normal" in="SourceGraphic" in2="effect2_dropShadow_59_2632" result="shape"/>
</filter>
<filter id="filter2_d_59_2632" x="19.3" y="23.3" width="239.612" height="134.415" filterUnits="userSpaceOnUse" color-interpolation-filters="sRGB">
<feFlood flood-opacity="0" result="BackgroundImageFix"/>
<feColorMatrix in="SourceAlpha" type="matrix" values="0 0 0 0 0 0 0 0 0 0 0 0 0 0 0 0 0 0 127 0" result="hardAlpha"/>
<feOffset/>
<feGaussianBlur stdDeviation="7.85"/>
<feComposite in2="hardAlpha" operator="out"/>
<feColorMatrix type="matrix" values="0 0 0 0 0.584314 0 0 0 0 0.439216 0 0 0 0 1 0 0 0 0.81 0"/>
<feBlend mode="normal" in2="BackgroundImageFix" result="effect1_dropShadow_59_2632"/>
<feBlend mode="normal" in="SourceGraphic" in2="effect1_dropShadow_59_2632" result="shape"/>
</filter>
<linearGradient id="paint0_linear_59_2632" x1="25" y1="94.5" x2="266.5" y2="94.5" gradientUnits="userSpaceOnUse">
<stop stop-color="#C6AFFE"/>
<stop offset="0.55" stop-color="#FBB2E6"/>
<stop offset="1" stop-color="#FFDBBA"/>
</linearGradient>
<linearGradient id="paint1_linear_59_2632" x1="230.574" y1="48.7159" x2="206.246" y2="65.7506" gradientUnits="userSpaceOnUse">
<stop stop-color="#D7DBE0"/>
<stop offset="0.43" stop-color="#F1F4F7"/>
<stop offset="1" stop-color="#D7DBE0"/>
</linearGradient>
<linearGradient id="paint2_linear_59_2632" x1="230.574" y1="48.7159" x2="206.246" y2="65.7506" gradientUnits="userSpaceOnUse">
<stop stop-color="#D7DBE0"/>
<stop offset="0.43" stop-color="#F1F4F7"/>
<stop offset="1" stop-color="#D7DBE0"/>
</linearGradient>
<linearGradient id="paint3_linear_59_2632" x1="230.574" y1="48.7159" x2="206.246" y2="65.7506" gradientUnits="userSpaceOnUse">
<stop stop-color="#D7DBE0"/>
<stop offset="0.43" stop-color="#F1F4F7"/>
<stop offset="1" stop-color="#D7DBE0"/>
</linearGradient>
<linearGradient id="paint4_linear_59_2632" x1="212.397" y1="61.948" x2="219.258" y2="71.7468" gradientUnits="userSpaceOnUse">
<stop stop-color="#7DAF6A"/>
<stop offset="1" stop-color="#1E5514"/>
</linearGradient>
<linearGradient id="paint5_linear_59_2632" x1="216.315" y1="55.6788" x2="224.325" y2="60.6451" gradientUnits="userSpaceOnUse">
<stop stop-color="#EE4F37"/>
<stop offset="1" stop-color="#D69A38"/>
</linearGradient>
<linearGradient id="paint6_linear_59_2632" x1="216.315" y1="55.6788" x2="224.325" y2="60.6451" gradientUnits="userSpaceOnUse">
<stop stop-color="#EE4F37"/>
<stop offset="1" stop-color="#D69A38"/>
</linearGradient>
<linearGradient id="paint7_linear_59_2632" x1="222.229" y1="61.6091" x2="224.832" y2="65.3258" gradientUnits="userSpaceOnUse">
<stop stop-color="#7DAF6A"/>
<stop offset="1" stop-color="#1E5514"/>
</linearGradient>
<linearGradient id="paint8_linear_59_2632" x1="215.369" y1="54.3275" x2="218.208" y2="58.3822" gradientUnits="userSpaceOnUse">
<stop stop-color="#7DAF6A"/>
<stop offset="1" stop-color="#1E5514"/>
</linearGradient>
<radialGradient id="paint9_radial_59_2632" cx="0" cy="0" r="1" gradientUnits="userSpaceOnUse" gradientTransform="translate(228.076 59.53) rotate(42.0054) scale(5.50325 11.7045)">
<stop stop-color="#D69A38"/>
<stop offset="1" stop-color="#EE4F37"/>
</radialGradient>
<linearGradient id="paint10_linear_59_2632" x1="210.77" y1="33.3769" x2="198.269" y2="42.1308" gradientUnits="userSpaceOnUse">
<stop stop-color="#87858E"/>
<stop offset="0.485" stop-color="#D6D8DD"/>
<stop offset="1" stop-color="#7F7D86"/>
</linearGradient>
<linearGradient id="paint11_linear_59_2632" x1="210.77" y1="33.3769" x2="198.269" y2="42.1308" gradientUnits="userSpaceOnUse">
<stop stop-color="#87858E"/>
<stop offset="0.485" stop-color="#D6D8DD"/>
<stop offset="1" stop-color="#7F7D86"/>
</linearGradient>
<linearGradient id="paint12_linear_59_2632" x1="201.578" y1="26.7214" x2="197.762" y2="39.9685" gradientUnits="userSpaceOnUse">
<stop stop-color="#DB3D30"/>
<stop offset="1" stop-color="#E48B19"/>
</linearGradient>
<linearGradient id="paint13_linear_59_2632" x1="96" y1="110" x2="173" y2="58.5" gradientUnits="userSpaceOnUse">
<stop stop-color="#9570FF"/>
<stop offset="0.536667" stop-color="#FC75D0"/>
<stop offset="1" stop-color="#FFBE84"/>
</linearGradient>
<linearGradient id="paint14_linear_59_2632" x1="16.3646" y1="172.94" x2="280.944" y2="-4.01886" gradientUnits="userSpaceOnUse">
<stop stop-color="#9570FF"/>
<stop offset="0.536667" stop-color="#FC75D0"/>
<stop offset="1" stop-color="#FFBE84"/>
</linearGradient>
<linearGradient id="paint15_linear_59_2632" x1="81.1665" y1="122.218" x2="81.9106" y2="132.859" gradientUnits="userSpaceOnUse">
<stop stop-color="#FF70D7"/>
<stop offset="1" stop-color="#AF70FF"/>
</linearGradient>
<linearGradient id="paint16_linear_59_2632" x1="81.1665" y1="122.218" x2="81.9106" y2="132.859" gradientUnits="userSpaceOnUse">
<stop stop-color="#FF70D7"/>
<stop offset="1" stop-color="#AF70FF"/>
</linearGradient>
<linearGradient id="paint17_linear_59_2632" x1="163.348" y1="42.4075" x2="152.998" y2="44.988" gradientUnits="userSpaceOnUse">
<stop stop-color="#FF70D7"/>
<stop offset="1" stop-color="#AF70FF"/>
</linearGradient>
<linearGradient id="paint18_linear_59_2632" x1="163.348" y1="42.4075" x2="152.998" y2="44.988" gradientUnits="userSpaceOnUse">
<stop stop-color="#FF70D7"/>
<stop offset="1" stop-color="#AF70FF"/>
</linearGradient>
<linearGradient id="paint19_linear_59_2632" x1="183.76" y1="41.0898" x2="175.696" y2="62.0954" gradientUnits="userSpaceOnUse">
<stop stop-color="#FF8A70"/>
<stop offset="0.486667" stop-color="#FF76C1"/>
<stop offset="1" stop-color="#F470FF"/>
</linearGradient>
<linearGradient id="paint20_linear_59_2632" x1="137.035" y1="120.5" x2="137.035" y2="153.43" gradientUnits="userSpaceOnUse">
<stop stop-color="#FF8A70"/>
<stop offset="0.486667" stop-color="#FF76C1"/>
<stop offset="1" stop-color="#F470FF"/>
</linearGradient>
<linearGradient id="paint21_linear_59_2632" x1="217.002" y1="90.9928" x2="213.421" y2="99.4308" gradientUnits="userSpaceOnUse">
<stop stop-color="#FF70D7"/>
<stop offset="1" stop-color="#AF70FF"/>
</linearGradient>
<linearGradient id="paint22_linear_59_2632" x1="224.818" y1="102.463" x2="218.13" y2="108.485" gradientUnits="userSpaceOnUse">
<stop stop-color="#FF70D7"/>
<stop offset="1" stop-color="#AF70FF"/>
</linearGradient>
<linearGradient id="paint23_linear_59_2632" x1="244.828" y1="96.2182" x2="254.633" y2="113.202" gradientUnits="userSpaceOnUse">
<stop stop-color="#FF70D7"/>
<stop offset="1" stop-color="#AF70FF"/>
</linearGradient>
<linearGradient id="paint24_linear_59_2632" x1="73.1989" y1="56.1915" x2="65.6188" y2="82.6262" gradientUnits="userSpaceOnUse">
<stop stop-color="#FF70D7"/>
<stop offset="1" stop-color="#AF70FF"/>
</linearGradient>
<linearGradient id="paint25_linear_59_2632" x1="45.0248" y1="72.6569" x2="45.2866" y2="87.6546" gradientUnits="userSpaceOnUse">
<stop stop-color="#FF70D7"/>
<stop offset="1" stop-color="#AF70FF"/>
</linearGradient>
<linearGradient id="paint26_linear_59_2632" x1="33.2662" y1="65.0509" x2="30.0504" y2="76.2657" gradientUnits="userSpaceOnUse">
<stop stop-color="#FF70D7"/>
<stop offset="1" stop-color="#AF70FF"/>
</linearGradient>
<linearGradient id="paint27_linear_59_2632" x1="90.2144" y1="48.5021" x2="92.932" y2="58.6443" gradientUnits="userSpaceOnUse">
<stop stop-color="#FF70D7"/>
<stop offset="1" stop-color="#AF70FF"/>
</linearGradient>
<clipPath id="clip0_59_2632">
<rect width="16" height="16" fill="white" transform="translate(73 120.116) rotate(-4)"/>
</clipPath>
<clipPath id="clip1_59_2632">
<rect width="16" height="16" fill="white" transform="translate(164 34) rotate(76)"/>
</clipPath>
<clipPath id="clip2_59_2632">
<rect width="27" height="27" fill="white" transform="translate(171.034 35) rotate(21)"/>
</clipPath>
<clipPath id="clip3_59_2632">
<rect width="11" height="11" fill="white" transform="translate(212.298 88) rotate(23)"/>
</clipPath>
<clipPath id="clip4_59_2632">
<rect width="12" height="12" fill="white" transform="translate(221.918 97) rotate(48)"/>
</clipPath>
<clipPath id="clip5_59_2632">
<rect width="26" height="26" fill="white" transform="translate(232 100) rotate(-30)"/>
</clipPath>
<clipPath id="clip6_59_2632">
<rect width="33" height="33" fill="white" transform="translate(58.096 49) rotate(16)"/>
</clipPath>
<clipPath id="clip7_59_2632">
<rect width="18" height="18" fill="white" transform="translate(36 71.3141) rotate(-1)"/>
</clipPath>
<clipPath id="clip8_59_2632">
<rect width="14" height="14" fill="white" transform="translate(26.8589 62) rotate(16)"/>
</clipPath>
<clipPath id="clip9_59_2632">
<rect width="14" height="14" fill="white" transform="translate(83 48.6235) rotate(-15)"/>
</clipPath>
</defs>
</svg>
